<svg width="36" height="36" viewBox="0 0 36 36" fill="none" xmlns="http://www.w3.org/2000/svg">
<g clip-path="url(#clip0_157_13968)">
<path d="M36 18C36 8.05887 27.9411 0 18 0C8.05887 0 0 8.05887 0 18C0 27.9411 8.05887 36 18 36C27.9411 36 36 27.9411 36 18Z" fill="white"/>
<path d="M18 0C14.4399 0 10.9598 1.05568 7.99974 3.03355C5.03966 5.01141 2.73255 7.82263 1.37018 11.1117C0.00779909 14.4008 -0.348661 18.02 0.345873 21.5116C1.04041 25.0033 2.75474 28.2106 5.27209 30.7279C7.78943 33.2453 10.9967 34.9596 14.4884 35.6541C17.98 36.3487 21.5992 35.9922 24.8883 34.6298C28.1774 33.2675 30.9886 30.9603 32.9665 28.0003C34.9443 25.0402 36 21.5601 36 18C36 13.2261 34.1036 8.64773 30.7279 5.27208C27.3523 1.89642 22.7739 0 18 0V0Z" fill="#8E8E8E"/>
<path fill-rule="evenodd" clip-rule="evenodd" d="M22.7778 9.99995C23.4528 9.99995 24 10.5456 24 11.2188L24 25.7811C24 26.4543 23.4528 27 22.7778 27C22.1028 27 21.5556 26.4543 21.5556 25.7811L21.5556 18.5L21.5556 11.2188C21.5556 10.5456 22.1028 9.99995 22.7778 9.99995ZM13.2222 10C13.8972 10 14.4445 10.5457 14.4445 11.2189L14.4445 25.7812C14.4445 26.4543 13.8972 27 13.2222 27C12.5472 27 12 26.4543 12 25.7812L12 11.2189C12 10.5457 12.5472 10 13.2222 10Z" fill="white"/>
</g>
<defs>
<clipPath id="clip0_157_13968">
<rect width="36" height="36" fill="white"/>
</clipPath>
</defs>
</svg>
