<svg width="100" height="93" viewBox="0 0 100 93" fill="none" xmlns="http://www.w3.org/2000/svg">
<path d="M64.5768 74.6158C64.5789 75.1833 64.3558 75.7285 63.9563 76.1317C63.5568 76.5348 63.0136 76.7629 62.4461 76.7658C61.7718 76.7679 61.1207 77.0127 60.612 77.4553C60.1033 77.898 59.7709 78.5089 59.6755 79.1765C59.6386 79.5518 59.6808 79.9307 59.7995 80.2887C59.9182 80.6466 60.1107 80.9757 60.3646 81.2546C60.6185 81.5335 60.9281 81.7559 61.2734 81.9076C61.6187 82.0593 61.9919 82.1368 62.3691 82.1351L66.4492 82.1247C67.4025 82.1179 68.3141 81.7331 68.984 81.0549C69.6539 80.3767 70.0273 79.4604 70.0224 78.5072L69.9306 63.6302L64.5373 63.6585L64.5768 74.6158Z" fill="#27B5F7"/>
<path d="M47.8558 70.624C47.6708 71.1612 47.2811 71.6035 46.7716 71.8547C46.2621 72.1059 45.674 72.1457 45.1353 71.9654C44.4898 71.7296 43.7802 71.7398 43.1418 71.9941C42.5034 72.2484 41.9811 72.7289 41.6746 73.3439C41.5174 73.6868 41.434 74.0588 41.4296 74.4359C41.4253 74.813 41.5002 75.1869 41.6495 75.5332C41.7987 75.8796 42.0191 76.1907 42.2962 76.4466C42.5733 76.7024 42.901 76.8972 43.2582 77.0184L47.1359 78.3316C47.5824 78.4839 48.0545 78.5467 48.5253 78.5163C48.9961 78.4859 49.4562 78.363 49.8794 78.1545C50.3025 77.946 50.6804 77.656 50.9914 77.3012C51.3023 76.9465 51.5402 76.5339 51.6914 76.087L56.4886 61.978L51.3865 60.2439L47.8558 70.624Z" fill="#27B5F7"/>
<path d="M66.7132 36.5196L63.3482 34.1207L60.1715 31.5206L56.7516 29.2672L53.366 26.9654L50.1666 24.4089L46.8345 22.0235L43.4272 19.7512L40.2037 17.2183L36.8511 15.0934L35.8977 19.2292L35.0198 23.4969L33.9172 27.7156L32.9751 31.9761L32.1301 36.2572L31.2382 40.524L30.1158 44.7441L29.1267 48.9902L28.3731 53.2944L27.4367 57.5525L26.3061 61.7692L25.3417 66.0254L24.4996 70.2646L28.4906 69.6174L32.5163 68.8741L36.5532 68.1738L40.5585 67.3166L44.5833 66.5873L48.6255 65.9324L52.6464 65.1775L56.6706 64.4144L60.6655 63.7112L64.4298 65.5347L68.2154 67.3765L71.8188 69.5805L75.575 71.4822L79.3467 73.3231L80.3942 69.1683L81.1432 64.9341L82.1893 60.7595L82.972 56.5247L84.037 52.3627L85.0222 48.1727L85.7909 43.937L86.7786 39.7528L87.8135 35.5352L83.5712 35.6951L79.3716 36.0549L75.1625 36.0988L70.9505 36.1848L66.7132 36.5196Z" fill="#27B5F7"/>
<path d="M58.162 45.2949C57.5914 47.8548 56.3101 50.4734 53.5395 49.8548C50.769 49.2361 50.6943 46.4354 51.2923 43.7619C51.8903 41.0884 53.6953 40.2114 55.5771 40.6093C57.459 41.0073 58.7408 42.7384 58.162 45.2949Z" fill="white"/>
<path d="M56.9778 44.8223C56.5196 46.8699 55.5008 48.9713 53.2794 48.4707C51.058 47.9702 51.0024 45.7349 51.4803 43.5969C51.9582 41.4589 53.4082 40.7624 54.9276 41.0964C56.447 41.4305 57.4506 42.8096 56.9778 44.8223Z" fill="black"/>
<path d="M75.8079 49.22C75.2373 51.7799 73.9585 54.4043 71.1855 53.7799C68.4125 53.1554 68.3402 50.3605 68.9382 47.687C69.5362 45.0136 71.3437 44.1423 73.241 44.561C75.1383 44.9797 76.3809 46.6659 75.8079 49.22Z" fill="white"/>
<path d="M74.2231 48.8265C73.7984 50.7514 72.8299 52.7257 70.7415 52.2611C68.6531 51.7965 68.6046 49.6829 69.0479 47.6729C69.4912 45.663 70.86 44.998 72.2931 45.3191C73.7262 45.6401 74.6517 46.8923 74.2231 48.8265Z" fill="black"/>
<path d="M16.2485 52.9529C16.1434 53.0971 16.0102 53.2186 15.8571 53.3096C15.704 53.4007 15.5343 53.4595 15.3584 53.4824L8.59875 54.3245L1.99612 55.6014C1.82881 55.6302 1.65786 55.6256 1.4931 55.5878C1.32834 55.55 1.17304 55.4797 1.03614 55.3811C0.899239 55.2824 0.783454 55.1573 0.695447 55.013C0.607439 54.8687 0.548953 54.708 0.523359 54.5401C0.474803 54.2023 0.559952 53.8574 0.760634 53.5789C0.961316 53.3003 1.26162 53.1104 1.59743 53.0495L8.2808 51.7665L15.1273 50.9098C15.4655 50.8689 15.8044 50.9642 16.0698 51.1747C16.3352 51.3852 16.5053 51.6938 16.5429 52.0327C16.5687 52.365 16.4629 52.6956 16.2485 52.9529Z" fill="black"/>
<path d="M18.6042 41.7461C18.4163 41.9273 18.1783 42.0481 17.9205 42.093C17.6627 42.1378 17.3969 42.1047 17.1569 41.9978L9.88143 38.7525L3.04443 34.8935C2.73826 34.7208 2.51236 34.4341 2.4164 34.0963C2.32043 33.7585 2.36228 33.3973 2.53274 33.0923C2.70319 32.7873 2.98829 32.5633 3.32532 32.4697C3.66234 32.3761 4.02368 32.4205 4.32985 32.5932L11.1223 36.421L18.2187 39.587C18.541 39.7304 18.7943 39.9955 18.9228 40.3241C19.0513 40.6526 19.0445 41.0179 18.904 41.3396C18.8308 41.493 18.729 41.6309 18.6042 41.7461Z" fill="black"/>
<path d="M23.3802 29.3765C23.0626 29.5179 22.7031 29.5323 22.3763 29.4166C22.0495 29.3009 21.7806 29.0641 21.6253 28.7553L18.5448 22.5382L14.8092 16.7472C14.6201 16.4593 14.5514 16.1089 14.6178 15.7703C14.6842 15.4317 14.8804 15.1317 15.1647 14.934C15.4552 14.747 15.8065 14.6787 16.1453 14.7432C16.4841 14.8077 16.7843 15.0001 16.9833 15.2803L20.8657 21.2389L23.9736 27.4905C24.0506 27.6463 24.096 27.8159 24.1071 27.9895C24.1182 28.1631 24.0949 28.3373 24.0384 28.5022C23.9819 28.6672 23.8934 28.8195 23.7779 28.9506C23.6624 29.0816 23.5223 29.1888 23.3654 29.2661L23.3802 29.3765Z" fill="black"/>
</svg>
