<svg width="50" height="50" viewBox="0 0 50 50" fill="none" xmlns="http://www.w3.org/2000/svg">
<rect width="50" height="50" rx="6" fill="black"/>
<path d="M12.2353 35C11.8853 35 11.592 34.8787 11.3554 34.6362C11.1185 34.394 11 34.0936 11 33.735C11 33.3768 11.1185 33.0765 11.3554 32.8343C11.592 32.5923 11.8853 32.4714 12.2353 32.4714H27.8824C28.2324 32.4714 28.5257 32.5925 28.7623 32.8347C28.9992 33.0772 29.1176 33.3777 29.1176 33.7363C29.1176 34.0946 28.9992 34.3949 28.7623 34.6371C28.5257 34.879 28.2324 35 27.8824 35H12.2353ZM12.2353 26.7645C11.8853 26.7645 11.592 26.6433 11.3554 26.4008C11.1185 26.1583 11 25.8579 11 25.4996C11 25.141 11.1185 24.8408 11.3554 24.5988C11.592 24.3566 11.8853 24.2355 12.2353 24.2355H37.7647C38.1147 24.2355 38.408 24.3567 38.6446 24.5992C38.8815 24.8417 39 25.1421 39 25.5004C39 25.859 38.8815 26.1592 38.6446 26.4012C38.408 26.6434 38.1147 26.7645 37.7647 26.7645H12.2353ZM12.2353 18.5286C11.8853 18.5286 11.592 18.4075 11.3554 18.1653C11.1185 17.9228 11 17.6223 11 17.2637C11 16.9054 11.1185 16.6051 11.3554 16.3629C11.592 16.121 11.8853 16 12.2353 16H37.7647C38.1147 16 38.408 16.1213 38.6446 16.3638C38.8815 16.606 39 16.9064 39 17.265C39 17.6232 38.8815 17.9235 38.6446 18.1657C38.408 18.4077 38.1147 18.5286 37.7647 18.5286H12.2353Z" fill="white"/>
</svg>
