<svg width="25" height="25" viewBox="0 0 25 25" fill="none" xmlns="http://www.w3.org/2000/svg">
<rect x="1" y="1" width="23" height="23" rx="5" fill="#C7000A" stroke="#C7000A" stroke-width="2"/>
<path fill-rule="evenodd" clip-rule="evenodd" d="M17.6083 5.93043C17.8635 5.93057 18.1187 5.93071 18.374 5.93071C18.7982 5.93071 18.9731 6.10601 18.9731 6.53064C18.9731 6.6139 18.9732 6.69712 18.9733 6.78032C18.9734 6.94668 18.9736 7.11298 18.9731 7.27945C18.9719 7.64285 18.7814 7.83496 18.4196 7.83496H12.3983H6.42219C6.01637 7.83496 5.83467 7.65526 5.83427 7.25424C5.83418 7.19196 5.83402 7.1297 5.83386 7.06746C5.83334 6.8601 5.83282 6.65286 5.83467 6.44539C5.83747 6.13362 6.03918 5.93191 6.35335 5.93151C6.40543 5.93144 6.45751 5.93136 6.50958 5.93128C7.55091 5.92974 8.59223 5.9282 9.63355 5.93391C9.77363 5.93471 9.85408 5.89389 9.9077 5.76422C9.96454 5.62614 10.0362 5.49327 10.109 5.3628C10.2415 5.12467 10.4484 5.0014 10.721 5.001C11.5596 4.9998 12.3985 4.99995 13.2373 5.0001C13.5169 5.00015 13.7965 5.0002 14.076 5.0002C14.3642 5.0002 14.5699 5.13868 14.7087 5.38241C14.78 5.50848 14.848 5.63695 14.9036 5.77022C14.9589 5.90149 15.0473 5.93431 15.1838 5.93351C15.992 5.92956 16.8001 5.93 17.6083 5.93043ZM12.4052 8.7451H17.8257L17.8253 8.7443C17.9332 8.7443 17.986 8.7443 18.0099 8.77057C18.0344 8.79733 18.0289 8.85136 18.0215 8.96042C17.9996 9.27963 17.9808 9.59899 17.962 9.91831C17.9494 10.1315 17.9369 10.3446 17.9234 10.5577C17.9019 10.8973 17.88 11.2369 17.8581 11.5765C17.8319 11.9831 17.8056 12.3898 17.7801 12.7965C17.7644 13.0487 17.7495 13.301 17.7345 13.5534C17.7179 13.8335 17.7014 14.1137 17.6837 14.3938C17.6603 14.767 17.6361 15.1401 17.612 15.5132C17.5879 15.8863 17.5638 16.2594 17.5404 16.6326C17.5197 16.9596 17.5003 17.2868 17.4809 17.6139C17.4686 17.8193 17.4564 18.0246 17.4439 18.2299C17.4408 18.2816 17.4384 18.3334 17.436 18.3852C17.4297 18.518 17.4235 18.6508 17.4051 18.7818C17.3075 19.4814 16.7155 19.9981 16.0096 19.9985C13.6034 20.0005 11.1977 20.0009 8.79199 19.9985C8.03277 19.9977 7.42884 19.4002 7.38802 18.6437C7.35875 18.0993 7.32166 17.5553 7.28457 17.0112C7.26232 16.6849 7.24008 16.3586 7.21952 16.0323C7.20106 15.7415 7.18469 15.4505 7.16833 15.1595C7.15278 14.883 7.13723 14.6065 7.11987 14.3302C7.0902 13.8582 7.05909 13.3864 7.02799 12.9146C7.00205 12.5209 6.9761 12.1273 6.95098 11.7335C6.92772 11.3681 6.90625 11.0025 6.88477 10.6368C6.8741 10.455 6.86342 10.2732 6.85252 10.0914C6.84659 9.99175 6.84084 9.89203 6.83509 9.7923C6.81875 9.50887 6.80241 9.22533 6.78168 8.94201L6.78126 8.9362C6.76765 8.75098 6.76722 8.7451 6.95458 8.7451H10.5185H12.4052ZM15.402 17.5403L15.5705 17.3718L15.5709 17.3722C15.6642 17.1497 15.6157 16.9696 15.4412 16.7971C14.8601 16.2231 14.283 15.645 13.7059 15.0669C13.5031 14.8638 13.3004 14.6607 13.0976 14.4578C13.0415 14.4015 13.0422 14.3447 13.0996 14.2873C13.4973 13.8894 13.8952 13.4915 14.2931 13.0936C14.6902 12.6965 15.0874 12.2993 15.4845 11.902C15.6197 11.7668 15.6538 11.5747 15.5737 11.4098C15.4412 11.136 15.0898 11.076 14.8741 11.2917C14.3968 11.7683 13.9199 12.2454 13.443 12.7224C13.125 13.0405 12.807 13.3586 12.4888 13.6766C12.4312 13.734 12.3744 13.7346 12.3183 13.6786C12.1271 13.4875 11.9357 13.2965 11.7443 13.1055C11.1543 12.5166 10.5643 11.9278 9.97864 11.3349C9.80615 11.1604 9.62605 11.1116 9.40352 11.2053L9.23503 11.3737C9.14178 11.5959 9.19021 11.7764 9.3647 11.9485C9.96149 12.5376 10.5539 13.1312 11.1463 13.7248C11.3333 13.9122 11.5204 14.0997 11.7076 14.2869C11.7644 14.3438 11.7644 14.4006 11.7076 14.4574L11.7048 14.4603C10.9149 15.2502 10.125 16.0401 9.33509 16.8295C9.28866 16.8756 9.24624 16.9236 9.22182 16.986C9.171 17.1157 9.18901 17.2414 9.24103 17.3658L9.40953 17.5343C9.63205 17.6284 9.81215 17.5804 9.98424 17.4063C10.5529 16.8308 11.1255 16.2593 11.6981 15.6877C11.9049 15.4812 12.1117 15.2748 12.3183 15.0682C12.3752 15.0113 12.432 15.0113 12.4888 15.0682C13.2809 15.8602 14.0733 16.6526 14.8653 17.4451C14.9117 17.4915 14.9598 17.5343 15.0222 17.5587C15.1519 17.61 15.2775 17.5924 15.402 17.5403Z" fill="white"/>
</svg>
