<svg width="40" height="40" viewBox="0 0 40 40" fill="none" xmlns="http://www.w3.org/2000/svg">
<path d="M0 0H40V40H0V0Z" fill="white"/>
<path fill-rule="evenodd" clip-rule="evenodd" d="M26.8998 10.8406C27.2401 10.8408 27.5804 10.8409 27.9207 10.8409C28.4863 10.8409 28.7195 11.0747 28.7195 11.6408C28.7195 11.7519 28.7196 11.8628 28.7198 11.9737C28.72 12.1956 28.7202 12.4173 28.7195 12.6393C28.7179 13.1238 28.4639 13.3799 27.9815 13.3799H19.9532H11.9851C11.444 13.3799 11.2017 13.1403 11.2012 12.6056C11.2011 12.5226 11.2009 12.4396 11.2007 12.3566C11.2 12.0801 11.1993 11.8038 11.2017 11.5272C11.2055 11.1115 11.4744 10.8425 11.8933 10.842C11.9627 10.8419 12.0321 10.8418 12.1016 10.8417C13.49 10.8396 14.8784 10.8376 16.2669 10.8452C16.4537 10.8463 16.5609 10.7919 16.6324 10.619C16.7082 10.4349 16.8037 10.2577 16.9008 10.0837C17.0775 9.76623 17.3533 9.60187 17.7167 9.60134C18.835 9.59974 19.9535 9.59994 21.0719 9.60014C21.4446 9.60021 21.8174 9.60027 22.1901 9.60027C22.5743 9.60027 22.8486 9.78491 23.0338 10.1099C23.1287 10.278 23.2195 10.4493 23.2936 10.627C23.3673 10.802 23.4852 10.8457 23.6672 10.8447C24.7447 10.8394 25.8223 10.84 26.8998 10.8406ZM19.9622 14.5934H27.1896L27.189 14.5923C27.3328 14.5923 27.4032 14.5923 27.4351 14.6273C27.4677 14.663 27.4605 14.7351 27.4505 14.8805C27.4214 15.3061 27.3963 15.7318 27.3712 16.1576C27.3545 16.4418 27.3377 16.726 27.3198 17.0102C27.2911 17.463 27.2619 17.9158 27.2327 18.3685C27.1977 18.9107 27.1628 19.4529 27.1287 19.9952C27.1077 20.3316 27.0878 20.668 27.0679 21.0045C27.0458 21.378 27.0237 21.7515 27.0001 22.1249C26.9689 22.6226 26.9368 23.1201 26.9046 23.6177C26.8724 24.1151 26.8403 24.6125 26.8091 25.11C26.7816 25.546 26.7556 25.9822 26.7297 26.4184C26.7134 26.6922 26.6972 26.966 26.6805 27.2397C26.6763 27.3086 26.6731 27.3777 26.6698 27.4468C26.6616 27.6238 26.6533 27.8009 26.6287 27.9756C26.4985 28.9084 25.7093 29.5973 24.768 29.5978C21.5598 29.6005 18.3522 29.601 15.1446 29.5978C14.1323 29.5967 13.3271 28.8 13.2727 27.7915C13.2336 27.0656 13.1842 26.3402 13.1347 25.6148C13.1051 25.1797 13.0754 24.7447 13.048 24.3096C13.0234 23.9219 13.0016 23.5339 12.9798 23.1459C12.959 22.7772 12.9383 22.4085 12.9151 22.0401C12.8756 21.4108 12.8341 20.7817 12.7926 20.1526C12.758 19.6278 12.7234 19.1029 12.69 18.5779C12.6589 18.0907 12.6303 17.6032 12.6017 17.1156C12.5874 16.8733 12.5732 16.6309 12.5587 16.3885C12.5508 16.2556 12.5431 16.1226 12.5354 15.9896C12.5137 15.6117 12.4919 15.2337 12.4642 14.8559L12.4637 14.8482C12.4455 14.6012 12.4449 14.5934 12.6948 14.5934H17.4467H19.9622ZM23.9579 26.3203L24.1826 26.0956L24.1831 26.0962C24.3075 25.7995 24.2429 25.5593 24.0102 25.3293C23.2355 24.5641 22.466 23.7932 21.6965 23.0224C21.4262 22.7516 21.1559 22.4809 20.8853 22.2103C20.8106 22.1353 20.8115 22.0595 20.888 21.983C21.4181 21.4526 21.9484 20.9223 22.4786 20.3921C23.0084 19.8623 23.5382 19.3325 24.0679 18.8026C24.2482 18.6222 24.2936 18.3661 24.1869 18.1462C24.0102 17.7812 23.5417 17.7012 23.2541 17.9888C22.6175 18.6244 21.9816 19.2606 21.3456 19.8967C20.9217 20.3208 20.4978 20.7448 20.0737 21.1687C19.9969 21.2452 19.9211 21.2461 19.8464 21.1714C19.5914 20.9165 19.3363 20.6619 19.0811 20.4072C18.2944 19.6221 17.5077 18.837 16.7268 18.0465C16.4968 17.8138 16.2567 17.7487 15.96 17.8736L15.7353 18.0982C15.611 18.3944 15.6756 18.635 15.9082 18.8645C16.704 19.6501 17.4938 20.4415 18.2837 21.233C18.5331 21.4829 18.7825 21.7328 19.0321 21.9825C19.1078 22.0582 19.1078 22.134 19.0321 22.2098C17.9776 23.2642 16.9232 24.3187 15.8687 25.3726C15.8068 25.4339 15.7503 25.498 15.7177 25.5812C15.65 25.7541 15.674 25.9217 15.7433 26.0876L15.968 26.3123C16.2647 26.4377 16.5048 26.3736 16.7343 26.1415C17.4925 25.3743 18.2559 24.6122 19.0194 23.8501C19.2951 23.5749 19.5709 23.2996 19.8464 23.0241C19.9221 22.9483 19.9979 22.9483 20.0737 23.0241C21.1297 24.0801 22.1863 25.1367 23.2424 26.1933C23.3043 26.2552 23.3683 26.3123 23.4515 26.3448C23.6244 26.4131 23.792 26.3897 23.9579 26.3203Z" fill="#404040"/>
</svg>
