<svg width="40" height="40" viewBox="0 0 40 40" fill="none" xmlns="http://www.w3.org/2000/svg">
<path d="M0 0H40V40H0V0Z" fill="white" fill-opacity="0.5"/>
<path fill-rule="evenodd" clip-rule="evenodd" d="M26.8998 10.8407C27.2401 10.8409 27.5804 10.841 27.9207 10.841C28.4863 10.841 28.7195 11.0748 28.7195 11.6409C28.7195 11.752 28.7196 11.8629 28.7198 11.9738C28.72 12.1957 28.7202 12.4174 28.7195 12.6393C28.7179 13.1239 28.4639 13.38 27.9815 13.38H19.9532H11.9851C11.444 13.38 11.2017 13.1404 11.2012 12.6057C11.2011 12.5227 11.2009 12.4397 11.2007 12.3567C11.2 12.0802 11.1993 11.8039 11.2017 11.5273C11.2055 11.1116 11.4744 10.8426 11.8933 10.8421C11.9627 10.842 12.0321 10.8419 12.1016 10.8418C13.49 10.8397 14.8784 10.8377 16.2669 10.8453C16.4537 10.8464 16.5609 10.7919 16.6324 10.6191C16.7082 10.435 16.8037 10.2578 16.9008 10.0838C17.0775 9.76632 17.3533 9.60197 17.7167 9.60143C18.835 9.59983 19.9535 9.60003 21.0719 9.60023C21.4446 9.6003 21.8174 9.60036 22.1901 9.60036C22.5743 9.60036 22.8486 9.785 23.0338 10.11C23.1287 10.2781 23.2195 10.4494 23.2936 10.6271C23.3673 10.8021 23.4852 10.8458 23.6672 10.8448C24.7447 10.8395 25.8223 10.8401 26.8998 10.8407ZM19.9622 14.5935H27.1896L27.189 14.5924C27.3328 14.5924 27.4032 14.5924 27.4351 14.6274C27.4677 14.6631 27.4605 14.7351 27.4505 14.8806C27.4214 15.3061 27.3963 15.7319 27.3712 16.1576C27.3545 16.4419 27.3377 16.7261 27.3198 17.0103C27.2911 17.4631 27.2619 17.9159 27.2327 18.3686C27.1977 18.9108 27.1628 19.453 27.1287 19.9953C27.1077 20.3317 27.0878 20.6681 27.0679 21.0045C27.0458 21.3781 27.0237 21.7516 27.0001 22.125C26.9689 22.6227 26.9368 23.1202 26.9046 23.6178C26.8724 24.1152 26.8403 24.6126 26.8091 25.1101C26.7816 25.5461 26.7556 25.9823 26.7297 26.4185C26.7134 26.6923 26.6972 26.9661 26.6805 27.2398C26.6763 27.3087 26.6731 27.3778 26.6698 27.4469C26.6616 27.6239 26.6533 27.801 26.6287 27.9757C26.4985 28.9084 25.7093 29.5974 24.768 29.5979C21.5598 29.6006 18.3522 29.6011 15.1446 29.5979C14.1323 29.5968 13.3271 28.8001 13.2727 27.7916C13.2336 27.0657 13.1842 26.3403 13.1347 25.6149C13.1051 25.1798 13.0754 24.7448 13.048 24.3097C13.0234 23.922 13.0016 23.534 12.9798 23.146C12.959 22.7773 12.9383 22.4086 12.9151 22.0402C12.8756 21.4109 12.8341 20.7818 12.7926 20.1527C12.758 19.6278 12.7234 19.103 12.69 18.578C12.6589 18.0908 12.6303 17.6033 12.6017 17.1157C12.5874 16.8733 12.5732 16.631 12.5587 16.3886C12.5508 16.2557 12.5431 16.1227 12.5354 15.9897C12.5137 15.6118 12.4919 15.2338 12.4642 14.856L12.4637 14.8483C12.4455 14.6013 12.4449 14.5935 12.6948 14.5935H17.4467H19.9622ZM23.9579 26.3204L24.1826 26.0957L24.1831 26.0963C24.3075 25.7996 24.2429 25.5594 24.0102 25.3294C23.2355 24.5641 22.466 23.7933 21.6965 23.0225C21.4262 22.7517 21.1559 22.4809 20.8853 22.2104C20.8106 22.1353 20.8115 22.0596 20.888 21.9831C21.4181 21.4527 21.9484 20.9224 22.4786 20.3922C23.0084 19.8624 23.5382 19.3326 24.0679 18.8027C24.2482 18.6223 24.2936 18.3662 24.1869 18.1463C24.0102 17.7813 23.5417 17.7013 23.2541 17.9889C22.6175 18.6245 21.9816 19.2607 21.3456 19.8968C20.9217 20.3209 20.4978 20.7449 20.0737 21.1688C19.9969 21.2453 19.9211 21.2462 19.8464 21.1714C19.5914 20.9166 19.3363 20.662 19.0811 20.4073C18.2944 19.6222 17.5077 18.8371 16.7268 18.0465C16.4968 17.8139 16.2567 17.7488 15.96 17.8737L15.7353 18.0983C15.611 18.3945 15.6756 18.6351 15.9082 18.8646C16.704 19.6502 17.4938 20.4416 18.2837 21.2331C18.5331 21.483 18.7825 21.7328 19.0321 21.9826C19.1078 22.0583 19.1078 22.1341 19.0321 22.2099C17.9776 23.2643 16.9232 24.3188 15.8687 25.3727C15.8068 25.434 15.7503 25.4981 15.7177 25.5813C15.65 25.7542 15.674 25.9218 15.7433 26.0877L15.968 26.3124C16.2647 26.4378 16.5048 26.3737 16.7343 26.1416C17.4925 25.3744 18.2559 24.6123 19.0194 23.8502C19.2951 23.575 19.5709 23.2997 19.8464 23.0242C19.9221 22.9484 19.9979 22.9484 20.0737 23.0242C21.1297 24.0802 22.1863 25.1368 23.2424 26.1934C23.3043 26.2553 23.3683 26.3124 23.4515 26.3449C23.6244 26.4132 23.792 26.3897 23.9579 26.3204Z" fill="#404040"/>
</svg>
