<svg width="40" height="40" viewBox="0 0 40 40" fill="none" xmlns="http://www.w3.org/2000/svg">
<rect width="40" height="40" fill="white" fill-opacity="0.5"/>
<path fill-rule="evenodd" clip-rule="evenodd" d="M23.995 11.7362C25.4216 13.1629 26.8381 14.5794 28.2762 16.017V16.0166C28.4285 15.864 28.5813 15.7115 28.7342 15.5589C29.0637 15.23 29.3938 14.9005 29.7212 14.5683C30.6245 13.652 30.6258 12.348 29.7237 11.4284C29.3458 11.0428 28.9631 10.6617 28.5783 10.2826C27.6835 9.40168 26.3192 9.40658 25.4261 10.2928C25.0812 10.6351 24.7382 10.979 24.3952 11.323C24.2971 11.4213 24.199 11.5196 24.1009 11.6179C24.0723 11.6466 24.0458 11.6774 24.0215 11.7055C24.0123 11.7162 24.0035 11.7265 23.9949 11.7362L23.995 11.7362ZM10.5109 28.6091C10.4738 28.7457 10.4366 28.8824 10.4 29.0193V29.2928C10.5891 29.5981 10.711 29.6486 11.0624 29.5614C11.3569 29.4879 11.6514 29.4146 11.946 29.3412C13.2026 29.0283 14.4593 28.7153 15.7138 28.3944C15.8618 28.3564 16.0154 28.2664 16.1239 28.1579C19.3295 24.9607 22.5313 21.7591 25.7329 18.5578C26.1167 18.174 26.5005 17.7902 26.8844 17.4064C26.9198 17.3712 26.9536 17.3344 26.9795 17.3061C26.9896 17.2951 26.9985 17.2854 27.0058 17.2776C25.576 15.8473 24.1591 14.4304 22.737 13.0083L22.727 12.9983C22.7232 13.0017 22.7183 13.0059 22.7127 13.0107C22.6969 13.0242 22.6754 13.0426 22.6553 13.0627C22.3258 13.3922 21.9964 13.7216 21.667 14.051C18.3742 17.3437 15.0814 20.6364 11.792 23.9325C11.7097 24.0152 11.6453 24.1347 11.6163 24.2484C11.4424 24.931 11.2722 25.6148 11.102 26.2986C10.985 26.7688 10.868 27.2389 10.7497 27.7087C10.6739 28.0097 10.5924 28.3094 10.5109 28.6091Z" fill="#404040"/>
</svg>
