<svg width="40" height="40" viewBox="0 0 40 40" fill="none" xmlns="http://www.w3.org/2000/svg">
<rect width="40" height="40" fill="white"/>
<path fill-rule="evenodd" clip-rule="evenodd" d="M23.995 11.7363C25.4216 13.163 26.8381 14.5795 28.2762 16.0171V16.0167C28.4285 15.8641 28.5813 15.7116 28.7342 15.559C29.0637 15.2301 29.3938 14.9006 29.7212 14.5684C30.6245 13.6521 30.6258 12.3481 29.7237 11.4285C29.3458 11.0429 28.9631 10.6617 28.5783 10.2827C27.6835 9.40178 26.3192 9.40667 25.4261 10.2928C25.0812 10.6352 24.7382 10.9791 24.3952 11.3231C24.2971 11.4214 24.199 11.5197 24.1009 11.618C24.0723 11.6467 24.0458 11.6775 24.0215 11.7056C24.0123 11.7163 24.0035 11.7266 23.9949 11.7362L23.995 11.7363ZM10.5109 28.6092C10.4738 28.7458 10.4366 28.8825 10.4 29.0193V29.2929C10.5891 29.5982 10.711 29.6487 11.0624 29.5615C11.3569 29.488 11.6514 29.4147 11.946 29.3413C13.2026 29.0284 14.4593 28.7154 15.7138 28.3945C15.8618 28.3565 16.0154 28.2665 16.1239 28.158C19.3295 24.9607 22.5313 21.7592 25.7329 18.5579C26.1167 18.1741 26.5005 17.7903 26.8844 17.4065C26.9198 17.3713 26.9536 17.3345 26.9795 17.3062C26.9896 17.2952 26.9985 17.2855 27.0058 17.2777C25.576 15.8474 24.1591 14.4305 22.737 13.0084L22.727 12.9984C22.7232 13.0018 22.7183 13.006 22.7127 13.0108C22.6969 13.0243 22.6754 13.0427 22.6553 13.0628C22.3258 13.3923 21.9964 13.7217 21.667 14.0511C18.3742 17.3438 15.0814 20.6365 11.792 23.9326C11.7097 24.0153 11.6453 24.1348 11.6163 24.2485C11.4424 24.9311 11.2722 25.6149 11.102 26.2987C10.985 26.7689 10.868 27.239 10.7497 27.7088C10.6739 28.0098 10.5924 28.3094 10.5109 28.6092Z" fill="#404040"/>
</svg>
