<svg width="50" height="50" viewBox="0 0 50 50" fill="none" xmlns="http://www.w3.org/2000/svg">
<rect width="50" height="50" rx="6" fill="black"/>
<path d="M25 31C26.6317 31 28.0186 30.4167 29.1608 29.25C30.303 28.0833 30.8741 26.6667 30.8741 25C30.8741 23.3333 30.303 21.9167 29.1608 20.75C28.0186 19.5833 26.6317 19 25 19C23.3683 19 21.9814 19.5833 20.8392 20.75C19.697 21.9167 19.1259 23.3333 19.1259 25C19.1259 26.6667 19.697 28.0833 20.8392 29.25C21.9814 30.4167 23.3683 31 25 31ZM25 28.6C24.021 28.6 23.1888 28.25 22.5035 27.55C21.8182 26.85 21.4755 26 21.4755 25C21.4755 24 21.8182 23.15 22.5035 22.45C23.1888 21.75 24.021 21.4 25 21.4C25.979 21.4 26.8112 21.75 27.4965 22.45C28.1818 23.15 28.5245 24 28.5245 25C28.5245 26 28.1818 26.85 27.4965 27.55C26.8112 28.25 25.979 28.6 25 28.6ZM25 35C22.0847 35 19.425 34.2 17.021 32.6C14.6169 31 12.7187 28.8889 11.3263 26.2667C11.2176 26.0667 11.136 25.8611 11.0816 25.65C11.0272 25.4389 11 25.2222 11 25C11 24.7778 11.0272 24.5611 11.0816 24.35C11.136 24.1389 11.2176 23.9333 11.3263 23.7333C12.7187 21.1111 14.6169 19 17.021 17.4C19.425 15.8 22.0847 15 25 15C27.9153 15 30.575 15.8 32.979 17.4C35.3831 19 37.2813 21.1111 38.6737 23.7333C38.7824 23.9333 38.864 24.1389 38.9184 24.35C38.9728 24.5611 39 24.7778 39 25C39 25.2222 38.9728 25.4389 38.9184 25.65C38.864 25.8611 38.7824 26.0667 38.6737 26.2667C37.2813 28.8889 35.3831 31 32.979 32.6C30.575 34.2 27.9153 35 25 35ZM25 32.3333C27.4584 32.3333 29.7156 31.6722 31.7716 30.35C33.8275 29.0278 35.3994 27.2444 36.4872 25C35.3994 22.7556 33.8275 20.9722 31.7716 19.65C29.7156 18.3278 27.4584 17.6667 25 17.6667C22.5416 17.6667 20.2844 18.3278 18.2284 19.65C16.1725 20.9722 14.6006 22.7556 13.5128 25C14.6006 27.2444 16.1725 29.0278 18.2284 30.35C20.2844 31.6722 22.5416 32.3333 25 32.3333Z" fill="white"/>
</svg>
