<svg width="20" height="20" viewBox="0 0 20 20" fill="none" xmlns="http://www.w3.org/2000/svg">
<rect width="20" height="20" rx="6" fill="black"/>
<path d="M4.89451 13.9999C4.75451 13.9999 4.63718 13.9514 4.54253 13.8544C4.44777 13.7575 4.40039 13.6373 4.40039 13.4939C4.40039 13.3506 4.44777 13.2305 4.54253 13.1336C4.63718 13.0368 4.75451 12.9884 4.89451 12.9884H11.1533C11.2933 12.9884 11.4107 13.0369 11.5053 13.1338C11.6001 13.2308 11.6474 13.351 11.6474 13.4944C11.6474 13.6377 11.6001 13.7578 11.5053 13.8547C11.4107 13.9515 11.2933 13.9999 11.1533 13.9999H4.89451ZM4.89451 10.7057C4.75451 10.7057 4.63718 10.6572 4.54253 10.5602C4.44777 10.4632 4.40039 10.343 4.40039 10.1997C4.40039 10.0563 4.44777 9.93621 4.54253 9.83943C4.63718 9.74254 4.75451 9.69409 4.89451 9.69409H15.1063C15.2463 9.69409 15.3636 9.74259 15.4583 9.8396C15.553 9.9366 15.6004 10.0568 15.6004 10.2001C15.6004 10.3435 15.553 10.4636 15.4583 10.5604C15.3636 10.6573 15.2463 10.7057 15.1063 10.7057H4.89451ZM4.89451 7.41136C4.75451 7.41136 4.63718 7.36291 4.54253 7.26602C4.44777 7.16902 4.40039 7.0488 4.40039 6.90538C4.40039 6.76206 4.44777 6.64196 4.54253 6.54507C4.63718 6.44829 4.75451 6.3999 4.89451 6.3999H15.1063C15.2463 6.3999 15.3636 6.4484 15.4583 6.54541C15.553 6.6423 15.6004 6.76246 15.6004 6.90588C15.6004 7.0492 15.553 7.1693 15.4583 7.26619C15.3636 7.36297 15.2463 7.41136 15.1063 7.41136H4.89451Z" fill="white"/>
</svg>
