<svg width="25" height="25" viewBox="0 0 25 25" fill="none" xmlns="http://www.w3.org/2000/svg">
<rect x="0.5" y="0.5" width="24" height="24" rx="5.5" fill="#2C2C2C" stroke="#2C2C2C"/>
<path d="M6.1355 10.1533C6.1355 8.58869 6.67288 7.25534 7.74763 6.15321C8.82224 5.05107 10.1391 4.5 11.6982 4.5C13.1861 4.5 14.4517 5.02611 15.495 6.07832C16.5384 7.13054 17.121 8.40983 17.2428 9.91619L18.3851 8.80043C18.5179 8.67634 18.6681 8.61429 18.8359 8.61429C19.0038 8.61429 19.1491 8.6757 19.2719 8.79851C19.4058 8.93244 19.4715 9.08913 19.4687 9.26856C19.466 9.44799 19.4054 9.5969 19.2869 9.71529L17.1606 11.8418C17.0059 11.9964 16.8254 12.0737 16.6191 12.0737C16.4129 12.0737 16.2324 11.9964 16.0776 11.8418L13.9644 9.72856C13.9644 9.72856 13.7654 9.44329 13.7654 9.27113C13.7654 9.09882 13.8318 8.94571 13.9644 8.81177C14.0972 8.68896 14.2511 8.62892 14.4261 8.63162C14.6011 8.63433 14.7479 8.69495 14.8664 8.81348L15.9328 9.88003C15.799 8.7411 15.3385 7.77361 14.5513 6.97756C13.7639 6.18166 12.8129 5.78371 11.6982 5.78371C10.5034 5.78371 9.49155 6.21183 8.6627 7.06806C7.83371 7.92444 7.41921 8.95555 7.41921 10.1614L7.41921 11.6755C7.41921 11.8574 7.35766 12.0098 7.23457 12.1327C7.11148 12.2558 6.959 12.3174 6.77714 12.3174C6.59514 12.3174 6.44274 12.2558 6.31993 12.1327C6.19698 12.0098 6.1355 11.8574 6.1355 11.6755L6.1355 10.1533ZM13.6402 14.9207C13.6402 14.6976 13.7143 14.5123 13.8625 14.3648C14.0107 14.2172 14.1944 14.1434 14.4137 14.1434L20.0068 14.1434C20.2296 14.1434 20.4147 14.2175 20.5622 14.3657C20.7098 14.514 20.7836 14.6977 20.7836 14.9168L20.7837 18.8582C20.7837 19.0813 20.7095 19.2666 20.5612 19.4141C20.413 19.5617 20.2293 19.6355 20.01 19.6355L14.417 19.6355C14.1943 19.6355 14.0092 19.5614 13.8615 19.413C13.7141 19.2648 13.6403 19.0811 13.6403 18.8619L13.6402 14.9207ZM4.49991 14.9207C4.49991 14.6976 4.57408 14.5123 4.72242 14.3648C4.87061 14.2172 5.05433 14.1434 5.27356 14.1434L10.9872 14.1434C11.2099 14.1434 11.395 14.2175 11.5427 14.3657C11.6901 14.514 11.7639 14.6977 11.7639 14.9168L11.764 18.8582C11.764 19.0813 11.6899 19.2666 11.5417 19.4141C11.3935 19.5617 11.2098 19.6355 10.9905 19.6355L5.27684 19.6355C5.05405 19.6355 4.86891 19.5613 4.72142 19.413C4.5738 19.2648 4.49998 19.0811 4.49998 18.8619L4.49991 14.9207ZM5.78362 15.4271L5.78369 18.3518L10.4805 18.3518L10.4804 15.4271L5.78362 15.4271Z" fill="white"/>
</svg>
