<svg width="25" height="25" viewBox="0 0 25 25" fill="none" xmlns="http://www.w3.org/2000/svg">
<rect x="0.5" y="0.5" width="24" height="24" rx="5.5" stroke="#2C2C2C"/>
<path d="M19.1482 10.1533C19.1482 8.58869 18.6108 7.25534 17.5361 6.15321C16.4615 5.05107 15.1446 4.5 13.5854 4.5C12.0976 4.5 10.832 5.02611 9.78867 6.07832C8.7453 7.13054 8.16271 8.40983 8.0409 9.91619L6.89861 8.80043C6.76582 8.67634 6.61555 8.61429 6.44781 8.61429C6.27993 8.61429 6.13459 8.6757 6.01178 8.79851C5.87785 8.93244 5.81223 9.08913 5.81495 9.26856C5.81766 9.44799 5.87827 9.5969 5.9968 9.71529L8.12306 11.8418C8.27781 11.9964 8.45832 12.0737 8.66457 12.0737C8.87082 12.0737 9.05132 11.9964 9.20608 11.8418L11.3193 9.72856C11.3193 9.72856 11.5183 9.44329 11.5183 9.27113C11.5183 9.09882 11.4519 8.94571 11.3193 8.81177C11.1865 8.68896 11.0326 8.62892 10.8576 8.63162C10.6826 8.63433 10.5358 8.69495 10.4173 8.81348L9.35092 9.88003C9.48472 8.7411 9.94521 7.77361 10.7324 6.97756C11.5198 6.18166 12.4708 5.78371 13.5854 5.78371C14.7803 5.78371 15.7921 6.21183 16.621 7.06806C17.45 7.92444 17.8645 8.95555 17.8645 10.1614L17.8645 11.6755C17.8645 11.8574 17.926 12.0098 18.0491 12.1327C18.1722 12.2558 18.3247 12.3174 18.5065 12.3174C18.6886 12.3174 18.841 12.2558 18.9638 12.1327C19.0867 12.0098 19.1482 11.8574 19.1482 11.6755L19.1482 10.1533ZM11.6435 14.9207C11.6435 14.6976 11.5694 14.5123 11.4212 14.3648C11.273 14.2172 11.0892 14.1434 10.87 14.1434L5.27693 14.1434C5.05414 14.1434 4.869 14.2175 4.72151 14.3657C4.57389 14.514 4.50007 14.6977 4.50007 14.9168L4.5 18.8582C4.5 19.0813 4.57417 19.2666 4.72251 19.4141C4.87071 19.5617 5.05442 19.6355 5.27365 19.6355L10.8667 19.6355C11.0894 19.6355 11.2745 19.5614 11.4222 19.413C11.5696 19.2648 11.6434 19.0811 11.6434 18.8619L11.6435 14.9207ZM20.7838 14.9207C20.7838 14.6976 20.7096 14.5123 20.5613 14.3648C20.4131 14.2172 20.2294 14.1434 20.0101 14.1434L14.2964 14.1434C14.0738 14.1434 13.8887 14.2175 13.741 14.3657C13.5935 14.514 13.5198 14.6977 13.5198 14.9168L13.5197 18.8582C13.5197 19.0813 13.5938 19.2666 13.742 19.4141C13.8902 19.5617 14.0739 19.6355 14.2932 19.6355L20.0068 19.6355C20.2296 19.6355 20.4148 19.5613 20.5623 19.413C20.7099 19.2648 20.7837 19.0811 20.7837 18.8619L20.7838 14.9207ZM19.5001 15.4271L19.5 18.3518L14.8032 18.3518L14.8033 15.4271L19.5001 15.4271Z" fill="#2C2C2C"/>
</svg>
