<svg width="25" height="25" viewBox="0 0 25 25" fill="none" xmlns="http://www.w3.org/2000/svg">
<rect x="0.5" y="0.5" width="24" height="24" rx="5.5" stroke="#CDCDCD"/>
<path d="M19.1481 10.1533C19.1481 8.58869 18.6107 7.25534 17.5359 6.15321C16.4613 5.05107 15.1445 4.5 13.5853 4.5C12.0975 4.5 10.8319 5.02611 9.78855 6.07832C8.74518 7.13054 8.16259 8.40983 8.04078 9.91619L6.89849 8.80043C6.7657 8.67634 6.61543 8.61429 6.44769 8.61429C6.27981 8.61429 6.13447 8.6757 6.01166 8.79851C5.87772 8.93244 5.81211 9.08913 5.81482 9.26856C5.81753 9.44799 5.87815 9.5969 5.99668 9.71529L8.12293 11.8418C8.27769 11.9964 8.4582 12.0737 8.66445 12.0737C8.87069 12.0737 9.0512 11.9964 9.20596 11.8418L11.3192 9.72856C11.3192 9.72856 11.5181 9.44329 11.5181 9.27113C11.5181 9.09882 11.4518 8.94571 11.3192 8.81177C11.1864 8.68896 11.0325 8.62892 10.8574 8.63162C10.6824 8.63433 10.5357 8.69495 10.4171 8.81348L9.3508 9.88003C9.48459 8.7411 9.94509 7.77361 10.7323 6.97756C11.5196 6.18166 12.4706 5.78371 13.5853 5.78371C14.7802 5.78371 15.792 6.21183 16.6209 7.06806C17.4499 7.92444 17.8644 8.95555 17.8644 10.1614L17.8644 11.6755C17.8644 11.8574 17.9259 12.0098 18.049 12.1327C18.1721 12.2558 18.3246 12.3174 18.5064 12.3174C18.6884 12.3174 18.8408 12.2558 18.9636 12.1327C19.0866 12.0098 19.1481 11.8574 19.1481 11.6755L19.1481 10.1533ZM11.6433 14.9207C11.6433 14.6976 11.5692 14.5123 11.421 14.3648C11.2728 14.2172 11.0891 14.1434 10.8699 14.1434L5.27681 14.1434C5.05402 14.1434 4.86888 14.2175 4.72139 14.3657C4.57376 14.514 4.49995 14.6977 4.49995 14.9168L4.49988 18.8582C4.49988 19.0813 4.57405 19.2666 4.72239 19.4141C4.87059 19.5617 5.0543 19.6355 5.27353 19.6355L10.8666 19.6355C11.0893 19.6355 11.2744 19.5614 11.422 19.413C11.5695 19.2648 11.6433 19.0811 11.6433 18.8619L11.6433 14.9207ZM20.7837 14.9207C20.7837 14.6976 20.7095 14.5123 20.5612 14.3648C20.413 14.2172 20.2292 14.1434 20.01 14.1434L14.2963 14.1434C14.0737 14.1434 13.8885 14.2175 13.7409 14.3657C13.5934 14.514 13.5197 14.6977 13.5197 14.9168L13.5196 18.8582C13.5196 19.0813 13.5937 19.2666 13.7419 19.4141C13.8901 19.5617 14.0738 19.6355 14.293 19.6355L20.0067 19.6355C20.2295 19.6355 20.4147 19.5613 20.5621 19.413C20.7098 19.2648 20.7836 19.0811 20.7836 18.8619L20.7837 14.9207ZM19.4999 15.4271L19.4999 18.3518L14.8031 18.3518L14.8032 15.4271L19.4999 15.4271Z" fill="#CDCDCD"/>
</svg>
