<svg width="50" height="50" viewBox="0 0 50 50" fill="none" xmlns="http://www.w3.org/2000/svg">
<rect width="50" height="50" rx="6" fill="white"/>
<path d="M12.2412 31.4854H18.564V37.8169C18.564 38.169 18.6826 38.4641 18.9197 38.7023C19.1568 38.9405 19.4514 39.0596 19.8035 39.0596C20.1557 39.0596 20.4509 38.9405 20.6891 38.7023C20.9273 38.4641 21.0464 38.169 21.0464 37.8169V31.0074C21.0464 30.4386 20.8542 29.9619 20.47 29.5771C20.0857 29.1924 19.6095 29 19.0414 29H12.2412C11.8895 29 11.5947 29.1187 11.3568 29.3561C11.1189 29.5934 11 29.8884 11 30.241C11 30.5935 11.1189 30.8891 11.3568 31.1276C11.5947 31.3661 11.8895 31.4854 12.2412 31.4854Z" fill="#404040"/>
<path d="M31.4824 37.8169V31.4854H37.8052C38.1569 31.4854 38.4516 31.3667 38.6895 31.1293C38.9274 30.8919 39.0464 30.5969 39.0464 30.2444C39.0464 29.8918 38.9274 29.5962 38.6895 29.3578C38.4516 29.1193 38.1569 29 37.8052 29H31.0049C30.4369 29 29.9607 29.1924 29.5764 29.5771C29.1921 29.9619 29 30.4386 29 31.0074V37.8169C29 38.169 29.1186 38.4641 29.3557 38.7023C29.5927 38.9405 29.8873 39.0596 30.2395 39.0596C30.5916 39.0596 30.8868 38.9405 31.125 38.7023C31.3633 38.4641 31.4824 38.169 31.4824 37.8169Z" fill="#404040"/>
<path d="M31.4824 18.5742H37.8052C38.1569 18.5742 38.4516 18.6935 38.6895 18.932C38.9274 19.1705 39.0464 19.466 39.0464 19.8186C39.0464 20.1712 38.9274 20.4661 38.6895 20.7035C38.4516 20.9409 38.1569 21.0596 37.8052 21.0596H31.0049C30.4369 21.0596 29.9607 20.8672 29.5764 20.4825C29.1921 20.0977 29 19.6209 29 19.0522V12.2427C29 11.8906 29.1191 11.5955 29.3573 11.3573C29.5955 11.1191 29.8907 11 30.2429 11C30.595 11 30.8896 11.1191 31.1267 11.3573C31.3638 11.5955 31.4824 11.8906 31.4824 12.2427V18.5742Z" fill="#404040"/>
<path d="M18.564 12.2427V18.5742H12.2412C11.8895 18.5742 11.5947 18.6929 11.3568 18.9303C11.1189 19.1677 11 19.4627 11 19.8152C11 20.1678 11.1189 20.4633 11.3568 20.7018C11.5947 20.9403 11.8895 21.0596 12.2412 21.0596H19.0414C19.6095 21.0596 20.0857 20.8672 20.47 20.4825C20.8542 20.0977 21.0464 19.6209 21.0464 19.0522V12.2427C21.0464 11.8906 20.9278 11.5955 20.6908 11.3573C20.4537 11.1191 20.159 11 19.8069 11C19.4547 11 19.1596 11.1191 18.9213 11.3573C18.6831 11.5955 18.564 11.8906 18.564 12.2427Z" fill="#404040"/>
<path d="M18.564 12.2427V18.5742H12.2412C11.8895 18.5742 11.5947 18.6929 11.3568 18.9303C11.1189 19.1677 11 19.4627 11 19.8152C11 20.1678 11.1189 20.4633 11.3568 20.7018C11.5947 20.9403 11.8895 21.0596 12.2412 21.0596H19.0414C19.6095 21.0596 20.0857 20.8672 20.47 20.4825C20.8542 20.0977 21.0464 19.6209 21.0464 19.0522V12.2427C21.0464 11.8906 20.9278 11.5955 20.6908 11.3573C20.4537 11.1191 20.159 11 19.8069 11C19.4547 11 19.1596 11.1191 18.9213 11.3573C18.6831 11.5955 18.564 11.8906 18.564 12.2427Z" fill="#404040"/>
</svg>
