<svg width="50" height="50" viewBox="0 0 50 50" fill="none" xmlns="http://www.w3.org/2000/svg">
<rect width="50" height="50" rx="6" fill="black" fill-opacity="0.5"/>
<path d="M29.0928 20.7282C29.7208 21.3659 30.181 22.0915 30.4733 22.905C30.7657 23.7186 30.8685 24.5541 30.7819 25.4116C30.7819 25.7414 30.6628 26.0218 30.4246 26.2526C30.1864 26.4835 29.9049 26.5989 29.58 26.5989C29.2552 26.5989 28.9791 26.4835 28.7517 26.2526C28.5244 26.0218 28.4107 25.7414 28.4107 25.4116C28.5189 24.8399 28.4865 24.2902 28.3132 23.7625C28.14 23.2348 27.8693 22.7841 27.5012 22.4103C27.133 22.0365 26.6891 21.7507 26.1694 21.5528C25.6497 21.3549 25.0974 21.3109 24.5128 21.4208C24.1879 21.4208 23.9118 21.2999 23.6845 21.058C23.4571 20.8162 23.3434 20.5303 23.3434 20.2005C23.3434 19.8707 23.4571 19.5904 23.6845 19.3595C23.9118 19.1286 24.1879 19.0132 24.5128 19.0132C25.3357 18.9252 26.1477 19.0297 26.949 19.3265C27.7502 19.6234 28.4648 20.0906 29.0928 20.7282ZM24.9675 17.6609C24.5561 17.6609 24.1555 17.6774 23.7657 17.7104C23.3759 17.7434 22.9861 17.8039 22.5963 17.8918C22.2282 17.9578 21.8979 17.9028 21.6056 17.7269C21.3132 17.551 21.1129 17.2872 21.0046 16.9354C20.8964 16.5836 20.9343 16.2427 21.1183 15.9129C21.3024 15.5831 21.5677 15.3852 21.9142 15.3193C22.4122 15.2093 22.9157 15.1324 23.4246 15.0884C23.9335 15.0444 24.4478 15.0224 24.9675 15.0224C27.9343 15.0224 30.6466 15.814 33.1044 17.3971C35.5623 18.9802 37.4408 21.113 38.7401 23.7955C38.8268 23.9714 38.8917 24.1528 38.935 24.3397C38.9783 24.5266 39 24.719 39 24.9169C39 25.1148 38.9838 25.3072 38.9513 25.4941C38.9188 25.681 38.8592 25.8624 38.7726 26.0383C38.3828 26.9178 37.901 27.7423 37.3271 28.5119C36.7533 29.2814 36.1199 29.985 35.4269 30.6227C35.1671 30.8646 34.8639 30.9635 34.5174 30.9195C34.1709 30.8755 33.8894 30.6996 33.6729 30.3918C33.4563 30.084 33.3643 29.7487 33.3968 29.3859C33.4292 29.0231 33.5754 28.7208 33.8353 28.4789C34.355 27.9732 34.8314 27.4235 35.2645 26.8298C35.6976 26.2361 36.0766 25.5985 36.4014 24.9169C35.3186 22.6961 33.7541 20.9316 31.7077 19.6234C29.6613 18.3151 27.4145 17.6609 24.9675 17.6609ZM24.9675 34.8113C22.0657 34.8113 19.413 34.0143 17.0093 32.4202C14.6056 30.8261 12.7108 28.7318 11.3248 26.1372C11.2166 25.9613 11.1353 25.7689 11.0812 25.56C11.0271 25.3511 11 25.1368 11 24.9169C11 24.697 11.0217 24.4881 11.065 24.2902C11.1083 24.0923 11.1841 23.8945 11.2923 23.6966C11.7254 22.8171 12.2289 21.976 12.8028 21.1735C13.3766 20.3709 14.0317 19.6398 14.768 18.9802L12.0719 16.2098C11.8337 15.9459 11.72 15.6326 11.7309 15.2698C11.7417 14.907 11.8662 14.6047 12.1044 14.3628C12.3426 14.1209 12.6458 14 13.0139 14C13.3821 14 13.6852 14.1209 13.9234 14.3628L36.0116 36.7902C36.2498 37.0321 36.3743 37.3344 36.3852 37.6972C36.396 38.06 36.2715 38.3734 36.0116 38.6372C35.7734 38.8791 35.4702 39 35.1021 39C34.734 39 34.4308 38.8791 34.1926 38.6372L29.645 34.0858C28.8871 34.3276 28.1183 34.509 27.3387 34.6299C26.5592 34.7509 25.7688 34.8113 24.9675 34.8113ZM16.587 20.8272C15.959 21.3989 15.3852 22.0255 14.8654 22.7071C14.3457 23.3887 13.9018 24.1253 13.5336 24.9169C14.6164 27.1376 16.181 28.9022 18.2274 30.2104C20.2738 31.5187 22.5205 32.1728 24.9675 32.1728C25.4006 32.1728 25.8229 32.1453 26.2343 32.0904C26.6458 32.0354 27.0681 31.9749 27.5012 31.909L26.3318 30.6557C26.0936 30.7216 25.8662 30.7711 25.6497 30.8041C25.4331 30.8371 25.2057 30.8536 24.9675 30.8536C23.3434 30.8536 21.9629 30.2764 20.826 29.122C19.6891 27.9677 19.1206 26.566 19.1206 24.9169C19.1206 24.675 19.1369 24.4442 19.1694 24.2243C19.2019 24.0044 19.2506 23.7735 19.3155 23.5317L16.587 20.8272Z" fill="white"/>
</svg>
