<svg width="25" height="25" viewBox="0 0 25 25" fill="none" xmlns="http://www.w3.org/2000/svg">
<rect x="1" y="1" width="23" height="23" rx="5" fill="#C7000A" stroke="#C7000A" stroke-width="2"/>
<path fill-rule="evenodd" clip-rule="evenodd" d="M17.6084 5.93043C17.8637 5.93057 18.1189 5.93071 18.3741 5.93071C18.7983 5.93071 18.9732 6.10601 18.9732 6.53064C18.9732 6.6139 18.9733 6.69712 18.9734 6.78032C18.9736 6.94668 18.9737 7.11298 18.9732 7.27945C18.972 7.64285 18.7815 7.83496 18.4197 7.83496H12.3984H6.42231C6.01649 7.83496 5.83479 7.65526 5.83439 7.25424C5.8343 7.19196 5.83414 7.1297 5.83398 7.06746C5.83346 6.8601 5.83294 6.65286 5.83479 6.44539C5.83759 6.13362 6.0393 5.93191 6.35347 5.93151C6.40555 5.93144 6.45763 5.93136 6.50971 5.93128C7.55103 5.92974 8.59235 5.9282 9.63368 5.93391C9.77375 5.93471 9.8542 5.89389 9.90783 5.76422C9.96466 5.62614 10.0363 5.49327 10.1091 5.3628C10.2416 5.12467 10.4485 5.0014 10.7211 5.001C11.5597 4.9998 12.3986 4.99995 13.2374 5.0001C13.517 5.00015 13.7966 5.0002 14.0761 5.0002C14.3643 5.0002 14.57 5.13868 14.7089 5.38241C14.7801 5.50848 14.8481 5.63695 14.9038 5.77022C14.959 5.90149 15.0475 5.93431 15.1839 5.93351C15.9921 5.92956 16.8003 5.93 17.6084 5.93043ZM12.4053 8.7451H17.8259L17.8255 8.7443C17.9333 8.7443 17.9861 8.7443 18.0101 8.77057C18.0345 8.79733 18.0291 8.85136 18.0216 8.96042C17.9997 9.27963 17.9809 9.59899 17.9621 9.91831C17.9495 10.1315 17.937 10.3446 17.9235 10.5577C17.902 10.8973 17.8801 11.2369 17.8582 11.5765C17.832 11.9831 17.8058 12.3898 17.7802 12.7965C17.7645 13.0487 17.7496 13.301 17.7346 13.5534C17.7181 13.8335 17.7015 14.1137 17.6838 14.3938C17.6604 14.767 17.6363 15.1401 17.6122 15.5132C17.588 15.8863 17.5639 16.2594 17.5405 16.6326C17.5199 16.9596 17.5004 17.2868 17.481 17.6139C17.4688 17.8193 17.4566 18.0246 17.4441 18.2299C17.4409 18.2816 17.4385 18.3334 17.4361 18.3852C17.4299 18.518 17.4237 18.6508 17.4052 18.7818C17.3076 19.4814 16.7157 19.9981 16.0097 19.9985C13.6036 20.0005 11.1978 20.0009 8.79211 19.9985C8.03289 19.9977 7.42896 19.4002 7.38814 18.6437C7.35887 18.0993 7.32178 17.5553 7.28469 17.0112C7.26245 16.6849 7.2402 16.3586 7.21965 16.0323C7.20118 15.7415 7.18481 15.4505 7.16845 15.1595C7.1529 14.883 7.13735 14.6065 7.11999 14.3302C7.09032 13.8582 7.05922 13.3864 7.02811 12.9146C7.00217 12.5209 6.97622 12.1273 6.9511 11.7335C6.92784 11.3681 6.90637 11.0025 6.88489 10.6368C6.87422 10.455 6.86354 10.2732 6.85265 10.0914C6.84671 9.99175 6.84096 9.89203 6.83521 9.7923C6.81887 9.50887 6.80253 9.22533 6.78181 8.94201L6.78138 8.9362C6.76777 8.75098 6.76734 8.7451 6.9547 8.7451H10.5187H12.4053ZM15.4021 17.5403L15.5706 17.3718L15.571 17.3722C15.6643 17.1497 15.6159 16.9696 15.4414 16.7971C14.8603 16.2231 14.2831 15.645 13.706 15.0669C13.5033 14.8638 13.3006 14.6607 13.0977 14.4578C13.0416 14.4015 13.0423 14.3447 13.0997 14.2873C13.4974 13.8894 13.8953 13.4915 14.2932 13.0936C14.6904 12.6965 15.0875 12.2993 15.4846 11.902C15.6199 11.7668 15.6539 11.5747 15.5738 11.4098C15.4414 11.136 15.09 11.076 14.8743 11.2917C14.3969 11.7683 13.92 12.2454 13.4431 12.7224C13.1251 13.0405 12.8071 13.3586 12.4889 13.6766C12.4313 13.734 12.3745 13.7346 12.3184 13.6786C12.1272 13.4875 11.9358 13.2965 11.7444 13.1055C11.1544 12.5166 10.5644 11.9278 9.97876 11.3349C9.80627 11.1604 9.62617 11.1116 9.40365 11.2053L9.23515 11.3737C9.1419 11.5959 9.19033 11.7764 9.36482 11.9485C9.96161 12.5376 10.554 13.1312 11.1464 13.7248C11.3335 13.9122 11.5205 14.0997 11.7077 14.2869C11.7645 14.3438 11.7645 14.4006 11.7077 14.4574L11.7049 14.4603C10.915 15.2502 10.1251 16.0401 9.33521 16.8295C9.28878 16.8756 9.24636 16.9236 9.22195 16.986C9.17112 17.1157 9.18913 17.2414 9.24116 17.3658L9.40965 17.5343C9.63217 17.6284 9.81227 17.5804 9.98436 17.4063C10.553 16.8308 11.1256 16.2593 11.6982 15.6877C11.905 15.4812 12.1118 15.2748 12.3184 15.0682C12.3753 15.0113 12.4321 15.0113 12.4889 15.0682C13.281 15.8602 14.0734 16.6526 14.8654 17.4451C14.9119 17.4915 14.9599 17.5343 15.0223 17.5587C15.152 17.61 15.2777 17.5924 15.4021 17.5403Z" fill="white"/>
</svg>
