<svg width="25" height="25" viewBox="0 0 25 25" fill="none" xmlns="http://www.w3.org/2000/svg">
<rect x="0.5" y="0.5" width="24" height="24" rx="5.5" stroke="#2C2C2C"/>
<path fill-rule="evenodd" clip-rule="evenodd" d="M14.8972 7.2427C15.8483 8.19502 16.7927 9.14054 17.7514 10.1002V10.0999C17.8529 9.9981 17.9548 9.89632 18.0567 9.79445C18.2764 9.57488 18.4965 9.35493 18.7148 9.13319C19.317 8.52153 19.3178 7.65111 18.7164 7.03727C18.4645 6.77987 18.2093 6.52547 17.9528 6.27242C17.3563 5.68443 16.4467 5.6877 15.8513 6.27922C15.6214 6.50777 15.3927 6.73731 15.164 6.96694C15.0986 7.03256 15.0333 7.09818 14.9679 7.16379C14.9488 7.18291 14.9311 7.20346 14.915 7.22223C14.9088 7.22937 14.9029 7.23625 14.8972 7.2427ZM5.90745 18.5055C5.88269 18.5967 5.85792 18.688 5.8335 18.7793V18.9619C5.95959 19.1657 6.04084 19.1994 6.27509 19.1412C6.47147 19.0921 6.66787 19.0432 6.86426 18.9942C7.70198 18.7853 8.53972 18.5764 9.37603 18.3622C9.47468 18.3369 9.57713 18.2767 9.64942 18.2044C11.786 16.0706 13.9201 13.9341 16.054 11.7976C16.3104 11.541 16.5667 11.2843 16.8231 11.0277C16.8467 11.0042 16.8693 10.9796 16.8865 10.9607C16.8932 10.9534 16.8992 10.9469 16.9041 10.9417C15.9486 9.98476 15.0018 9.03679 14.0515 8.08529C14.0489 8.08756 14.0457 8.09034 14.042 8.09352C14.0315 8.10253 14.0171 8.11481 14.0037 8.12828C13.7843 8.34789 13.565 8.5675 13.3457 8.78711C11.1502 10.9853 8.95474 13.1834 6.76152 15.3839C6.70663 15.4391 6.66369 15.5188 6.6444 15.5947C6.52845 16.0504 6.41499 16.5068 6.30152 16.9633C6.2235 17.2771 6.14549 17.5909 6.06666 17.9045C6.01607 18.1054 5.96177 18.3054 5.90745 18.5055Z" fill="#2C2C2C"/>
</svg>
