<svg width="50" height="50" viewBox="0 0 50 50" fill="none" xmlns="http://www.w3.org/2000/svg">
<rect width="50" height="50" rx="6" fill="black" fill-opacity="0.5"/>
<path d="M13.9458 24.457L18.3255 28.8363C18.5609 29.072 18.6815 29.3683 18.6871 29.7252C18.6925 30.0818 18.572 30.3834 18.3255 30.6302C18.0787 30.8767 17.7797 31 17.4285 31C17.0773 31 16.7783 30.8767 16.5315 30.6302L11.4353 25.534C11.2762 25.3746 11.1638 25.2065 11.0983 25.0298C11.0328 24.853 11 24.6621 11 24.457C11 24.2519 11.0328 24.061 11.0983 23.8843C11.1638 23.7076 11.2762 23.5395 11.4353 23.3801L16.5315 18.2838C16.7673 18.0484 17.0636 17.9278 17.4204 17.9222C17.777 17.9168 18.0787 18.0373 18.3255 18.2838C18.572 18.5306 18.6952 18.8296 18.6952 19.1808C18.6952 19.532 18.572 19.831 18.3255 20.0778L13.9458 24.457ZM35.9458 24.4571L31.5661 20.0779C31.3306 19.8421 31.2101 19.5458 31.2044 19.189C31.199 18.8324 31.3196 18.5307 31.5661 18.2839C31.8129 18.0374 32.1119 17.9142 32.4631 17.9142C32.8142 17.9142 33.1132 18.0374 33.36 18.2839L38.4563 23.3802C38.6154 23.5396 38.7277 23.7077 38.7933 23.8844C38.8588 24.0611 38.8916 24.252 38.8916 24.4571C38.8916 24.6622 38.8588 24.8531 38.7933 25.0299C38.7277 25.2066 38.6154 25.3747 38.4563 25.5341L33.36 30.6303C33.1243 30.8658 32.828 30.9863 32.4711 30.992C32.1146 30.9974 31.8129 30.8768 31.5661 30.6303C31.3196 30.3835 31.1963 30.0846 31.1963 29.7334C31.1963 29.3822 31.3196 29.0832 31.5661 28.8364L35.9458 24.4571Z" fill="white"/>
</svg>
