<svg width="25" height="25" viewBox="0 0 25 25" fill="none" xmlns="http://www.w3.org/2000/svg">
<rect x="0.5" y="0.5" width="24" height="24" rx="5.5" fill="#2C2C2C" stroke="#2C2C2C"/>
<path d="M7.25134 19.1668C6.85513 19.1668 6.51977 19.0296 6.24526 18.7551C5.97075 18.4806 5.8335 18.1452 5.8335 17.749V15.4413C5.8335 15.2747 5.8899 15.1349 6.00271 15.0221C6.11552 14.9094 6.25526 14.8531 6.42193 14.8531C6.58872 14.8531 6.7284 14.9094 6.84095 15.0221C6.95363 15.1349 7.00997 15.2747 7.00997 15.4413V17.749C7.00997 17.8094 7.03513 17.8647 7.08546 17.9149C7.13565 17.9652 7.19095 17.9904 7.25134 17.9904H9.55899C9.72565 17.9904 9.86539 18.0468 9.9782 18.1596C10.0909 18.2724 10.1472 18.4121 10.1472 18.5788C10.1472 18.7456 10.0909 18.8853 9.9782 18.9978C9.86539 19.1105 9.72565 19.1668 9.55899 19.1668H7.25134ZM17.749 19.1668H15.4413C15.2747 19.1668 15.1349 19.1104 15.0221 18.9976C14.9094 18.8848 14.8531 18.7451 14.8531 18.5784C14.8531 18.4116 14.9094 18.2719 15.0221 18.1594C15.1349 18.0467 15.2747 17.9904 15.4413 17.9904H17.749C17.8094 17.9904 17.8647 17.9652 17.9149 17.9149C17.9652 17.8647 17.9904 17.8094 17.9904 17.749V15.4413C17.9904 15.2747 18.0468 15.1349 18.1596 15.0221C18.2724 14.9094 18.4121 14.8531 18.5788 14.8531C18.7456 14.8531 18.8853 14.9094 18.9978 15.0221C19.1105 15.1349 19.1668 15.2747 19.1668 15.4413V17.749C19.1668 18.1452 19.0296 18.4806 18.7551 18.7551C18.4806 19.0296 18.1452 19.1668 17.749 19.1668ZM5.8335 9.55899V7.25134C5.8335 6.85513 5.97075 6.51977 6.24526 6.24526C6.51977 5.97075 6.85513 5.8335 7.25134 5.8335H9.55899C9.72565 5.8335 9.86539 5.8899 9.9782 6.00271C10.0909 6.11552 10.1472 6.25526 10.1472 6.42193C10.1472 6.58873 10.0909 6.7284 9.9782 6.84095C9.86539 6.95363 9.72565 7.00997 9.55899 7.00997H7.25134C7.19095 7.00997 7.13565 7.03513 7.08546 7.08546C7.03513 7.13565 7.00997 7.19095 7.00997 7.25134V9.55899C7.00997 9.72565 6.95356 9.86539 6.84075 9.9782C6.72794 10.0909 6.5882 10.1472 6.42154 10.1472C6.25474 10.1472 6.11506 10.0909 6.00252 9.9782C5.88984 9.86539 5.8335 9.72565 5.8335 9.55899ZM17.9904 9.55899V7.25134C17.9904 7.19095 17.9652 7.13565 17.9149 7.08546C17.8647 7.03513 17.8094 7.00997 17.749 7.00997H15.4413C15.2747 7.00997 15.1349 6.95356 15.0221 6.84075C14.9094 6.72794 14.8531 6.5882 14.8531 6.42154C14.8531 6.25474 14.9094 6.11506 15.0221 6.00252C15.1349 5.88984 15.2747 5.8335 15.4413 5.8335H17.749C18.1452 5.8335 18.4806 5.97075 18.7551 6.24526C19.0296 6.51977 19.1668 6.85513 19.1668 7.25134V9.55899C19.1668 9.72565 19.1104 9.86539 18.9976 9.9782C18.8848 10.0909 18.7451 10.1472 18.5784 10.1472C18.4116 10.1472 18.2719 10.0909 18.1594 9.9782C18.0467 9.86539 17.9904 9.72565 17.9904 9.55899ZM12.5002 15.2453C11.7453 15.2453 11.0991 14.9764 10.5615 14.4388C10.0239 13.9013 9.75506 13.2551 9.75506 12.5002C9.75506 11.7453 10.0239 11.0991 10.5615 10.5615C11.0991 10.0239 11.7453 9.75506 12.5002 9.75506C13.2551 9.75506 13.9013 10.0239 14.4388 10.5615C14.9764 11.0991 15.2453 11.7453 15.2453 12.5002C15.2453 13.2551 14.9764 13.9013 14.4388 14.4388C13.9013 14.9764 13.2551 15.2453 12.5002 15.2453Z" fill="white"/>
</svg>
