<svg width="50" height="50" viewBox="0 0 50 50" fill="none" xmlns="http://www.w3.org/2000/svg">
<rect width="50" height="50" rx="6" fill="black" fill-opacity="0.5"/>
<path d="M34.043 24.5L38.4227 28.8793C38.6581 29.115 38.7787 29.4113 38.7844 29.7682C38.7897 30.1247 38.6692 30.4264 38.4227 30.6732C38.1759 30.9197 37.8769 31.043 37.5257 31.043C37.1745 31.043 36.8756 30.9197 36.6288 30.6732L31.5325 25.5769C31.3734 25.4175 31.261 25.2495 31.1955 25.0727C31.13 24.896 31.0972 24.7051 31.0972 24.5C31.0972 24.2949 31.13 24.104 31.1955 23.9273C31.261 23.7505 31.3734 23.5825 31.5325 23.4231L36.6288 18.3268C36.8645 18.0914 37.1608 17.9708 37.5176 17.9651C37.8742 17.9597 38.1759 18.0803 38.4227 18.3268C38.6692 18.5736 38.7924 18.8726 38.7924 19.2238C38.7924 19.5749 38.6692 19.8739 38.4227 20.1207L34.043 24.5ZM16 24.5431L11.6202 20.1638C11.3848 19.9281 11.2642 19.6318 11.2586 19.2749C11.2532 18.9184 11.3737 18.6167 11.6202 18.3699C11.867 18.1234 12.166 18.0001 12.5172 18.0001C12.8684 18.0001 13.1674 18.1234 13.4142 18.3699L18.5104 23.4661C18.6696 23.6256 18.7819 23.7936 18.8474 23.9704C18.9129 24.1471 18.9457 24.338 18.9457 24.5431C18.9457 24.7482 18.9129 24.9391 18.8474 25.1158C18.7819 25.2925 18.6696 25.4606 18.5104 25.62L13.4142 30.7163C13.1784 30.9517 12.8822 31.0723 12.5253 31.078C12.1687 31.0833 11.867 30.9628 11.6203 30.7163C11.3737 30.4695 11.2505 30.1705 11.2505 29.8193C11.2505 29.4681 11.3737 29.1691 11.6203 28.9224L16 24.5431Z" fill="white"/>
</svg>
