<svg width="25" height="25" viewBox="0 0 25 25" fill="none" xmlns="http://www.w3.org/2000/svg">
<rect x="0.5" y="0.5" width="24" height="24" rx="5.5" stroke="#2C2C2C"/>
<path d="M9.81977 19.1668C8.25521 19.1668 6.92186 18.6295 5.81973 17.5547C4.71759 16.4801 4.16652 15.1632 4.16652 13.6041C4.16652 12.1163 4.69263 10.8507 5.74484 9.8073C6.79706 8.76393 8.07635 8.18134 9.58271 8.05953L8.46695 6.91724C8.34286 6.78445 8.28081 6.63418 8.28081 6.46645C8.28081 6.29857 8.34222 6.15322 8.46502 6.03041C8.59896 5.89648 8.75564 5.83087 8.93508 5.83358C9.11451 5.83629 9.26342 5.89691 9.38181 6.01544L11.5083 8.14169C11.6629 8.29645 11.7402 8.47695 11.7402 8.6832C11.7402 8.88945 11.6629 9.06995 11.5083 9.22471L9.39507 11.3379C9.39507 11.3379 9.1098 11.5369 8.93764 11.5369C8.76534 11.5369 8.61222 11.4706 8.47829 11.3379C8.35548 11.2051 8.29543 11.0512 8.29814 10.8762C8.30085 10.7012 8.36147 10.5544 8.48 10.4359L9.54655 9.36956C8.40761 9.50335 7.44012 9.96384 6.64408 10.751C5.84818 11.5384 5.45023 12.4894 5.45023 13.6041C5.45023 14.7989 5.87835 15.8108 6.73458 16.6396C7.59096 17.4686 8.62207 17.8831 9.8279 17.8831H11.342C11.5239 17.8831 11.6763 17.9447 11.7992 18.0678C11.9223 18.1909 11.9839 18.3433 11.9839 18.5252C11.9839 18.7072 11.9223 18.8596 11.7992 18.9824C11.6763 19.1054 11.5239 19.1668 11.342 19.1668H9.81977ZM14.5872 11.6621C14.3641 11.6621 14.1788 11.588 14.0313 11.4398C13.8837 11.2916 13.8099 11.1079 13.8099 10.8886V6.95857C13.8099 6.73578 13.884 6.55064 14.0322 6.40315C14.1805 6.25553 14.3642 6.18171 14.5833 6.18171H20.093C20.3161 6.18171 20.5014 6.25588 20.6489 6.40422C20.7965 6.55242 20.8703 6.73613 20.8703 6.95536V10.8854C20.8703 11.1081 20.7961 11.2932 20.6478 11.4409C20.4996 11.5883 20.3159 11.6621 20.0966 11.6621H14.5872ZM14.5872 19.0188C14.3641 19.0188 14.1788 18.9446 14.0313 18.7963C13.8837 18.6481 13.8099 18.4644 13.8099 18.2452V14.3151C13.8099 14.0924 13.884 13.9073 14.0322 13.7597C14.1805 13.6122 14.3642 13.5384 14.5833 13.5384H20.093C20.3161 13.5384 20.5014 13.6125 20.6489 13.7607C20.7965 13.9089 20.8703 14.0926 20.8703 14.3119V18.242C20.8703 18.4648 20.7961 18.6499 20.6478 18.7974C20.4996 18.945 20.3159 19.0188 20.0966 19.0188H14.5872ZM15.0936 17.7351H19.5866V14.8219H15.0936V17.7351Z" fill="#2C2C2C"/>
</svg>
