<svg width="25" height="25" viewBox="0 0 25 25" fill="none" xmlns="http://www.w3.org/2000/svg">
<rect x="0.5" y="0.5" width="24" height="24" rx="5.5" stroke="#CDCDCD"/>
<path d="M9.58371 8.07199L9.61025 8.06984L9.59165 8.05079L8.47608 6.90871C8.47605 6.90867 8.47602 6.90864 8.47599 6.9086C8.35392 6.77794 8.29331 6.63069 8.29331 6.46645C8.29331 6.30201 8.35331 6.15981 8.47386 6.03925C8.60555 5.90756 8.75904 5.84342 8.93489 5.84608C9.11132 5.84874 9.25705 5.90822 9.37296 6.02427L9.37297 6.02427L11.4994 8.15052C11.6519 8.30309 11.7277 8.48048 11.7277 8.6832C11.7277 8.88592 11.6519 9.0633 11.4994 9.21588L9.38703 11.3283L9.38477 11.3298L9.37553 11.3361C9.36747 11.3415 9.35574 11.3492 9.34112 11.3584C9.31186 11.377 9.27109 11.4017 9.22501 11.4264C9.1789 11.4511 9.12767 11.4757 9.07745 11.4941C9.02707 11.5125 8.97855 11.5244 8.93764 11.5244C8.76905 11.5244 8.61907 11.4597 8.48728 11.3292C8.3667 11.1988 8.30798 11.048 8.31064 10.8764C8.3133 10.7045 8.37272 10.5609 8.48884 10.4447L9.55539 9.3784L9.58085 9.35294L9.54509 9.35714C8.40346 9.49125 7.43337 9.95294 6.63529 10.7422C5.83703 11.5318 5.43773 12.486 5.43773 13.6041C5.43773 14.8023 5.86721 15.8174 6.72589 16.6486C7.58463 17.4799 8.61886 17.8956 9.8279 17.8956H11.342C11.5207 17.8956 11.6699 17.956 11.7904 18.0766C11.911 18.1972 11.9714 18.3465 11.9714 18.5252C11.9714 18.704 11.911 18.8532 11.7904 18.9736L11.7904 18.9736C11.6699 19.0941 11.5207 19.1543 11.342 19.1543H9.81977C8.25841 19.1543 6.92821 18.6182 5.82845 17.5458C4.72876 16.4735 4.17902 15.1599 4.17902 13.6041C4.17902 12.1196 4.70381 10.8572 5.75364 9.81618C6.80372 8.77493 8.08023 8.19357 9.58371 8.07199ZM20.64 6.41304L20.6489 6.40422L20.64 6.41305C20.7852 6.55878 20.8578 6.73926 20.8578 6.95536V10.8854C20.8578 11.105 20.7848 11.2869 20.639 11.432C20.4932 11.577 20.3127 11.6496 20.0966 11.6496H14.5872C14.3672 11.6496 14.1852 11.5766 14.0402 11.431C13.895 11.2852 13.8224 11.1047 13.8224 10.8886V6.95857C13.8224 6.73886 13.8953 6.55699 14.041 6.41201C14.1869 6.26684 14.3674 6.19421 14.5833 6.19421H20.093C20.313 6.19421 20.495 6.26723 20.64 6.41304ZM14.0402 18.7875L14.0402 18.7875C13.895 18.6418 13.8224 18.4613 13.8224 18.2452V14.3151C13.8224 14.0955 13.8953 13.9136 14.041 13.7685C14.1869 13.6235 14.3674 13.5509 14.5833 13.5509H20.093C20.313 13.5509 20.495 13.6239 20.64 13.7696C20.7852 13.9153 20.8578 14.0958 20.8578 14.3119V18.242C20.8578 18.4617 20.7848 18.6435 20.639 18.7885L20.6478 18.7974L20.639 18.7885C20.4932 18.9337 20.3127 19.0063 20.0966 19.0063H14.5872C14.3672 19.0063 14.1852 18.9333 14.0402 18.7875ZM15.0811 17.7351V17.7476H15.0936H19.5866H19.5991V17.7351V14.8219V14.8094H19.5866H15.0936H15.0811V14.8219V17.7351Z" fill="#CDCDCD" stroke="#CDCDCD" stroke-width="0.025"/>
</svg>
