<svg width="25" height="25" viewBox="0 0 25 25" fill="none" xmlns="http://www.w3.org/2000/svg">
<rect x="0.5" y="0.5" width="24" height="24" rx="5.5" fill="#2C2C2C" stroke="#2C2C2C"/>
<path d="M5.09976 11.8127C5.09976 12.9274 5.49771 13.8784 6.29361 14.6658C7.08965 15.453 8.05714 15.9135 9.19607 16.0473L8.12953 14.9809C8.011 14.8624 7.95038 14.7156 7.94767 14.5406C7.94496 14.3656 8.00501 14.2117 8.12781 14.0789C8.26175 13.9463 8.41487 13.8799 8.58717 13.8799C8.75933 13.8799 8.9118 13.9463 9.0446 14.0789L11.1578 16.1921C11.3124 16.3469 11.3897 16.5274 11.3897 16.7336C11.3897 16.9399 11.3124 17.1204 11.1578 17.2751L9.03133 19.4014C8.91295 19.5199 8.76404 19.5805 8.5846 19.5833C8.40517 19.586 8.24848 19.5204 8.11455 19.3864C7.99174 19.2636 7.93034 19.1183 7.93034 18.9504C7.93034 18.7826 7.99238 18.6324 8.11647 18.4996L9.23223 17.3573C7.72587 17.2355 6.44658 16.6529 5.39437 15.6095C4.34215 14.5662 3.81605 13.3006 3.81605 11.8127C3.81605 10.2536 4.36711 8.93673 5.46925 7.86213C6.57139 6.78737 7.90473 6.25 9.46929 6.25H10.9916C11.1734 6.25 11.3258 6.31155 11.4488 6.43464C11.5719 6.55773 11.6334 6.71021 11.6334 6.89207C11.6334 7.07407 11.5719 7.22648 11.4488 7.34928C11.3258 7.47223 11.1734 7.53371 10.9916 7.53371H9.47742C8.27159 7.53371 7.24049 7.94821 6.38411 8.7772C5.52787 9.60605 5.09976 10.6179 5.09976 11.8127ZM14.5502 19.0871C14.3271 19.0871 14.1419 19.0129 13.9944 18.8646C13.8467 18.7164 13.7729 18.5327 13.7729 18.3134V14.3834C13.7729 14.1607 13.847 13.9756 13.9952 13.828C14.1436 13.6805 14.3273 13.6067 14.5464 13.6067H20.056C20.2791 13.6067 20.4644 13.6808 20.6119 13.829C20.7595 13.9772 20.8333 14.1609 20.8333 14.3802V18.3102C20.8333 18.533 20.7592 18.7182 20.6108 18.8657C20.4626 19.0133 20.2789 19.0871 20.0597 19.0871H14.5502ZM14.5502 11.7304C14.3271 11.7304 14.1419 11.6563 13.9944 11.5081C13.8467 11.3599 13.7729 11.1762 13.7729 10.9569V7.02686C13.7729 6.80406 13.847 6.61892 13.9952 6.47144C14.1436 6.32381 14.3273 6.25 14.5464 6.25H20.056C20.2791 6.25 20.4644 6.32417 20.6119 6.47251C20.7595 6.62071 20.8333 6.80442 20.8333 7.02365V10.9537C20.8333 11.1764 20.7592 11.3615 20.6108 11.5091C20.4626 11.6566 20.2789 11.7304 20.0597 11.7304H14.5502ZM15.0566 10.4469H19.5496V7.53371H15.0566V10.4469Z" fill="white"/>
</svg>
