<svg width="25" height="25" viewBox="0 0 25 25" fill="none" xmlns="http://www.w3.org/2000/svg">
<rect x="0.5" y="0.5" width="24" height="24" rx="5.5" stroke="#CDCDCD"/>
<path d="M20.6108 18.8657L20.602 18.8568C20.4563 19.002 20.2758 19.0746 20.0597 19.0746H14.5502C14.3302 19.0746 14.1482 19.0016 14.0032 18.8558L14.0032 18.8558C13.8581 18.71 13.7854 18.5295 13.7854 18.3134V14.3834C13.7854 14.1638 13.8584 13.9819 14.004 13.8368M20.6108 18.8657C20.4626 19.0133 20.2789 19.0871 20.0597 19.0871H14.5502C14.3271 19.0871 14.1419 19.0129 13.9944 18.8646C13.8467 18.7164 13.7729 18.5327 13.7729 18.3134V14.3834C13.7729 14.1607 13.847 13.9756 13.9952 13.828M20.6108 18.8657C20.7592 18.7182 20.8333 18.533 20.8333 18.3102V14.3802C20.8333 14.1609 20.7595 13.9772 20.6119 13.829C20.4644 13.6808 20.2791 13.6067 20.056 13.6067H14.5464C14.3273 13.6067 14.1436 13.6805 13.9952 13.828M20.6108 18.8657L20.602 18.8568C20.7478 18.7118 20.8208 18.5299 20.8208 18.3102V14.3802C20.8208 14.1641 20.7482 13.9836 20.603 13.8378C20.4581 13.6922 20.276 13.6192 20.056 13.6192H14.5464C14.3304 13.6192 14.1499 13.6918 14.004 13.8368M13.9952 13.828L14.004 13.8368M13.9952 13.828L14.004 13.8368C14.004 13.8368 14.004 13.8368 14.004 13.8368M9.19462 16.0597L9.23037 16.0639L9.20491 16.0384L8.13836 14.9721C8.02224 14.856 7.96283 14.7124 7.96017 14.5404C7.95751 14.3688 8.01623 14.2181 8.13681 14.0876C8.2686 13.9572 8.41857 13.8924 8.58717 13.8924C8.7557 13.8924 8.90508 13.9572 9.03576 14.0878L11.149 16.201C11.3014 16.3535 11.3772 16.5309 11.3772 16.7336C11.3772 16.9363 11.3014 17.1137 11.149 17.2663L9.02249 19.3926L9.02249 19.3926C8.90657 19.5086 8.76085 19.5681 8.58441 19.5708C8.40856 19.5734 8.25508 19.5093 8.12339 19.3776C8.00283 19.257 7.94284 19.1148 7.94284 18.9504C7.94284 18.7861 8.00345 18.6389 8.1255 18.5082C8.12554 18.5082 8.12557 18.5082 8.12561 18.5081L9.24117 17.366L9.25978 17.347L9.23324 17.3448C7.72975 17.2233 6.45324 16.6419 5.40317 15.6007C4.35333 14.5596 3.82855 13.2972 3.82855 11.8127C3.82855 10.2569 4.37829 8.9433 5.47798 7.87108C6.57774 6.79864 7.90794 6.2625 9.46929 6.2625H10.9916C11.1703 6.2625 11.3194 6.32284 11.4399 6.44347L11.4399 6.44348C11.5606 6.56411 11.6209 6.71336 11.6209 6.89207C11.6209 7.07092 11.5606 7.22009 11.4399 7.34043L11.4399 7.34044C11.3194 7.46093 11.1703 7.52121 10.9916 7.52121H9.47742C8.26839 7.52121 7.23415 7.93694 6.37541 8.76822C5.51674 9.59943 5.08726 10.6145 5.08726 11.8127C5.08726 12.9308 5.48655 13.885 6.28482 14.6747C7.08289 15.4639 8.05298 15.9256 9.19462 16.0597ZM20.603 6.48132L20.603 6.48133C20.7482 6.62706 20.8208 6.80755 20.8208 7.02365V10.9537C20.8208 11.1733 20.7478 11.3552 20.602 11.5003C20.4563 11.6453 20.2758 11.7179 20.0597 11.7179H14.5502C14.3302 11.7179 14.1482 11.6449 14.0032 11.4993C13.8581 11.3535 13.7854 11.173 13.7854 10.9569V7.02686C13.7854 6.80715 13.8584 6.62527 14.004 6.4803C14.1499 6.33512 14.3304 6.2625 14.5464 6.2625H20.056C20.276 6.2625 20.4581 6.33551 20.603 6.48132ZM15.0441 10.4469V10.4594H15.0566H19.5496H19.5621V10.4469V7.53371V7.52121H19.5496H15.0566H15.0441V7.53371V10.4469Z" fill="#CDCDCD" stroke="#CDCDCD" stroke-width="0.025"/>
</svg>
