<svg width="25" height="50" viewBox="0 0 25 50" fill="none" xmlns="http://www.w3.org/2000/svg">
<path fill-rule="evenodd" clip-rule="evenodd" d="M12.99 0.435C12.91 -0.145 12.07 -0.145 12 0.435L10.75 25.095C4.67 25.945 0 31.165 0 37.485C0 44.395 5.6 49.995 12.5 49.995C19.4 49.995 25 44.395 25 37.485C25 31.165 20.32 25.945 14.25 25.095L12.99 0.435Z" fill="#1A7AEB"/>
<path fill-rule="evenodd" clip-rule="evenodd" d="M15.2156 31.5916C16.2849 32.6608 17.3465 33.7225 18.4244 34.8V34.7997C18.5387 34.6852 18.6535 34.5707 18.7683 34.4561C19.0157 34.2091 19.2636 33.9616 19.5095 33.7122C20.1878 33.024 20.1888 32.0448 19.5113 31.3542C19.2276 31.0647 18.9402 30.7785 18.6512 30.4938C17.9793 29.8323 16.9548 29.836 16.2841 30.5014C16.0251 30.7585 15.7676 31.0167 15.51 31.275C15.4363 31.3489 15.3627 31.4227 15.289 31.4966C15.2675 31.5181 15.2476 31.5412 15.2294 31.5623C15.2225 31.5704 15.2158 31.5781 15.2094 31.5854L15.2156 31.5916ZM5.0833 44.2562C5.05541 44.3588 5.02751 44.4614 5 44.5641V44.7695C5.14203 44.9988 5.23356 45.0368 5.49742 44.9713C5.71851 44.9161 5.93962 44.861 6.16073 44.806C7.10446 44.571 8.04821 44.3359 8.99036 44.0949C9.10147 44.0664 9.21687 43.9988 9.2983 43.9173C11.7056 41.5164 14.1099 39.1122 16.5141 36.7082C16.8023 36.42 17.0906 36.1318 17.3788 35.8436C17.4054 35.8172 17.4308 35.7895 17.4502 35.7683C17.4578 35.76 17.4645 35.7527 17.47 35.7468C16.3938 34.6703 15.3273 33.6038 14.2569 32.5334C14.254 32.5359 14.2503 32.5391 14.2461 32.5426C14.2343 32.5528 14.2181 32.5666 14.203 32.5817C13.9556 32.8291 13.7083 33.0764 13.4609 33.3238C10.9882 35.7964 8.51552 38.2691 6.04534 40.7443C5.98351 40.8064 5.93514 40.8961 5.91341 40.9815C5.78281 41.4941 5.655 42.0076 5.52719 42.5211C5.43931 42.8741 5.35143 43.2272 5.26264 43.58C5.20566 43.806 5.14449 44.0311 5.0833 44.2562Z" fill="white"/>
</svg>
