<svg width="50" height="50" viewBox="0 0 50 50" fill="none" xmlns="http://www.w3.org/2000/svg">
<rect x="1" y="1" width="48" height="48" rx="5" stroke="#2C2C2C" stroke-width="2"/>
<path d="M19.4234 12C18.6377 12 18 12.5952 18 13.3285V35.6715C18 36.4048 18.6377 37 19.4234 37C20.2091 37 20.8467 36.4048 20.8467 35.6715V13.3285C20.8467 12.5952 20.2091 12 19.4234 12Z" fill="#2C2C2C"/>
<path d="M30.4234 12C29.6377 12 29 12.5952 29 13.3285V35.6715C29 36.4048 29.6377 37 30.4234 37C31.2091 37 31.8467 36.4048 31.8467 35.6715V13.3285C31.8467 12.5952 31.2091 12 30.4234 12Z" fill="#2C2C2C"/>
</svg>
