<svg width="334" height="90" viewBox="0 0 334 90" fill="none" xmlns="http://www.w3.org/2000/svg">
<path d="M132.599 49.8362L132.162 51.7765C132.154 51.8661 132.128 51.953 132.085 52.032C132.041 52.111 131.983 52.1804 131.912 52.2358C131.841 52.2912 131.759 52.3316 131.672 52.3543C131.585 52.3771 131.495 52.3819 131.406 52.3682H127.525L127.273 60.8958C127.092 61.352 126.746 61.7229 126.303 61.9338C125.68 62.2835 124.966 62.4357 124.256 62.3704C123.043 62.4383 122.315 62.0309 121.995 61.148C121.617 59.9936 122.053 59.4115 123.315 59.4115H123.693C123.817 59.4209 123.941 59.3866 124.042 59.3145C124.112 59.212 124.143 59.0883 124.13 58.9652V52.3876H118.968C118.551 52.3876 118.386 52.1936 118.474 51.7959L118.881 49.8556C118.892 49.767 118.92 49.6815 118.964 49.6038C119.008 49.5261 119.067 49.4579 119.137 49.4029C119.207 49.348 119.287 49.3074 119.373 49.2835C119.459 49.2596 119.549 49.2529 119.638 49.2638H124.178V46.8384H118.833C118.415 46.8384 118.241 46.6444 118.328 46.2467L118.736 44.3549C118.76 44.1764 118.852 44.0142 118.993 43.9021C119.134 43.79 119.313 43.7367 119.492 43.7534H121.268L120.734 41.9683C120.645 41.7801 120.604 41.5731 120.613 41.3652C120.622 41.1573 120.682 40.9547 120.787 40.7751C120.892 40.5955 121.039 40.4442 121.216 40.3343C121.393 40.2244 121.594 40.1592 121.801 40.1445L122.907 39.8534H119.289C118.862 39.8534 118.697 39.6594 118.784 39.2616L119.191 37.399C119.216 37.2212 119.308 37.0599 119.45 36.9494C119.591 36.8389 119.77 36.7878 119.948 36.8072H124.032L123.315 34.8669C123.169 34.4885 123.315 34.2945 123.722 34.2654L126.05 34.1393C126.236 34.1187 126.423 34.1651 126.578 34.27C126.733 34.3749 126.845 34.5315 126.894 34.7117L127.777 36.7878H132.123C132.541 36.7878 132.706 36.9818 132.618 37.3796L132.211 39.2422C132.189 39.4192 132.098 39.5804 131.959 39.6912C131.819 39.8019 131.641 39.8532 131.464 39.834H128.786L129.504 39.9989C130.746 40.2221 131.124 40.9691 130.639 42.0653L129.95 43.734H132.589C133.016 43.734 133.181 43.9377 133.094 44.3355L132.686 46.2273C132.662 46.405 132.569 46.5663 132.428 46.6768C132.287 46.7873 132.108 46.8384 131.929 46.819H127.525V49.2444H132.085C132.492 49.2444 132.667 49.4772 132.599 49.8362ZM120.181 54.0854C120.385 53.5227 120.666 53.3481 121.025 53.5518L122.538 54.4346C122.897 54.6384 122.975 54.9779 122.791 55.4048C122.32 56.8139 121.56 58.1092 120.559 59.2077C120.327 59.4794 120.074 59.4794 119.803 59.2077L118.571 57.9175C118.509 57.8586 118.46 57.7878 118.426 57.7094C118.393 57.6311 118.376 57.5467 118.376 57.4615C118.376 57.3763 118.393 57.2919 118.426 57.2135C118.46 57.1352 118.509 57.0644 118.571 57.0055C119.348 56.1859 119.903 55.1805 120.181 54.0854V54.0854ZM127.942 39.834H123.315C123.701 40.4587 123.959 41.1549 124.071 41.881C124.136 42.0817 124.155 42.2941 124.128 42.5031C124.1 42.712 124.027 42.9123 123.913 43.0895C123.798 43.2667 123.647 43.4164 123.468 43.5279C123.289 43.6393 123.087 43.7097 122.878 43.734H126.584L127.942 39.834ZM132.715 56.8212C132.768 56.8842 132.802 56.9599 132.816 57.0406C132.83 57.1213 132.822 57.2042 132.793 57.2809C132.765 57.3577 132.717 57.4255 132.654 57.4777C132.59 57.5298 132.515 57.5644 132.434 57.5779L130.775 58.2085C130.698 58.2478 130.613 58.2699 130.526 58.2732C130.439 58.2766 130.353 58.2612 130.273 58.228C130.192 58.1948 130.12 58.1447 130.061 58.081C130.002 58.0174 129.958 57.9417 129.931 57.8592L128.321 54.813C128.139 54.4573 128.246 54.2244 128.641 54.1145L130.212 53.6488C130.384 53.5902 130.572 53.5962 130.74 53.6659C130.908 53.7355 131.044 53.864 131.124 54.0272L132.715 56.8212ZM146.588 44.025C147.015 44.025 147.19 44.2191 147.132 44.6168L146.656 46.8869C146.649 46.9743 146.624 47.0592 146.583 47.1367C146.543 47.2142 146.486 47.2826 146.419 47.3379C146.351 47.3932 146.272 47.4342 146.188 47.4584C146.104 47.4826 146.016 47.4895 145.929 47.4787H144.299V62.3025C144.299 62.7197 144.095 62.8943 143.697 62.8361L141.243 62.3607C141.155 62.3549 141.069 62.331 140.991 62.2906C140.913 62.2502 140.844 62.1941 140.788 62.1258C140.733 62.0575 140.692 61.9786 140.668 61.8938C140.645 61.809 140.639 61.7203 140.651 61.6331V47.4787L137.566 47.7019C137.566 54.6675 136.596 59.5182 134.656 62.254C134.5 62.5256 134.297 62.5159 134.025 62.254L132.327 60.3137C132.195 60.1931 132.109 60.0294 132.086 59.8518C132.063 59.6741 132.104 59.494 132.201 59.3436C132.568 58.7485 132.821 58.0906 132.948 57.4033C133.793 54.2416 134.165 50.9725 134.054 47.7019V38.1072C134.054 37.137 134.665 36.5452 135.878 36.3124C138.382 35.9313 140.825 35.2235 143.144 34.2072C143.286 34.1347 143.451 34.1205 143.603 34.1676C143.755 34.2148 143.883 34.3195 143.959 34.4594L145.57 36.4676C145.822 36.7878 145.773 37.0012 145.444 37.1273C143.216 37.9232 140.92 38.5142 138.585 38.893C137.896 39.0191 137.547 39.3587 137.547 39.8631V43.9862L146.588 44.025Z" fill="#232323"/>
<path d="M143.853 65.727C143.653 65.7458 143.451 65.7458 143.251 65.727L140.748 65.2517C140.052 65.1564 139.401 64.8522 138.882 64.3794C138.362 63.9065 137.998 63.2872 137.838 62.6032C137.606 63.0438 137.35 63.4713 137.071 63.8838C136.826 64.2698 136.501 64.5986 136.118 64.848C135.734 65.0974 135.302 65.2615 134.85 65.3293C134.309 65.3953 133.759 65.3262 133.252 65.1281C132.744 64.93 132.293 64.6092 131.939 64.1942L130.212 62.2539L129.95 61.9435C129.529 63.0253 128.734 63.9203 127.709 64.4658C126.644 65.0482 125.439 65.3236 124.227 65.2614C123.189 65.3538 122.149 65.1055 121.265 64.554C120.381 64.0026 119.701 63.1781 119.327 62.2054C118.701 62.0176 118.137 61.662 117.698 61.1771L116.504 59.9159C115.895 59.2949 115.538 58.4699 115.502 57.6006C115.466 56.7313 115.754 55.8797 116.31 55.2107C116.42 55.0753 116.54 54.9488 116.669 54.8323C116.739 54.7544 116.8 54.67 116.854 54.5801C116.657 54.4254 116.478 54.2498 116.32 54.0562C116.002 53.6614 115.778 53.1993 115.666 52.7051C115.553 52.2109 115.555 51.6976 115.67 51.204L116.077 49.2637C116.124 49.059 116.186 48.858 116.262 48.6622L116.126 48.507C115.795 48.1077 115.561 47.6369 115.444 47.1318C115.326 46.6267 115.327 46.1012 115.447 45.5966L115.854 43.6563C116.006 42.9419 116.363 42.2876 116.883 41.7742C116.449 41.3783 116.131 40.873 115.96 40.3114C115.789 39.7498 115.773 39.1526 115.913 38.5825L116.32 36.6422C116.476 35.812 116.921 35.0639 117.577 34.5311C118.232 33.9982 119.055 33.715 119.9 33.7318H120.395C120.483 33.3674 120.63 33.02 120.831 32.7034C121.129 32.2582 121.53 31.8911 121.999 31.6328C122.468 31.3745 122.993 31.2326 123.528 31.2191L125.847 31.093C126.632 31.0435 127.412 31.2466 128.074 31.6725C128.736 32.0984 129.244 32.7248 129.524 33.4601L129.64 33.7318H132.075C132.544 33.7287 133.009 33.8177 133.443 33.9937C134.03 33.6616 134.67 33.432 135.335 33.3146C137.599 32.9721 139.81 32.3396 141.912 31.4325C142.641 31.0808 143.47 30.994 144.256 31.1869C145.042 31.3799 145.736 31.8407 146.22 32.49L147.82 34.5079C148.206 34.901 148.484 35.3864 148.629 35.9177C148.773 36.449 148.779 37.0085 148.646 37.5427C148.512 38.0769 148.244 38.568 147.867 38.9691C147.49 39.3703 147.016 39.668 146.491 39.834C145.056 40.3711 143.584 40.8055 142.087 41.1339H146.608C147.105 41.1173 147.601 41.2123 148.057 41.4118C148.513 41.6114 148.919 41.9105 149.244 42.2872C149.57 42.664 149.807 43.1088 149.938 43.5891C150.07 44.0694 150.092 44.573 150.003 45.063V45.2085L149.538 47.4302C149.438 48.0532 149.171 48.6374 148.764 49.1195C148.357 49.6017 147.826 49.9635 147.229 50.166V62.3024C147.24 62.8022 147.142 63.2984 146.941 63.756C146.74 64.2137 146.441 64.6216 146.064 64.9509C145.447 65.4717 144.66 65.7479 143.853 65.727V65.727ZM130.29 55.8607V56.404C130.368 56.1323 130.445 55.8607 130.513 55.5599C130.433 55.656 130.359 55.7564 130.29 55.8607V55.8607ZM144.454 36.7877H144.367H144.454Z" fill="white"/>
<path d="M166.137 43.86C166.165 44.0646 166.146 44.2731 166.081 44.4692C166.016 44.6652 165.906 44.8435 165.761 44.9901C165.615 45.1367 165.437 45.2476 165.242 45.3141C165.046 45.3806 164.838 45.4009 164.633 45.3734H157.677V62.4285C157.677 62.8456 157.473 63.0203 157.076 62.9621L154.621 62.4867C154.533 62.4809 154.448 62.457 154.369 62.4166C154.291 62.3762 154.222 62.3201 154.167 62.2518C154.111 62.1835 154.07 62.1045 154.047 62.0198C154.023 61.935 154.017 61.8462 154.029 61.7591V36.3802C154.001 36.1756 154.019 35.9671 154.085 35.771C154.15 35.5749 154.26 35.3966 154.405 35.2501C154.551 35.1035 154.729 34.9926 154.924 34.9261C155.12 34.8596 155.328 34.8393 155.533 34.8668H164.594C164.803 34.8378 165.017 34.8577 165.217 34.925C165.417 34.9923 165.599 35.105 165.749 35.2545C165.898 35.4039 166.011 35.586 166.078 35.7864C166.146 35.9867 166.166 36.1999 166.137 36.4093V43.86ZM162.615 38.1652C162.631 38.0545 162.622 37.9414 162.586 37.8351C162.551 37.7287 162.492 37.6321 162.412 37.5529C162.333 37.4737 162.237 37.4142 162.13 37.379C162.024 37.3438 161.911 37.334 161.8 37.3503H158.492C158.381 37.334 158.268 37.3438 158.162 37.379C158.055 37.4142 157.959 37.4737 157.88 37.5529C157.8 37.6321 157.741 37.7287 157.706 37.8351C157.67 37.9414 157.661 38.0545 157.677 38.1652V38.9511H162.615V38.1652ZM157.677 42.8898H161.8C161.911 42.9044 162.025 42.8931 162.131 42.8567C162.237 42.8202 162.333 42.7597 162.412 42.6799C162.491 42.6 162.551 42.5029 162.586 42.3963C162.621 42.2897 162.631 42.1764 162.615 42.0652V41.3473H157.677V42.8898ZM179.02 34.8668C179.229 34.8378 179.443 34.8577 179.643 34.925C179.843 34.9923 180.025 35.105 180.175 35.2545C180.324 35.4039 180.437 35.586 180.504 35.7864C180.572 35.9867 180.592 36.1999 180.563 36.4093L180.281 60.9733C180.094 61.5023 179.726 61.9486 179.243 62.2345C178.517 62.7086 177.654 62.9302 176.789 62.865C175.508 62.9233 174.79 62.4576 174.616 61.4486C174.524 60.7406 174.3 60.0561 173.956 59.4307L172.986 59.4987V61.1964C172.986 61.6136 172.782 61.7979 172.384 61.73L170.211 61.2643C170.124 61.2571 170.039 61.2324 169.961 61.1915C169.884 61.1507 169.816 61.0946 169.76 61.0266C169.705 60.9587 169.664 60.8802 169.64 60.796C169.616 60.7119 169.609 60.6236 169.619 60.5367V59.78C167.262 59.974 164.022 60.2166 159.918 60.5367C159.365 60.5367 159.113 60.3912 159.161 59.974L159.443 58.3054C159.441 58.2158 159.458 58.127 159.493 58.0443C159.527 57.9617 159.578 57.887 159.643 57.8251C159.708 57.7631 159.784 57.7152 159.868 57.6844C159.953 57.6535 160.042 57.6403 160.131 57.6457L161.422 57.5487V49.2443H160.228C159.811 49.2443 159.656 49.0405 159.753 48.6428L160.102 47.2652C160.135 47.0853 160.234 46.9242 160.379 46.813C160.525 46.7019 160.706 46.6486 160.888 46.6637H174.228C174.645 46.6637 174.8 46.8674 174.703 47.2652L174.354 48.6428C174.321 48.8226 174.222 48.9838 174.077 49.0949C173.932 49.2061 173.75 49.2593 173.568 49.2443H173.005V56.7629L174.257 56.6658C174.46 56.6208 174.671 56.626 174.872 56.6811C175.073 56.7361 175.257 56.8393 175.409 56.9817C175.561 57.1241 175.676 57.3014 175.744 57.4983C175.812 57.6951 175.831 57.9055 175.799 58.1114L175.702 58.4897C175.605 59.033 175.838 59.3046 176.43 59.3046C176.769 59.3046 176.934 59.0912 176.934 58.7128V45.3734H169.775C169.569 45.4025 169.36 45.3835 169.163 45.3177C168.966 45.252 168.787 45.1413 168.64 44.9945C168.493 44.8477 168.383 44.6688 168.317 44.4719C168.251 44.275 168.232 44.0655 168.261 43.86V36.3802C168.232 36.1746 168.251 35.9652 168.317 35.7682C168.383 35.5713 168.493 35.3924 168.64 35.2456C168.787 35.0988 168.966 34.9882 169.163 34.9225C169.36 34.8567 169.569 34.8376 169.775 34.8668H179.02ZM169.59 49.2443H164.633V50.4472H169.571L169.59 49.2443ZM164.652 52.5427V53.8718H169.59V52.5427H164.652ZM164.652 57.3934L169.59 57.0539V55.9867H164.633L164.652 57.3934ZM176.886 38.2041C176.902 38.0933 176.892 37.9802 176.857 37.8739C176.822 37.7675 176.762 37.6709 176.683 37.5917C176.604 37.5125 176.507 37.453 176.401 37.4178C176.295 37.3826 176.182 37.3728 176.071 37.3891H172.588C172.477 37.3728 172.364 37.3826 172.258 37.4178C172.152 37.453 172.055 37.5125 171.976 37.5917C171.897 37.6709 171.837 37.7675 171.802 37.8739C171.767 37.9802 171.757 38.0933 171.773 38.2041V38.9899H176.866L176.886 38.2041ZM171.793 42.0846C171.777 42.1958 171.787 42.3091 171.822 42.4157C171.857 42.5223 171.916 42.6194 171.995 42.6993C172.074 42.7791 172.171 42.8396 172.277 42.8761C172.383 42.9125 172.496 42.9238 172.607 42.9092H176.886V41.3473H171.793V42.0846Z" fill="#232323"/>
<path d="M157.221 65.8532C157.021 65.872 156.82 65.872 156.62 65.8532L154.117 65.3778C153.27 65.2481 152.501 64.8136 151.952 64.1562C151.404 63.4987 151.114 62.6636 151.138 61.8077V36.3803C151.116 35.7986 151.215 35.2187 151.429 34.6771C151.642 34.1355 151.965 33.6441 152.378 33.2338C152.791 32.8236 153.285 32.5034 153.828 32.2936C154.371 32.0837 154.951 31.9888 155.533 32.0147H164.594C165.504 31.9992 166.398 32.2522 167.165 32.7423C167.941 32.2415 168.851 31.9878 169.775 32.0147H179.049C179.639 31.987 180.228 32.0828 180.778 32.2958C181.328 32.5088 181.828 32.8344 182.246 33.2517C182.663 33.6691 182.989 34.169 183.202 34.7194C183.415 35.2698 183.51 35.8587 183.483 36.4482L183.201 61.051C183.195 61.3816 183.136 61.7091 183.027 62.0211C182.619 63.1567 181.835 64.1186 180.805 64.7472C179.615 65.5235 178.208 65.9006 176.789 65.8241C175.489 65.906 174.208 65.4779 173.219 64.6308C172.792 64.7039 172.355 64.7039 171.928 64.6308H171.773L169.658 64.1749C168.816 64.0309 168.054 63.5863 167.514 62.9234L160.49 63.4666C160.32 64.1222 159.954 64.7106 159.443 65.1547C158.812 65.6499 158.022 65.8982 157.221 65.8532Z" fill="white"/>
<path d="M208.765 58.9651H211.724C211.967 58.9661 212.201 58.876 212.381 58.7125C212.56 58.5491 212.672 58.3242 212.694 58.0823C212.918 57.0696 213.025 56.0345 213.014 54.9973C213.014 54.3667 213.247 54.1727 213.577 54.4055L216.089 56.2682C216.261 56.3972 216.391 56.573 216.465 56.7743C216.539 56.9756 216.553 57.1939 216.506 57.4032C216.483 58.7236 216.09 60.011 215.371 61.1189C214.978 61.6227 214.462 62.0174 213.873 62.2653C213.283 62.5132 212.64 62.6062 212.005 62.5353H208.124C206.301 62.5353 205.059 62.186 204.409 61.4972C203.759 60.8084 203.439 59.5569 203.439 57.7234V50.1272L200.043 50.3115C199.908 51.758 199.645 53.1897 199.257 54.5898C198.894 55.8175 198.352 56.9846 197.647 58.0532C196.85 59.2288 195.811 60.221 194.601 60.9636C193.583 61.682 192.456 62.2323 191.263 62.5935C191.072 62.6947 190.863 62.7565 190.648 62.7751C190.432 62.7937 190.215 62.7687 190.01 62.7017C189.804 62.6347 189.615 62.5271 189.452 62.3851C189.289 62.2432 189.156 62.0699 189.061 61.8756L188.751 61.3032C187.848 60.2166 187.984 59.4502 189.158 59.0137L191.389 58.1308C192.37 57.616 193.227 56.8944 193.902 56.0159C194.48 55.2678 194.929 54.4284 195.231 53.5324L195.852 50.4861L191.137 51.0197C190.924 51.0779 190.778 50.913 190.701 50.5152L190.148 47.857C190.103 47.6814 190.119 47.4957 190.193 47.3303C190.267 47.1648 190.395 47.0291 190.555 46.9451C190.555 47.0906 190.914 46.7705 191.758 45.975C193.075 44.7778 194.265 43.4481 195.309 42.0071H188.692C188.275 42.0071 188.091 41.8131 188.159 41.4056L188.634 38.9899C188.64 38.9027 188.664 38.8176 188.704 38.7397C188.743 38.6618 188.798 38.5926 188.865 38.5365C188.932 38.4803 189.01 38.4383 189.094 38.4128C189.177 38.3874 189.265 38.3791 189.352 38.3885H200.819L199.044 34.925C198.85 34.5758 198.966 34.3818 199.393 34.3624L202.304 34.0519C202.496 34.0278 202.692 34.0621 202.865 34.1503C203.038 34.2385 203.18 34.3766 203.274 34.5467L204.098 35.934C204.7 37.0303 204.409 37.7482 203.215 38.1071L202.304 38.3885H214.915C215.333 38.3885 215.517 38.5922 215.449 38.9899L214.983 41.4056C214.977 41.4937 214.954 41.5798 214.913 41.6584C214.873 41.737 214.817 41.8066 214.749 41.8629C214.681 41.9192 214.602 41.961 214.517 41.9858C214.432 42.0106 214.343 42.0178 214.256 42.0071H200.334L196.454 46.2854C196.095 46.6832 196.192 46.8869 196.735 46.8869L207.407 46.5085L205.146 44.3063C204.855 44.0056 204.904 43.8018 205.301 43.6757L207.911 42.822C208.131 42.7674 208.362 42.7737 208.579 42.8404C208.797 42.907 208.991 43.0315 209.143 43.2004C211.449 45.0535 213.489 47.2145 215.206 49.6227C215.4 49.8555 215.303 50.0398 214.925 50.1854L212.257 51.3495C212.09 51.4326 211.897 51.4498 211.717 51.3977C211.538 51.3456 211.384 51.228 211.287 51.0682L210.375 49.807L207.465 49.9331V57.607C207.422 57.9992 207.5 58.3952 207.688 58.742C208.009 58.9412 208.391 59.0203 208.765 58.9651V58.9651Z" fill="#232323"/>
<path d="M190.458 65.6785C189.657 65.6762 188.871 65.4544 188.187 65.037C187.503 64.6197 186.946 64.0229 186.578 63.3114L186.384 62.9621C185.933 62.4481 185.61 61.8348 185.441 61.1722C185.273 60.5096 185.263 59.8165 185.413 59.1495C185.608 58.495 185.96 57.8981 186.439 57.4111C186.917 56.924 187.508 56.5616 188.159 56.3555L190.157 55.5697C190.716 55.2587 191.205 54.836 191.593 54.3279C191.71 54.1727 191.816 54.0077 191.913 53.8525H191.584C190.855 53.9784 190.105 53.8408 189.469 53.4645C189.051 53.2025 188.694 52.8554 188.419 52.4459C188.145 52.0363 187.961 51.5734 187.878 51.0876L187.315 48.3809C187.167 47.7368 187.198 47.0645 187.405 46.4368C187.612 45.8092 187.987 45.2502 188.489 44.8205C188.014 44.8089 187.547 44.6955 187.12 44.4879C186.693 44.2804 186.315 43.9836 186.013 43.6175C185.71 43.2515 185.49 42.8248 185.366 42.3662C185.243 41.9076 185.219 41.4278 185.297 40.9593V40.8623L185.763 38.4758C185.892 37.6321 186.326 36.8648 186.981 36.3181C187.637 35.7714 188.47 35.483 189.323 35.5071H196.114C196.002 35.1067 195.969 34.688 196.019 34.2751C196.069 33.8622 196.2 33.4632 196.405 33.1012C196.679 32.6302 197.066 32.2357 197.533 31.9542C197.999 31.6727 198.529 31.5133 199.073 31.4908L201.935 31.1803H202.1C202.818 31.1404 203.533 31.3006 204.165 31.6432C204.797 31.9858 205.321 32.4973 205.68 33.1206L206.495 34.5079C206.68 34.8393 206.836 35.1867 206.96 35.546H214.828C215.321 35.5287 215.812 35.6215 216.264 35.8178C216.717 36.0141 217.12 36.3088 217.444 36.6805C217.769 37.0522 218.006 37.4916 218.139 37.9666C218.272 38.4417 218.298 38.9404 218.214 39.4265C218.218 39.4619 218.218 39.4978 218.214 39.5332L217.758 41.9198C217.651 42.633 217.326 43.2957 216.828 43.8168C216.329 44.3379 215.681 44.6919 214.974 44.8302C215.898 45.8047 216.742 46.8526 217.496 47.9638C217.776 48.3435 217.967 48.781 218.056 49.2443C218.145 49.7076 218.13 50.1849 218.01 50.6414C217.881 51.1106 217.648 51.5451 217.33 51.9127C217.011 52.2804 216.613 52.5719 216.167 52.766L217.758 53.9689C218.334 54.3839 218.785 54.9488 219.062 55.6022C219.339 56.2556 219.432 56.9725 219.33 57.6749C219.27 59.4716 218.716 61.2171 217.729 62.7196C216.933 63.9129 215.265 65.3875 211.986 65.3875H208.105C205.418 65.3875 203.516 64.7472 202.284 63.4472C201.179 62.1472 200.57 60.4971 200.567 58.7905C200.402 59.0816 200.237 59.3629 200.053 59.6443C199.043 61.1746 197.72 62.4739 196.172 63.4569C194.927 64.3189 193.552 64.9741 192.098 65.3972C191.57 65.5787 191.016 65.6737 190.458 65.6785V65.6785Z" fill="white"/>
<path d="M226.761 41.2212C226.65 41.2053 226.536 41.2153 226.43 41.2505C226.323 41.2856 226.226 41.345 226.146 41.4239C226.066 41.5029 226.006 41.5992 225.969 41.7054C225.933 41.8116 225.922 41.9248 225.936 42.0361V44.4906C225.936 44.9077 225.742 45.0921 225.344 45.0242L223.239 44.5585C223.151 44.5526 223.065 44.5287 222.986 44.4884C222.908 44.4481 222.838 44.3922 222.782 44.3241C222.726 44.256 222.684 44.1772 222.659 44.0924C222.634 44.0076 222.627 43.9186 222.638 43.8309V40.2414C222.61 40.0366 222.631 39.8282 222.697 39.6326C222.764 39.4369 222.874 39.2593 223.021 39.1137C223.168 38.968 223.346 38.8583 223.542 38.7931C223.738 38.7278 223.947 38.7089 224.151 38.7376H234.493V37.5444H225.403C224.985 37.5444 224.821 37.3406 224.898 36.9429L225.315 35.3713C225.337 35.1936 225.428 35.0314 225.567 34.9191C225.706 34.8069 225.884 34.7533 226.062 34.7698H247.328C247.755 34.7698 247.92 34.9735 247.832 35.3713L247.386 36.9429C247.362 37.1214 247.27 37.2836 247.129 37.3957C246.988 37.5077 246.809 37.561 246.629 37.5444H238.111V38.7376H248.744C248.952 38.7021 249.165 38.716 249.366 38.7782C249.567 38.8404 249.751 38.9491 249.902 39.0956C250.053 39.2421 250.168 39.4222 250.236 39.6213C250.305 39.8204 250.325 40.0328 250.296 40.2414V44.4906C250.296 44.9077 250.093 45.0921 249.695 45.0242L247.386 44.5585C247.298 44.5512 247.213 44.5265 247.135 44.4858C247.057 44.4451 246.988 44.3892 246.932 44.3214C246.876 44.2536 246.834 44.1753 246.809 44.091C246.783 44.0068 246.775 43.9184 246.785 43.8309V42.0361C246.801 41.9253 246.791 41.8123 246.756 41.7059C246.721 41.5996 246.661 41.503 246.582 41.4238C246.503 41.3446 246.406 41.2851 246.3 41.2499C246.193 41.2147 246.08 41.2049 245.97 41.2212H238.141V47.1391C238.141 47.5562 237.937 47.7309 237.539 47.6726L235.085 47.1973C234.997 47.1913 234.91 47.1675 234.832 47.1272C234.753 47.0869 234.684 47.031 234.627 46.9629C234.571 46.8948 234.529 46.8159 234.504 46.7311C234.48 46.6463 234.472 46.5574 234.483 46.4697V41.2212H226.761ZM238.306 59.877L246.067 60.1002C246.351 60.1397 246.641 60.1081 246.91 60.0082C247.179 59.9084 247.419 59.7433 247.609 59.5278C247.898 59.0194 248.049 58.444 248.046 57.8591C248.114 57.2576 248.308 57.0636 248.647 57.2965L250.587 58.6838C250.755 58.8053 250.879 58.9773 250.942 59.1745C251.005 59.3718 251.003 59.5839 250.937 59.78C250.916 60.1938 250.813 60.5993 250.633 60.9725C250.453 61.3457 250.2 61.6792 249.889 61.9531C249.249 62.6225 248.065 62.9233 246.367 62.9233H239.761C237.607 62.9233 236.152 62.6225 235.395 62.0404C234.638 61.4584 234.26 60.3621 234.26 58.7032L229.041 58.6061V59.3629C229.041 59.78 228.837 59.9643 228.439 59.8964L226.082 59.4308C225.994 59.4235 225.909 59.3988 225.831 59.3581C225.753 59.3173 225.684 59.2614 225.628 59.1936C225.572 59.1258 225.53 59.0475 225.504 58.9633C225.479 58.8791 225.471 58.7906 225.48 58.7032V50.1271C225.448 49.9193 225.466 49.7069 225.532 49.5072C225.598 49.3076 225.71 49.1265 225.86 48.9788C226.01 48.8311 226.192 48.721 226.393 48.6575C226.593 48.594 226.806 48.579 227.013 48.6137H245.785C245.991 48.5846 246.2 48.6036 246.397 48.6694C246.594 48.7351 246.773 48.8458 246.92 48.9926C247.067 49.1394 247.177 49.3183 247.243 49.5152C247.309 49.7121 247.328 49.9216 247.299 50.1271V57.1412C247.328 57.3464 247.309 57.5557 247.244 57.7523C247.178 57.9489 247.067 58.1274 246.92 58.2735C246.773 58.4196 246.594 58.5293 246.397 58.5938C246.2 58.6583 245.99 58.6758 245.785 58.6449H237.898C237.898 59.2949 238.034 59.7121 238.306 59.877V59.877ZM227.197 47.4495C226.78 47.4495 226.635 47.2458 226.761 46.848L227.042 46.004C227.085 45.8237 227.191 45.6645 227.34 45.5545C227.489 45.4444 227.672 45.3906 227.857 45.4025H232.708C233.125 45.4025 233.27 45.6062 233.144 46.004L232.863 46.848C232.82 47.0283 232.715 47.1875 232.565 47.2976C232.416 47.4076 232.233 47.4615 232.048 47.4495H227.197ZM232.737 42.2884C233.154 42.2884 233.3 42.4921 233.173 42.8899L232.892 43.7048C232.849 43.885 232.744 44.0443 232.595 44.1543C232.445 44.2644 232.262 44.3182 232.077 44.3063H227.799C227.372 44.3063 227.227 44.1025 227.353 43.7048L227.634 42.8899C227.677 42.7078 227.784 42.5473 227.935 42.437C228.086 42.3267 228.272 42.274 228.459 42.2884H232.737ZM234.309 51.1264H229.923C229.812 51.1117 229.699 51.1231 229.593 51.1595C229.487 51.196 229.39 51.2565 229.311 51.3363C229.232 51.4162 229.173 51.5132 229.138 51.6199C229.103 51.7265 229.093 51.8398 229.109 51.951V52.5137H234.328L234.309 51.1264ZM229.089 56.1323H234.309V54.7838H229.089V56.1323ZM243.641 52.5137V51.951C243.656 51.8393 243.644 51.7258 243.608 51.6193C243.571 51.5128 243.511 51.416 243.431 51.3364C243.352 51.2568 243.255 51.1965 243.148 51.1601C243.042 51.1236 242.928 51.1121 242.817 51.1264H237.966V52.5137H243.641ZM237.947 56.1323H242.797C242.908 56.1482 243.022 56.1382 243.128 56.103C243.235 56.0679 243.332 56.0085 243.412 55.9296C243.492 55.8506 243.552 55.7543 243.589 55.6481C243.625 55.5419 243.636 55.4287 243.622 55.3174V54.7838H237.927L237.947 56.1323ZM239.576 43.7048L239.858 42.8899C239.901 42.7078 240.008 42.5473 240.159 42.437C240.31 42.3267 240.496 42.274 240.682 42.2884H244.922C245.329 42.2884 245.465 42.4921 245.339 42.8899L245.048 43.7048C245.005 43.885 244.899 44.0443 244.75 44.1543C244.601 44.2644 244.418 44.3182 244.233 44.3063H240.023C239.547 44.3063 239.402 44.1025 239.528 43.7048H239.576ZM240.023 47.4495C239.596 47.4495 239.45 47.2458 239.576 46.848L239.858 46.004C239.901 45.822 240.008 45.6614 240.159 45.5512C240.31 45.4409 240.496 45.3882 240.682 45.4025H245.62C246.038 45.4025 246.183 45.6062 246.057 46.004L245.776 46.848C245.733 47.0283 245.627 47.1875 245.478 47.2976C245.329 47.4076 245.146 47.4615 244.961 47.4495H240.023Z" fill="#232323"/>
<path d="M246.416 65.8433H239.809C236.899 65.8433 234.958 65.368 233.668 64.359C232.766 63.6579 232.113 62.6852 231.806 61.5844H231.262C231.125 61.7568 230.973 61.9159 230.806 62.0598C230.428 62.3788 229.984 62.6104 229.506 62.7378C229.028 62.8653 228.528 62.8855 228.041 62.7971H227.925L225.606 62.3314C224.764 62.1996 223.999 61.7652 223.455 61.1098C222.91 60.4544 222.623 59.6229 222.647 58.771V50.127C222.629 49.2124 222.886 48.3132 223.385 47.5465L222.667 47.3815C221.835 47.2413 221.081 46.8044 220.546 46.1516C220.011 45.4989 219.731 44.6744 219.756 43.8308V40.2413C219.721 39.4273 219.923 38.6207 220.339 37.9196C220.754 37.2186 221.364 36.6533 222.094 36.2928C222.099 36.2671 222.099 36.2409 222.094 36.2152L222.492 34.6921C222.669 33.8866 223.119 33.1671 223.767 32.656C224.414 32.1449 225.218 31.8737 226.043 31.8884H247.308C247.819 31.8679 248.326 31.9662 248.792 32.1755C249.258 32.3847 249.669 32.6992 249.992 33.0942C250.316 33.4892 250.543 33.9539 250.657 34.4517C250.77 34.9495 250.766 35.4668 250.646 35.963C250.646 35.963 250.646 36.0503 250.646 36.0988V36.2055C251.432 36.5366 252.097 37.1013 252.552 37.8232C253.007 38.5451 253.228 39.3892 253.187 40.2413V44.4905C253.201 44.9906 253.104 45.4874 252.902 45.9454C252.701 46.4033 252.401 46.811 252.023 47.139C251.384 47.689 250.557 47.9705 249.714 47.9248C250.069 48.6041 250.249 49.3609 250.238 50.127V54.8322L250.364 54.9195L252.353 56.3262C252.947 56.7395 253.41 57.3153 253.685 57.9846C253.96 58.6539 254.037 59.3884 253.905 60.1001C253.763 61.5897 253.071 62.973 251.965 63.9807C250.791 65.2321 248.958 65.8433 246.416 65.8433Z" fill="white"/>
<path d="M285.551 47.7018L285.086 49.8361C285.08 49.9243 285.056 50.0103 285.016 50.0889C284.975 50.1676 284.919 50.2372 284.851 50.2934C284.783 50.3497 284.704 50.3916 284.62 50.4163C284.535 50.4411 284.446 50.4484 284.358 50.4376H278.101C280.434 52.2273 283.108 53.5214 285.959 54.2406C286.424 54.3473 286.521 54.5607 286.24 54.8712L284.416 56.9473C284.296 57.0983 284.128 57.205 283.94 57.2507C283.752 57.2963 283.555 57.2783 283.378 57.1995V61.5457C283.411 61.7511 283.395 61.9614 283.332 62.1594C283.268 62.3574 283.158 62.5376 283.012 62.6851C282.865 62.8327 282.685 62.9435 282.488 63.0085C282.29 63.0735 282.08 63.0909 281.875 63.0592H273.851C273.646 63.09 273.437 63.0725 273.24 63.008C273.043 62.9435 272.864 62.8338 272.717 62.6877C272.57 62.5416 272.459 62.3631 272.393 62.1665C272.327 61.9699 272.308 61.7606 272.338 61.5555V55.1913C272.309 54.9858 272.328 54.7763 272.394 54.5794C272.459 54.3825 272.57 54.2036 272.717 54.0568C272.864 53.91 273.043 53.7993 273.24 53.7336C273.436 53.6678 273.646 53.6488 273.851 53.6779H276.762L273.289 50.4473H267.934L264.286 53.6876H267.934C268.139 53.6585 268.349 53.6775 268.546 53.7433C268.742 53.809 268.921 53.9197 269.068 54.0665C269.215 54.2133 269.326 54.3922 269.391 54.5891C269.457 54.786 269.476 54.9955 269.447 55.201V61.5555C269.477 61.7606 269.458 61.9699 269.392 62.1665C269.326 62.3631 269.215 62.5416 269.068 62.6877C268.921 62.8338 268.742 62.9435 268.545 63.008C268.348 63.0725 268.139 63.09 267.934 63.0592H260.328C260.123 63.09 259.913 63.0725 259.716 63.008C259.519 62.9435 259.34 62.8338 259.193 62.6877C259.046 62.5416 258.935 62.3631 258.869 62.1665C258.804 61.9699 258.785 61.7606 258.814 61.5555V56.8212L258.184 57.1025C258.115 57.151 258.036 57.1816 257.952 57.1917C257.869 57.2017 257.785 57.1908 257.707 57.16C257.629 57.1292 257.56 57.0794 257.506 57.0152C257.452 56.9509 257.415 56.8742 257.398 56.7921L256.428 54.6868C256.389 54.6097 256.368 54.5247 256.366 54.4382C256.365 54.3518 256.383 54.2661 256.419 54.1877C256.456 54.1093 256.51 54.0402 256.577 53.9855C256.643 53.9308 256.722 53.892 256.806 53.8719C258.965 53.0505 260.982 51.8948 262.782 50.4473H257.019C256.602 50.4473 256.418 50.2533 256.486 49.8458L256.961 47.7115C256.967 47.6243 256.991 47.5392 257.031 47.4613C257.07 47.3833 257.125 47.3142 257.192 47.2581C257.259 47.2019 257.337 47.1599 257.421 47.1344C257.504 47.109 257.592 47.1007 257.679 47.11H266.11L267.875 44.3451H260.328C260.122 44.3743 259.913 44.3552 259.716 44.2895C259.519 44.2237 259.34 44.1131 259.193 43.9663C259.046 43.8195 258.936 43.6406 258.87 43.4437C258.804 43.2468 258.785 43.0373 258.814 42.8317V36.5064C258.785 36.3009 258.804 36.0914 258.87 35.8945C258.936 35.6976 259.046 35.5186 259.193 35.3719C259.34 35.2251 259.519 35.1144 259.716 35.0487C259.913 34.9829 260.122 34.9639 260.328 34.993H267.904C268.11 34.9639 268.32 34.9829 268.516 35.0487C268.713 35.1144 268.892 35.2251 269.039 35.3719C269.186 35.5186 269.296 35.6976 269.362 35.8945C269.428 36.0914 269.447 36.3009 269.418 36.5064V44.1511L270.01 44.2772C271.251 44.5004 271.562 45.1601 270.98 46.2175L270.504 47.0615H277.645L276.073 46.2757C274.957 45.713 274.802 45.0533 275.598 44.3354H273.803C273.598 44.3629 273.39 44.3426 273.194 44.2761C272.998 44.2096 272.821 44.0987 272.675 43.9522C272.53 43.8056 272.42 43.6273 272.355 43.4312C272.289 43.2351 272.27 43.0266 272.299 42.822V36.5064C272.27 36.3018 272.289 36.0933 272.355 35.8972C272.42 35.7012 272.53 35.5229 272.675 35.3763C272.821 35.2297 272.998 35.1188 273.194 35.0523C273.39 34.9858 273.598 34.9655 273.803 34.993H281.865C282.07 34.9655 282.278 34.9858 282.474 35.0523C282.669 35.1188 282.847 35.2297 282.993 35.3763C283.138 35.5229 283.248 35.7012 283.313 35.8972C283.378 36.0933 283.397 36.3018 283.369 36.5064V42.822C283.397 43.0266 283.378 43.2351 283.313 43.4312C283.248 43.6273 283.138 43.8056 282.993 43.9522C282.847 44.0987 282.669 44.2096 282.474 44.2761C282.278 44.3426 282.07 44.3629 281.865 44.3354H278.081L279.566 45.1892C280.652 45.7907 280.856 46.431 280.157 47.1295H285.008C285.435 47.1003 285.619 47.3041 285.551 47.7018ZM265.013 41.0952C265.557 41.0952 265.828 40.8332 265.828 40.3094V39.0191C265.845 38.9083 265.835 38.7952 265.8 38.6889C265.765 38.5826 265.705 38.4859 265.626 38.4067C265.547 38.3276 265.45 38.268 265.344 38.2328C265.237 38.1976 265.124 38.1878 265.013 38.2042H263.025C262.481 38.2042 262.21 38.4661 262.21 38.99V40.2803C262.193 40.391 262.203 40.5041 262.238 40.6104C262.274 40.7168 262.333 40.8134 262.412 40.8926C262.492 40.9718 262.588 41.0313 262.694 41.0665C262.801 41.1017 262.914 41.1115 263.025 41.0952H265.013ZM265.013 59.751C265.125 59.7669 265.238 59.7569 265.345 59.7217C265.451 59.6866 265.548 59.6272 265.628 59.5483C265.708 59.4693 265.768 59.373 265.805 59.2668C265.841 59.1606 265.853 59.0474 265.838 58.9361V57.7719C265.854 57.6598 265.844 57.5455 265.809 57.438C265.773 57.3306 265.713 57.2329 265.633 57.1528C265.552 57.0728 265.455 57.0125 265.347 56.9768C265.24 56.9411 265.126 56.931 265.013 56.9473H262.346V58.8876C262.329 58.9984 262.339 59.1114 262.374 59.2178C262.409 59.3241 262.469 59.4207 262.548 59.4999C262.627 59.5791 262.724 59.6386 262.83 59.6738C262.937 59.709 263.05 59.7188 263.161 59.7025L265.013 59.751ZM276.655 38.2042C276.112 38.2042 275.84 38.4661 275.84 38.99V40.2803C275.824 40.391 275.834 40.5041 275.869 40.6104C275.904 40.7168 275.964 40.8134 276.043 40.8926C276.122 40.9718 276.219 41.0313 276.325 41.0665C276.431 41.1017 276.544 41.1115 276.655 41.0952H278.916C279.469 41.0952 279.74 40.8332 279.74 40.3094V39.0191C279.755 38.9077 279.743 38.7945 279.707 38.6883C279.671 38.5821 279.61 38.4858 279.53 38.4069C279.45 38.3279 279.353 38.2686 279.247 38.2334C279.14 38.1982 279.027 38.1882 278.916 38.2042H276.655ZM275.869 58.9361C275.853 59.0469 275.863 59.1599 275.898 59.2663C275.933 59.3726 275.993 59.4692 276.072 59.5484C276.151 59.6276 276.248 59.6871 276.354 59.7223C276.46 59.7575 276.573 59.7673 276.684 59.751H278.916C279.027 59.7669 279.14 59.7569 279.247 59.7217C279.353 59.6866 279.45 59.6272 279.53 59.5483C279.61 59.4693 279.671 59.373 279.707 59.2668C279.743 59.1606 279.755 59.0474 279.74 58.9361V56.9958H276.684C276.573 56.9812 276.46 56.9925 276.354 57.029C276.247 57.0654 276.151 57.1259 276.072 57.2058C275.993 57.2856 275.934 57.3827 275.899 57.4893C275.863 57.5959 275.853 57.7093 275.869 57.8204V58.9361Z" fill="#232323"/>
<path d="M281.875 65.9695H273.851C272.79 65.983 271.758 65.6185 270.941 64.9412C270.098 65.6406 269.028 66.0065 267.934 65.9695H260.328C259.743 65.9971 259.159 65.9024 258.612 65.6914C258.066 65.4804 257.57 65.1579 257.155 64.7443C256.741 64.3307 256.417 63.8352 256.205 63.2895C255.993 62.7437 255.897 62.1597 255.923 61.5748V59.4502C255.396 59.0607 254.987 58.5337 254.74 57.9271L253.818 55.8607C253.796 55.8211 253.78 55.7786 253.77 55.7345C253.52 55.143 253.442 54.4926 253.547 53.859C253.652 53.2253 253.934 52.6344 254.361 52.1547C254.047 51.7741 253.819 51.3298 253.693 50.8523C253.568 50.3749 253.547 49.8759 253.634 49.3898V49.2152L254.099 47.1391C254.194 46.5583 254.436 46.0112 254.8 45.5495C255.165 45.0878 255.642 44.7267 256.185 44.5003C255.99 43.9624 255.891 43.3942 255.894 42.822V36.5063C255.868 35.921 255.964 35.3366 256.176 34.7904C256.388 34.2441 256.712 33.7481 257.126 33.3337C257.54 32.9194 258.036 32.5959 258.583 32.3838C259.129 32.1717 259.713 32.0757 260.299 32.1019H267.875C268.929 32.0729 269.96 32.4164 270.786 33.072C271.612 32.4179 272.642 32.0745 273.696 32.1019H281.758C282.343 32.0756 282.927 32.1716 283.473 32.3838C284.019 32.596 284.514 32.9197 284.928 33.3341C285.341 33.7486 285.664 34.2448 285.875 34.791C286.086 35.3373 286.18 35.9215 286.153 36.5063V42.822C286.157 43.3388 286.078 43.853 285.92 44.3451C286.565 44.517 287.143 44.8787 287.579 45.3831C287.898 45.7612 288.13 46.2051 288.257 46.6831C288.384 47.1611 288.405 47.6613 288.316 48.148V48.3227L287.909 50.4473C287.831 50.9089 287.663 51.3507 287.414 51.7473C287.873 51.957 288.275 52.2735 288.587 52.6705C288.899 53.0674 289.111 53.5332 289.206 54.0289C289.301 54.5247 289.276 55.0359 289.133 55.52C288.99 56.004 288.733 56.4469 288.384 56.8114L286.551 58.9069L286.23 59.2368V61.5942C286.255 62.1737 286.159 62.7519 285.949 63.2926C285.739 63.8332 285.42 64.3245 285.01 64.7356C284.601 65.1466 284.111 65.4684 283.572 65.6808C283.032 65.8932 282.454 65.9915 281.875 65.9695ZM285.222 57.0442H285.299H285.222ZM263.044 39.6593C263.239 40.1281 263.579 40.5223 264.014 40.7847C264.454 40.5189 264.794 40.117 264.984 39.6399C264.793 39.1664 264.452 38.7681 264.014 38.5048C263.586 38.7828 263.254 39.1859 263.063 39.6593H263.044ZM276.888 39.6593C277.05 40.0736 277.33 40.4311 277.693 40.6876C278.061 40.4249 278.344 40.0608 278.508 39.6399C278.344 39.2243 278.065 38.8642 277.703 38.6018C277.345 38.8738 277.069 39.2399 276.907 39.6593H276.888Z" fill="white"/>
<path d="M95.3746 44.1801L95.5783 41.1339L104.106 41.6384L104.271 38.9026L95.685 38.3981V35.2354L96.044 30.7631L96.3738 26.2616L92.0276 27.1639L87.7784 28.2504L83.471 29.0265L79.1635 29.8317L74.8658 30.9086L70.9853 29.0265L67.2793 26.9019L63.3987 25.1751L59.5182 23.3997L55.7928 21.343L51.9705 19.4027L48.0899 17.6565L44.3355 15.6483L40.5228 14.0378L40.2609 18.4326L40.0863 22.9631L39.6788 27.484L39.446 32.0146L39.3198 36.5548L39.1355 41.0854L38.7087 45.6159L38.4273 50.1465V54.6868L38.2042 59.2173L37.7676 63.7479L37.5154 68.2784L37.3311 72.7605L41.328 71.412L45.325 69.9568L49.3511 68.5501L53.3578 67.0173L57.3742 65.5814L61.41 64.2038L62.1764 63.9225L60.0324 69.4426C59.9283 69.72 59.7699 69.9738 59.5663 70.1891C59.3627 70.4043 59.1181 70.5767 58.8469 70.696C58.5757 70.8153 58.2834 70.8792 57.9872 70.8839C57.6909 70.8886 57.3967 70.8339 57.1219 70.7232C56.4614 70.4504 55.7236 70.4301 55.0491 70.6663C54.3746 70.9025 53.8106 71.3785 53.4645 72.0038C53.2876 72.3529 53.1857 72.7351 53.1654 73.1259C53.1451 73.5168 53.2068 73.9075 53.3466 74.273C53.4864 74.6386 53.7012 74.9708 53.9772 75.2483C54.2531 75.5258 54.5841 75.7425 54.9488 75.8843L58.9264 77.4269C59.3855 77.6066 59.8756 77.6938 60.3685 77.6832C60.8614 77.6726 61.3474 77.5645 61.7983 77.3652C62.2493 77.1659 62.6563 76.8793 62.9959 76.5219C63.3355 76.1645 63.601 75.7434 63.7771 75.2829L69.1808 61.3322L69.3942 61.2546L73.3427 59.8576L77.5143 61.1188L74.4584 69.5105C74.2511 70.0535 73.8401 70.4942 73.3128 70.7388C72.7856 70.9834 72.1837 71.0126 71.6352 70.8202C70.9692 70.5618 70.2313 70.5574 69.5623 70.8079C68.8932 71.0583 68.3396 71.5462 68.0069 72.1784C67.8318 72.5324 67.7335 72.9194 67.7183 73.314C67.7032 73.7086 67.7716 74.102 67.919 74.4684C68.0665 74.8348 68.2897 75.1658 68.574 75.4399C68.8583 75.714 69.1973 75.925 69.5688 76.059L73.5755 77.5045C74.0373 77.6728 74.5277 77.7484 75.0188 77.7268C75.5098 77.7052 75.9917 77.587 76.437 77.3788C76.8822 77.1706 77.2819 76.8766 77.6133 76.5136C77.9447 76.1506 78.2012 75.7258 78.368 75.2635L82.8889 62.8165L85.7993 63.9807L89.9806 65.2904L94.1716 66.5322L94.5306 62.0889V57.6069L94.7828 54.5218L103.291 55.0166L103.456 52.2905L94.9089 51.786V48.6622L95.3746 44.1801Z" fill="#232323"/>
<path d="M74.8561 80.5992C74.085 80.602 73.3195 80.4673 72.5957 80.2015L68.589 78.7463C67.6265 78.3993 66.7753 77.7994 66.1248 77.0097C65.3745 78.4551 64.1167 79.5723 62.593 80.1471C61.0692 80.7219 59.3869 80.7136 57.8689 80.1239L53.8913 78.5813C53.1895 78.3093 52.5486 77.9009 52.0056 77.3796C51.4627 76.8583 51.0284 76.2346 50.728 75.5444C50.4276 74.8543 50.267 74.1114 50.2554 73.3588C50.2439 72.6062 50.3817 71.8588 50.6608 71.1598L50.4085 71.2568H50.3018L42.3079 74.1672L38.2624 75.5351C37.8206 75.6843 37.3494 75.7252 36.8885 75.6543C36.4275 75.5834 35.9904 75.4028 35.6139 75.1276C35.2471 74.8526 34.9505 74.4949 34.7482 74.0835C34.5459 73.6722 34.4436 73.2189 34.4497 72.7605L34.5855 68.2688L34.8475 63.6606C34.8427 63.6219 34.8427 63.5828 34.8475 63.5442L35.2743 59.0912L35.4975 54.6868V50.195C35.4926 50.1434 35.4926 50.0914 35.4975 50.0398L35.7885 45.5092L36.2057 40.969L36.39 36.516L36.5161 32.0049L36.749 27.4064C36.7538 27.371 36.7538 27.3351 36.749 27.2997L37.1467 22.8467L37.3116 18.3841L37.5833 13.9117C37.6206 13.4476 37.7687 12.9993 38.0151 12.6042C38.2616 12.2092 38.5992 11.8791 38.9997 11.6416C39.3913 11.3999 39.8347 11.2546 40.2934 11.2175C40.7521 11.1804 41.2131 11.2526 41.6385 11.4282L45.4511 13.0289C45.5445 13.0683 45.6352 13.1137 45.7228 13.1647L49.3608 15.1535L53.1443 16.8513L53.2317 16.8998L57.1122 18.7721L57.248 18.84L60.8764 20.8579L64.6502 22.5945L68.5308 24.3019L68.7927 24.4378L72.4113 26.5139L75.186 27.843L78.4553 27.028H78.63L87.1672 25.4564L91.3097 24.399H91.4455L95.7723 23.5161C96.2089 23.4308 96.6591 23.4466 97.0886 23.5624C97.518 23.6782 97.9152 23.8908 98.2496 24.184C98.584 24.4773 98.8468 24.8432 99.0178 25.2538C99.1887 25.6644 99.2633 26.1088 99.2358 26.5527L98.6052 35.7593L104.426 36.0989C105.188 36.1489 105.9 36.4962 106.408 37.066C106.916 37.6359 107.18 38.3825 107.142 39.1451L106.987 41.8809C106.937 42.6445 106.588 43.3577 106.017 43.8661C105.445 44.3745 104.695 44.6372 103.931 44.5973L98.2656 44.2675V44.4421V44.5003L97.8873 49.1279L103.708 49.4674C104.47 49.5174 105.182 49.8647 105.69 50.4346C106.198 51.0044 106.462 51.7511 106.424 52.5137L106.26 55.2495C106.211 56.0143 105.862 56.7289 105.289 57.2382C104.717 57.7455 103.967 58.0069 103.204 57.9658L97.5089 57.6263V57.7912V62.1666C97.514 62.2376 97.514 62.3089 97.5089 62.38L97.0141 66.7456C96.9749 67.1716 96.8423 67.5837 96.6256 67.9526C96.409 68.3215 96.1137 68.6381 95.7608 68.8799C95.4079 69.1217 95.006 69.2827 94.5837 69.3514C94.1615 69.4202 93.7293 69.395 93.3179 69.2777L89.1366 68.0359L84.9068 66.7165L84.6933 66.6389H84.5575L81.0553 76.2821C80.4522 77.9331 79.2214 79.279 77.6307 80.0269C76.7582 80.4163 75.8115 80.6116 74.8561 80.5992V80.5992ZM71.9457 73.8083L74.5845 74.7784C74.7957 74.8657 75.0329 74.8657 75.2442 74.7784C75.3455 74.7306 75.4363 74.663 75.5112 74.5798C75.5862 74.4965 75.6438 74.3991 75.6807 74.2933L76.6509 71.6448C76.1343 72.3958 75.427 72.9957 74.6018 73.3827C73.7765 73.7698 72.8631 73.93 71.9554 73.8471L71.9457 73.8083ZM57.3936 73.7209L60.0129 74.6911C60.2213 74.7757 60.4545 74.7757 60.6629 74.6911C60.7669 74.6465 60.8609 74.5814 60.9392 74.4997C61.0175 74.418 61.0786 74.3215 61.1189 74.2157L62.089 71.5866C61.5565 72.3312 60.8324 72.9179 59.9935 73.2844C59.162 73.6751 58.239 73.8295 57.3257 73.7306L57.3936 73.7209ZM40.6101 64.0292L40.3482 68.7732L48.2936 65.9307L52.1742 64.3785L56.2682 62.9136L61.1189 61.2158C61.6409 61.0273 62.206 60.992 62.7475 61.114C63.2889 61.236 63.7842 61.5104 64.1748 61.9046C64.4482 62.1851 64.6621 62.5178 64.8038 62.8829C64.9455 63.2479 65.012 63.6378 64.9995 64.0292L66.4353 60.3136C66.5857 59.9305 66.8157 59.5838 67.11 59.2961C67.4044 59.0085 67.7563 58.7866 68.1427 58.6449L72.3725 57.1412C72.9438 56.9373 73.5645 56.9169 74.1479 57.083L78.3195 58.3054C78.7007 58.4191 79.0551 58.6082 79.3617 58.8615C79.6684 59.1148 79.921 59.4272 80.1046 59.78C80.346 60.2531 80.4533 60.7831 80.415 61.3128C80.7761 60.7329 81.3297 60.2985 81.9789 60.0857C82.628 59.8728 83.3314 59.8951 83.9657 60.1487L86.7694 61.274L91.6201 62.7583L91.6784 61.9628V57.5875C91.6832 57.5197 91.6832 57.4516 91.6784 57.3838L91.9306 54.2987C91.9691 53.8559 92.1084 53.4278 92.338 53.0472C92.1466 52.6444 92.0504 52.2029 92.0567 51.7569V48.6234C92.0521 48.5588 92.0521 48.494 92.0567 48.4294L92.4351 43.9958L92.6291 40.9787C92.6572 40.5275 92.7901 40.089 93.0171 39.6981C92.8252 39.2882 92.7259 38.841 92.7261 38.3884V35.2257V35.0705L93.0754 29.89L92.5612 29.9967L88.4963 31.0444H88.2829L79.765 32.6064L75.5546 33.6638C74.9037 33.8211 74.2184 33.7492 73.6143 33.4601L69.7338 31.5198L69.5688 31.4325L65.9696 29.4728L62.2055 27.8139L58.3249 26.0094L58.1309 25.9124L54.4637 23.8751L50.7384 22.0512L46.8578 20.3341L46.6444 20.2274L43.1228 18.2871V18.6072L42.9482 23.0796C42.953 23.128 42.953 23.1767 42.9482 23.2251L42.5504 27.6974L42.3176 32.1795L42.1914 36.6518L42.0071 41.2212C42.0122 41.2728 42.0122 41.3248 42.0071 41.3764L41.59 45.8973L41.3086 50.2629V54.7256C41.3134 54.7675 41.3134 54.8098 41.3086 54.8517L41.0855 59.3823C41.0855 59.4308 41.0855 59.4696 41.0855 59.5181L40.6101 64.0292ZM70.6069 67.7837C71.0694 67.7731 71.5316 67.8154 71.9845 67.9098L73.7792 62.9912L73.4203 62.8942L71.3539 63.6218L69.7338 67.8128C70.0229 67.7701 70.3146 67.7474 70.6069 67.7449V67.7837Z" fill="white"/>
<path d="M22.7789 26.7565L8.88647 20.1013L24.7871 33.499L26.4848 27.6684L37.3116 35.3907L25.0587 20.664L22.7789 26.7565Z" fill="#232323"/>
<path d="M37.3116 38.2817C36.7105 38.2815 36.1242 38.0951 35.6333 37.7482L28.1341 32.3833L27.5811 34.3236C27.4428 34.7827 27.1931 35.2006 26.8544 35.54C26.5156 35.8794 26.0982 36.1299 25.6393 36.2691C25.1804 36.4083 24.6942 36.4319 24.2239 36.3379C23.7537 36.2439 23.314 36.0352 22.9438 35.7303L7.02383 22.3132C6.49171 21.8556 6.14285 21.2212 6.0415 20.5268C5.94015 19.8324 6.09314 19.1247 6.47228 18.5341C6.85142 17.9436 7.43118 17.5099 8.10478 17.313C8.77837 17.1161 9.50044 17.1692 10.138 17.4625L21.1782 22.7595L22.3133 19.655C22.4913 19.1811 22.7898 18.7618 23.1794 18.4385C23.569 18.1153 24.0362 17.8992 24.5349 17.8118C25.0314 17.7253 25.5419 17.7692 26.0164 17.9392C26.4909 18.1093 26.913 18.3997 27.2416 18.7819L39.5333 33.5474C39.8748 33.9721 40.0903 34.4841 40.1552 35.0252C40.2201 35.5663 40.1318 36.1147 39.9002 36.6081C39.6687 37.1014 39.3034 37.5199 38.8457 37.8158C38.3881 38.1116 37.8565 38.2731 37.3116 38.2817Z" fill="white"/>
<path d="M24.5057 51.2428L27.3191 52.8047L21.2557 59.5375L32.3639 52.5428L28.8713 50.8159L32.3736 46.2078L24.5057 51.2428Z" fill="#232323"/>
<path d="M21.2558 62.4187C20.6962 62.4138 20.1497 62.2477 19.6821 61.9402C19.2144 61.6327 18.8453 61.1969 18.619 60.685C18.3928 60.1731 18.3189 59.6067 18.4063 59.0539C18.4937 58.5011 18.7387 57.9851 19.1118 57.568L22.7693 53.5128C22.4225 53.2557 22.1392 52.9227 21.9407 52.5394C21.7423 52.156 21.6342 51.7324 21.6245 51.3009C21.6111 50.8017 21.7263 50.3075 21.959 49.8658C22.1918 49.4241 22.5343 49.0496 22.9536 48.7785L30.8214 43.7532C31.3946 43.4034 32.071 43.2626 32.7361 43.3546C33.4012 43.4465 34.014 43.7656 34.4707 44.2577C34.9275 44.7499 35.2 45.3848 35.2421 46.0549C35.2843 46.725 35.0935 47.389 34.702 47.9345L33.3147 49.7486L33.6736 49.9233C34.1284 50.1562 34.5138 50.5048 34.7911 50.9339C35.0684 51.3631 35.2279 51.8577 35.2535 52.368C35.279 52.8783 35.1698 53.3863 34.9367 53.841C34.7037 54.2957 34.3551 54.6811 33.9259 54.9583L22.7887 61.9821C22.3283 62.2674 21.7974 62.4186 21.2558 62.4187V62.4187Z" fill="white"/>
<path d="M103.495 52.2732L92.3085 51.6223L92.1496 54.3535L103.336 55.0044L103.495 52.2732Z" fill="#F8C341"/>
<path d="M104.27 38.9045L93.0837 38.2537L92.9248 40.9848L104.111 41.6357L104.27 38.9045Z" fill="#F8C341"/>
<path d="M74.4875 69.4814C74.2861 70.0366 73.8727 70.4892 73.3381 70.7402C72.8034 70.9912 72.1911 71.0199 71.6353 70.8201C70.9692 70.5617 70.2314 70.5574 69.5623 70.8078C68.8932 71.0583 68.3396 71.5461 68.007 72.1783C67.8319 72.5323 67.7335 72.9193 67.7184 73.314C67.7032 73.7086 67.7716 74.102 67.9191 74.4683C68.0665 74.8347 68.2897 75.1658 68.5741 75.4399C68.8584 75.714 69.1974 75.9249 69.5689 76.0589L73.5756 77.5044C74.5083 77.8417 75.5368 77.7952 76.4353 77.3751C77.3338 76.9549 78.0289 76.1955 78.3681 75.2634L83.665 60.7113L78.3875 58.771L74.4875 69.4814Z" fill="#F76977"/>
<path d="M59.9838 69.4425C59.8798 69.7199 59.7213 69.9737 59.5177 70.189C59.3141 70.4042 59.0696 70.5766 58.7984 70.6959C58.5272 70.8152 58.2349 70.8791 57.9386 70.8838C57.6424 70.8884 57.3482 70.8338 57.0734 70.7231C56.4129 70.4503 55.6751 70.43 55.0006 70.6662C54.3261 70.9023 53.762 71.3784 53.416 72.0037C53.239 72.3527 53.1371 72.735 53.1168 73.1258C53.0965 73.5166 53.1583 73.9074 53.2981 74.2729C53.4379 74.6384 53.6527 74.9707 53.9286 75.2482C54.2046 75.5257 54.5355 75.7424 54.9003 75.8842L58.8778 77.4268C59.3369 77.6065 59.8271 77.6936 60.32 77.6831C60.8129 77.6725 61.2988 77.5644 61.7498 77.3651C62.2007 77.1658 62.6077 76.8792 62.9474 76.5218C63.287 76.1644 63.5525 75.7433 63.7286 75.2827L69.3457 60.8276L64.1069 58.8L59.9838 69.4425Z" fill="#F76977"/>
<path d="M74.8658 30.8989L70.995 29.0168L67.289 26.8922L63.389 25.1654L59.5182 23.39L55.7928 21.3139L51.9705 19.4415L48.0705 17.6953L44.3355 15.6483L40.5228 14.0378L40.2609 18.452L40.0863 22.9825L39.6885 27.5034L39.446 32.0437L39.3198 36.5839L39.1355 41.1145L38.7184 45.645L38.4176 50.1756L38.3885 54.7159L38.1654 59.2464L37.7288 63.777L37.4766 68.3075L37.3311 72.7993L41.328 71.4508L45.325 69.9956L49.3511 68.5889L53.3093 67.0173L57.3257 65.5814L61.3518 64.2038L65.3584 62.7389L69.3554 61.2643L73.3427 59.8576L77.5143 61.08L81.715 62.3218L85.7993 63.9613L89.9806 65.271L94.1716 66.5128L94.5306 62.0695L94.5694 57.5875L94.9283 53.1248L94.9963 48.6428L95.3746 44.1801L95.6657 39.7175L95.7239 35.2354L96.0246 30.7631L96.3545 26.2616L92.0276 27.1542L87.7784 28.2407L83.471 29.0168L79.1538 29.822L74.8658 30.8989Z" fill="#F76977"/>
<path d="M67.5995 41.3763C67.4539 44.1024 66.6293 47.0129 63.6316 46.8576C60.6338 46.7024 60.1294 43.8405 60.2749 41.0368C60.4204 38.2331 62.1376 36.9816 64.1554 37.0883C66.1733 37.195 67.745 38.6502 67.5995 41.3763Z" fill="white"/>
<path d="M65.4457 41.716C65.3778 42.8608 65.0189 44.0735 63.7868 44.0056C62.5547 43.9377 62.3219 42.7444 62.3801 41.5608C62.4383 40.3772 63.1562 39.8631 64.0002 39.9116C64.2191 39.9206 64.4336 39.9764 64.6291 40.0752C64.8246 40.1741 64.9967 40.3138 65.1337 40.4848C65.2707 40.6558 65.3694 40.8542 65.4232 41.0666C65.4771 41.279 65.4847 41.5004 65.4457 41.716Z" fill="#231814"/>
<path d="M86.3426 42.3855C86.1971 45.1116 85.3724 48.022 82.3844 47.8668C79.3964 47.7115 78.8725 44.8399 79.0277 41.9974C79.1829 39.1549 80.8904 37.9422 82.9083 38.0489C84.9262 38.1556 86.5075 39.6594 86.3426 42.3855Z" fill="white"/>
<path d="M84.15 42.686C84.0918 43.7823 83.7426 44.9464 82.559 44.8785C81.3754 44.8106 81.1523 43.6756 81.2202 42.5308C81.2881 41.386 81.9575 40.9106 82.7724 40.9495C82.9814 40.9614 83.1855 41.0174 83.3714 41.1138C83.5572 41.2102 83.7205 41.3449 83.8506 41.5089C83.9807 41.6729 84.0746 41.8625 84.1262 42.0654C84.1778 42.2683 84.186 42.4798 84.15 42.686V42.686Z" fill="#231814"/>
<path d="M8.88647 20.1013L24.7871 33.499L26.4848 27.6684L37.3116 35.3907L25.0587 20.664L22.7789 26.7565L8.88647 20.1013Z" fill="#F8C341"/>
<path d="M32.3736 46.2078L24.5057 51.2331L27.3191 52.8047L21.2557 59.5375L32.3639 52.5428L28.8713 50.8159L32.3736 46.2078Z" fill="#F8C341"/>
<path d="M73.0711 53.8039C72.9897 53.8047 72.9096 53.7846 72.8382 53.7455C72.7669 53.7064 72.7068 53.6497 72.6636 53.5808C72.6298 53.5267 72.6069 53.4664 72.5964 53.4034C72.5858 53.3405 72.5878 53.276 72.6023 53.2138C72.6167 53.1517 72.6432 53.0929 72.6804 53.041C72.7176 52.9891 72.7646 52.9451 72.8188 52.9114L75.7293 51.0875C75.7834 51.0537 75.8437 51.031 75.9066 51.0205C75.9696 51.01 76.034 51.0121 76.0961 51.0265C76.1583 51.0409 76.217 51.0674 76.2689 51.1045C76.3208 51.1416 76.3649 51.1886 76.3987 51.2427C76.4324 51.2969 76.4552 51.3571 76.4657 51.4201C76.4761 51.483 76.4741 51.5474 76.4597 51.6096C76.4453 51.6717 76.4188 51.7304 76.3817 51.7824C76.3446 51.8343 76.2976 51.8784 76.2434 51.9121L73.333 53.736C73.2532 53.7812 73.1628 53.8046 73.0711 53.8039Z" fill="#251714"/>
<path d="M73.071 53.8039C72.9632 53.8033 72.8581 53.7694 72.7703 53.7069L70.0442 51.5532C69.9938 51.5137 69.9518 51.4647 69.9204 51.4089C69.889 51.3532 69.8689 51.2918 69.8613 51.2283C69.8458 51.1 69.8819 50.9709 69.9617 50.8692C70.0415 50.7676 70.1583 50.7018 70.2866 50.6864C70.4149 50.6709 70.544 50.707 70.6457 50.7868L73.3718 52.9405C73.4499 53.0032 73.5068 53.0886 73.5344 53.1849C73.5621 53.2812 73.5593 53.3838 73.5263 53.4784C73.4933 53.5731 73.4319 53.6552 73.3503 53.7135C73.2688 53.7717 73.1712 53.8033 73.071 53.8039V53.8039Z" fill="#251714"/>
<path d="M132.599 49.8362L132.162 51.7765C132.154 51.8661 132.128 51.953 132.085 52.032C132.041 52.111 131.983 52.1804 131.912 52.2358C131.841 52.2912 131.759 52.3316 131.672 52.3543C131.585 52.3771 131.495 52.3819 131.406 52.3682H127.525L127.273 60.8958C127.092 61.352 126.746 61.7229 126.303 61.9338C125.68 62.2835 124.966 62.4357 124.256 62.3704C123.043 62.4383 122.315 62.0309 121.995 61.148C121.617 59.9936 122.053 59.4115 123.315 59.4115H123.693C123.817 59.4209 123.941 59.3866 124.042 59.3145C124.112 59.212 124.143 59.0883 124.13 58.9652V52.3876H118.968C118.551 52.3876 118.386 52.1936 118.474 51.7959L118.881 49.8556C118.892 49.767 118.92 49.6815 118.964 49.6038C119.008 49.5261 119.067 49.4579 119.137 49.4029C119.207 49.348 119.287 49.3074 119.373 49.2835C119.459 49.2596 119.549 49.2529 119.638 49.2638H124.178V46.8384H118.833C118.415 46.8384 118.241 46.6444 118.328 46.2467L118.736 44.3549C118.76 44.1764 118.852 44.0142 118.993 43.9021C119.134 43.79 119.313 43.7367 119.492 43.7534H121.268L120.734 41.9683C120.645 41.7801 120.604 41.5731 120.613 41.3652C120.622 41.1573 120.682 40.9547 120.787 40.7751C120.892 40.5955 121.039 40.4442 121.216 40.3343C121.393 40.2244 121.594 40.1592 121.801 40.1445L122.907 39.8534H119.289C118.862 39.8534 118.697 39.6594 118.784 39.2616L119.191 37.399C119.216 37.2212 119.308 37.0599 119.45 36.9494C119.591 36.8389 119.77 36.7878 119.948 36.8072H124.032L123.315 34.8669C123.169 34.4885 123.315 34.2945 123.722 34.2654L126.05 34.1393C126.236 34.1187 126.423 34.1651 126.578 34.27C126.733 34.3749 126.845 34.5315 126.894 34.7117L127.777 36.7878H132.123C132.541 36.7878 132.706 36.9818 132.618 37.3796L132.211 39.2422C132.189 39.4192 132.098 39.5804 131.959 39.6912C131.819 39.8019 131.641 39.8532 131.464 39.834H128.786L129.504 39.9989C130.746 40.2221 131.124 40.9691 130.639 42.0653L129.95 43.734H132.589C133.016 43.734 133.181 43.9377 133.094 44.3355L132.686 46.2273C132.662 46.405 132.569 46.5663 132.428 46.6768C132.287 46.7873 132.108 46.8384 131.929 46.819H127.525V49.2444H132.085C132.492 49.2444 132.667 49.4772 132.599 49.8362ZM120.181 54.0854C120.385 53.5227 120.666 53.3481 121.025 53.5518L122.538 54.4346C122.897 54.6384 122.975 54.9779 122.791 55.4048C122.32 56.8139 121.56 58.1092 120.559 59.2077C120.327 59.4794 120.074 59.4794 119.803 59.2077L118.571 57.9175C118.509 57.8586 118.46 57.7878 118.426 57.7094C118.393 57.6311 118.376 57.5467 118.376 57.4615C118.376 57.3763 118.393 57.2919 118.426 57.2135C118.46 57.1352 118.509 57.0644 118.571 57.0055C119.348 56.1859 119.903 55.1805 120.181 54.0854V54.0854ZM127.942 39.834H123.315C123.701 40.4587 123.959 41.1549 124.071 41.881C124.136 42.0817 124.155 42.2941 124.128 42.5031C124.1 42.712 124.027 42.9123 123.913 43.0895C123.798 43.2667 123.647 43.4164 123.468 43.5279C123.289 43.6393 123.087 43.7097 122.878 43.734H126.584L127.942 39.834ZM132.715 56.8212C132.768 56.8842 132.802 56.9599 132.816 57.0406C132.83 57.1213 132.822 57.2042 132.793 57.2809C132.765 57.3577 132.717 57.4255 132.654 57.4777C132.59 57.5298 132.515 57.5644 132.434 57.5779L130.775 58.2085C130.698 58.2478 130.613 58.2699 130.526 58.2732C130.439 58.2766 130.353 58.2612 130.273 58.228C130.192 58.1948 130.12 58.1447 130.061 58.081C130.002 58.0174 129.958 57.9417 129.931 57.8592L128.321 54.813C128.139 54.4573 128.246 54.2244 128.641 54.1145L130.212 53.6488C130.384 53.5902 130.572 53.5962 130.74 53.6659C130.908 53.7355 131.044 53.864 131.124 54.0272L132.715 56.8212ZM146.588 44.025C147.015 44.025 147.19 44.2191 147.132 44.6168L146.656 46.8869C146.649 46.9743 146.624 47.0592 146.583 47.1367C146.543 47.2142 146.486 47.2826 146.419 47.3379C146.351 47.3932 146.272 47.4342 146.188 47.4584C146.104 47.4826 146.016 47.4895 145.929 47.4787H144.299V62.3025C144.299 62.7197 144.095 62.8943 143.697 62.8361L141.243 62.3607C141.155 62.3549 141.069 62.331 140.991 62.2906C140.913 62.2502 140.844 62.1941 140.788 62.1258C140.733 62.0575 140.692 61.9786 140.668 61.8938C140.645 61.809 140.639 61.7203 140.651 61.6331V47.4787L137.566 47.7019C137.566 54.6675 136.596 59.5182 134.656 62.254C134.5 62.5256 134.297 62.5159 134.025 62.254L132.327 60.3137C132.195 60.1931 132.109 60.0294 132.086 59.8518C132.063 59.6741 132.104 59.494 132.201 59.3436C132.568 58.7485 132.821 58.0906 132.948 57.4033C133.793 54.2416 134.165 50.9725 134.054 47.7019V38.1072C134.054 37.137 134.665 36.5452 135.878 36.3124C138.382 35.9313 140.825 35.2235 143.144 34.2072C143.286 34.1347 143.451 34.1205 143.603 34.1676C143.755 34.2148 143.883 34.3195 143.959 34.4594L145.57 36.4676C145.822 36.7878 145.773 37.0012 145.444 37.1273C143.216 37.9232 140.92 38.5142 138.585 38.893C137.896 39.0191 137.547 39.3587 137.547 39.8631V43.9862L146.588 44.025Z" fill="#232323"/>
<path d="M166.137 43.86C166.165 44.0646 166.146 44.2731 166.081 44.4692C166.016 44.6652 165.906 44.8435 165.761 44.9901C165.615 45.1367 165.437 45.2476 165.242 45.3141C165.046 45.3806 164.838 45.4009 164.633 45.3734H157.677V62.4285C157.677 62.8456 157.473 63.0203 157.076 62.9621L154.621 62.4867C154.533 62.4809 154.448 62.457 154.369 62.4166C154.291 62.3762 154.222 62.3201 154.167 62.2518C154.111 62.1835 154.07 62.1045 154.047 62.0198C154.023 61.935 154.017 61.8462 154.029 61.7591V36.3802C154.001 36.1756 154.019 35.9671 154.085 35.771C154.15 35.5749 154.26 35.3966 154.405 35.2501C154.551 35.1035 154.729 34.9926 154.924 34.9261C155.12 34.8596 155.328 34.8393 155.533 34.8668H164.594C164.803 34.8378 165.017 34.8577 165.217 34.925C165.417 34.9923 165.599 35.105 165.749 35.2545C165.898 35.4039 166.011 35.586 166.078 35.7864C166.146 35.9867 166.166 36.1999 166.137 36.4093V43.86ZM162.615 38.1652C162.631 38.0545 162.622 37.9414 162.586 37.8351C162.551 37.7287 162.492 37.6321 162.412 37.5529C162.333 37.4737 162.237 37.4142 162.13 37.379C162.024 37.3438 161.911 37.334 161.8 37.3503H158.492C158.381 37.334 158.268 37.3438 158.162 37.379C158.055 37.4142 157.959 37.4737 157.88 37.5529C157.8 37.6321 157.741 37.7287 157.706 37.8351C157.67 37.9414 157.661 38.0545 157.677 38.1652V38.9511H162.615V38.1652ZM157.677 42.8898H161.8C161.911 42.9044 162.025 42.8931 162.131 42.8567C162.237 42.8202 162.333 42.7597 162.412 42.6799C162.491 42.6 162.551 42.5029 162.586 42.3963C162.621 42.2897 162.631 42.1764 162.615 42.0652V41.3473H157.677V42.8898ZM179.02 34.8668C179.229 34.8378 179.443 34.8577 179.643 34.925C179.843 34.9923 180.025 35.105 180.175 35.2545C180.324 35.4039 180.437 35.586 180.504 35.7864C180.572 35.9867 180.592 36.1999 180.563 36.4093L180.281 60.9733C180.094 61.5023 179.726 61.9486 179.243 62.2345C178.517 62.7086 177.654 62.9302 176.789 62.865C175.508 62.9233 174.79 62.4576 174.616 61.4486C174.524 60.7406 174.3 60.0561 173.956 59.4307L172.986 59.4987V61.1964C172.986 61.6136 172.782 61.7979 172.384 61.73L170.211 61.2643C170.124 61.2571 170.039 61.2324 169.961 61.1915C169.884 61.1507 169.816 61.0946 169.76 61.0266C169.705 60.9587 169.664 60.8802 169.64 60.796C169.616 60.7119 169.609 60.6236 169.619 60.5367V59.78C167.262 59.974 164.022 60.2166 159.918 60.5367C159.365 60.5367 159.113 60.3912 159.161 59.974L159.443 58.3054C159.441 58.2158 159.458 58.127 159.493 58.0443C159.527 57.9617 159.578 57.887 159.643 57.8251C159.708 57.7631 159.784 57.7152 159.868 57.6844C159.953 57.6535 160.042 57.6403 160.131 57.6457L161.422 57.5487V49.2443H160.228C159.811 49.2443 159.656 49.0405 159.753 48.6428L160.102 47.2652C160.135 47.0853 160.234 46.9242 160.379 46.813C160.525 46.7019 160.706 46.6486 160.888 46.6637H174.228C174.645 46.6637 174.8 46.8674 174.703 47.2652L174.354 48.6428C174.321 48.8226 174.222 48.9838 174.077 49.0949C173.932 49.2061 173.75 49.2593 173.568 49.2443H173.005V56.7629L174.257 56.6658C174.46 56.6208 174.671 56.626 174.872 56.6811C175.073 56.7361 175.257 56.8393 175.409 56.9817C175.561 57.1241 175.676 57.3014 175.744 57.4983C175.812 57.6951 175.831 57.9055 175.799 58.1114L175.702 58.4897C175.605 59.033 175.838 59.3046 176.43 59.3046C176.769 59.3046 176.934 59.0912 176.934 58.7128V45.3734H169.775C169.569 45.4025 169.36 45.3835 169.163 45.3177C168.966 45.252 168.787 45.1413 168.64 44.9945C168.493 44.8477 168.383 44.6688 168.317 44.4719C168.251 44.275 168.232 44.0655 168.261 43.86V36.3802C168.232 36.1746 168.251 35.9652 168.317 35.7682C168.383 35.5713 168.493 35.3924 168.64 35.2456C168.787 35.0988 168.966 34.9882 169.163 34.9225C169.36 34.8567 169.569 34.8376 169.775 34.8668H179.02ZM169.59 49.2443H164.633V50.4472H169.571L169.59 49.2443ZM164.652 52.5427V53.8718H169.59V52.5427H164.652ZM164.652 57.3934L169.59 57.0539V55.9867H164.633L164.652 57.3934ZM176.886 38.2041C176.902 38.0933 176.892 37.9802 176.857 37.8739C176.822 37.7675 176.762 37.6709 176.683 37.5917C176.604 37.5125 176.507 37.453 176.401 37.4178C176.295 37.3826 176.182 37.3728 176.071 37.3891H172.588C172.477 37.3728 172.364 37.3826 172.258 37.4178C172.152 37.453 172.055 37.5125 171.976 37.5917C171.897 37.6709 171.837 37.7675 171.802 37.8739C171.767 37.9802 171.757 38.0933 171.773 38.2041V38.9899H176.866L176.886 38.2041ZM171.793 42.0846C171.777 42.1958 171.787 42.3091 171.822 42.4157C171.857 42.5223 171.916 42.6194 171.995 42.6993C172.074 42.7791 172.171 42.8396 172.277 42.8761C172.383 42.9125 172.496 42.9238 172.607 42.9092H176.886V41.3473H171.793V42.0846Z" fill="#232323"/>
<path d="M208.765 58.9651H211.724C211.967 58.9661 212.201 58.876 212.381 58.7125C212.56 58.5491 212.672 58.3242 212.694 58.0823C212.918 57.0696 213.025 56.0345 213.014 54.9973C213.014 54.3667 213.247 54.1727 213.577 54.4055L216.089 56.2682C216.261 56.3972 216.391 56.573 216.465 56.7743C216.539 56.9756 216.553 57.1939 216.506 57.4032C216.483 58.7236 216.09 60.011 215.371 61.1189C214.978 61.6227 214.462 62.0174 213.873 62.2653C213.283 62.5132 212.64 62.6062 212.005 62.5353H208.124C206.301 62.5353 205.059 62.186 204.409 61.4972C203.759 60.8084 203.439 59.5569 203.439 57.7234V50.1272L200.043 50.3115C199.908 51.758 199.645 53.1897 199.257 54.5898C198.894 55.8175 198.352 56.9846 197.647 58.0532C196.85 59.2288 195.811 60.221 194.601 60.9636C193.583 61.682 192.456 62.2323 191.263 62.5935C191.072 62.6947 190.863 62.7565 190.648 62.7751C190.432 62.7937 190.215 62.7687 190.01 62.7017C189.804 62.6347 189.615 62.5271 189.452 62.3851C189.289 62.2432 189.156 62.0699 189.061 61.8756L188.751 61.3032C187.848 60.2166 187.984 59.4502 189.158 59.0137L191.389 58.1308C192.37 57.616 193.227 56.8944 193.902 56.0159C194.48 55.2678 194.929 54.4284 195.231 53.5324L195.852 50.4861L191.137 51.0197C190.924 51.0779 190.778 50.913 190.701 50.5152L190.148 47.857C190.103 47.6814 190.119 47.4957 190.193 47.3303C190.267 47.1648 190.395 47.0291 190.555 46.9451C190.555 47.0906 190.914 46.7705 191.758 45.975C193.075 44.7778 194.265 43.4481 195.309 42.0071H188.692C188.275 42.0071 188.091 41.8131 188.159 41.4056L188.634 38.9899C188.64 38.9027 188.664 38.8176 188.704 38.7397C188.743 38.6618 188.798 38.5926 188.865 38.5365C188.932 38.4803 189.01 38.4383 189.094 38.4128C189.177 38.3874 189.265 38.3791 189.352 38.3885H200.819L199.044 34.925C198.85 34.5758 198.966 34.3818 199.393 34.3624L202.304 34.0519C202.496 34.0278 202.692 34.0621 202.865 34.1503C203.038 34.2385 203.18 34.3766 203.274 34.5467L204.098 35.934C204.7 37.0303 204.409 37.7482 203.215 38.1071L202.304 38.3885H214.915C215.333 38.3885 215.517 38.5922 215.449 38.9899L214.983 41.4056C214.977 41.4937 214.954 41.5798 214.913 41.6584C214.873 41.737 214.817 41.8066 214.749 41.8629C214.681 41.9192 214.602 41.961 214.517 41.9858C214.432 42.0106 214.343 42.0178 214.256 42.0071H200.334L196.454 46.2854C196.095 46.6832 196.192 46.8869 196.735 46.8869L207.407 46.5085L205.146 44.3063C204.855 44.0056 204.904 43.8018 205.301 43.6757L207.911 42.822C208.131 42.7674 208.362 42.7737 208.579 42.8404C208.797 42.907 208.991 43.0315 209.143 43.2004C211.449 45.0535 213.489 47.2145 215.206 49.6227C215.4 49.8555 215.303 50.0398 214.925 50.1854L212.257 51.3495C212.09 51.4326 211.897 51.4498 211.717 51.3977C211.538 51.3456 211.384 51.228 211.287 51.0682L210.375 49.807L207.465 49.9331V57.607C207.422 57.9992 207.5 58.3952 207.688 58.742C208.009 58.9412 208.391 59.0203 208.765 58.9651V58.9651Z" fill="#232323"/>
<path d="M226.761 41.2212C226.65 41.2053 226.536 41.2153 226.43 41.2505C226.323 41.2856 226.226 41.345 226.146 41.4239C226.066 41.5029 226.006 41.5992 225.969 41.7054C225.933 41.8116 225.922 41.9248 225.936 42.0361V44.4906C225.936 44.9077 225.742 45.0921 225.344 45.0242L223.239 44.5585C223.151 44.5526 223.065 44.5287 222.986 44.4884C222.908 44.4481 222.838 44.3922 222.782 44.3241C222.726 44.256 222.684 44.1772 222.659 44.0924C222.634 44.0076 222.627 43.9186 222.638 43.8309V40.2414C222.61 40.0366 222.631 39.8282 222.697 39.6326C222.764 39.4369 222.874 39.2593 223.021 39.1137C223.168 38.968 223.346 38.8583 223.542 38.7931C223.738 38.7278 223.947 38.7089 224.151 38.7376H234.493V37.5444H225.403C224.985 37.5444 224.821 37.3406 224.898 36.9429L225.315 35.3713C225.337 35.1936 225.428 35.0314 225.567 34.9191C225.706 34.8069 225.884 34.7533 226.062 34.7698H247.328C247.755 34.7698 247.92 34.9735 247.832 35.3713L247.386 36.9429C247.362 37.1214 247.27 37.2836 247.129 37.3957C246.988 37.5077 246.809 37.561 246.629 37.5444H238.111V38.7376H248.744C248.952 38.7021 249.165 38.716 249.366 38.7782C249.567 38.8404 249.751 38.9491 249.902 39.0956C250.053 39.2421 250.168 39.4222 250.236 39.6213C250.305 39.8204 250.325 40.0328 250.296 40.2414V44.4906C250.296 44.9077 250.093 45.0921 249.695 45.0242L247.386 44.5585C247.298 44.5512 247.213 44.5265 247.135 44.4858C247.057 44.4451 246.988 44.3892 246.932 44.3214C246.876 44.2536 246.834 44.1753 246.809 44.091C246.783 44.0068 246.775 43.9184 246.785 43.8309V42.0361C246.801 41.9253 246.791 41.8123 246.756 41.7059C246.721 41.5996 246.661 41.503 246.582 41.4238C246.503 41.3446 246.406 41.2851 246.3 41.2499C246.193 41.2147 246.08 41.2049 245.97 41.2212H238.141V47.1391C238.141 47.5562 237.937 47.7309 237.539 47.6726L235.085 47.1973C234.997 47.1913 234.91 47.1675 234.832 47.1272C234.753 47.0869 234.684 47.031 234.627 46.9629C234.571 46.8948 234.529 46.8159 234.504 46.7311C234.48 46.6463 234.472 46.5574 234.483 46.4697V41.2212H226.761ZM238.306 59.877L246.067 60.1002C246.351 60.1397 246.641 60.1081 246.91 60.0082C247.179 59.9084 247.419 59.7433 247.609 59.5278C247.898 59.0194 248.049 58.444 248.046 57.8591C248.114 57.2576 248.308 57.0636 248.647 57.2965L250.587 58.6838C250.755 58.8053 250.879 58.9773 250.942 59.1745C251.005 59.3718 251.003 59.5839 250.937 59.78C250.916 60.1938 250.813 60.5993 250.633 60.9725C250.453 61.3457 250.2 61.6792 249.889 61.9531C249.249 62.6225 248.065 62.9233 246.367 62.9233H239.761C237.607 62.9233 236.152 62.6225 235.395 62.0404C234.638 61.4584 234.26 60.3621 234.26 58.7032L229.041 58.6061V59.3629C229.041 59.78 228.837 59.9643 228.439 59.8964L226.082 59.4308C225.994 59.4235 225.909 59.3988 225.831 59.3581C225.753 59.3173 225.684 59.2614 225.628 59.1936C225.572 59.1258 225.53 59.0475 225.504 58.9633C225.479 58.8791 225.471 58.7906 225.48 58.7032V50.1271C225.448 49.9193 225.466 49.7069 225.532 49.5072C225.598 49.3076 225.71 49.1265 225.86 48.9788C226.01 48.8311 226.192 48.721 226.393 48.6575C226.593 48.594 226.806 48.579 227.013 48.6137H245.785C245.991 48.5846 246.2 48.6036 246.397 48.6694C246.594 48.7351 246.773 48.8458 246.92 48.9926C247.067 49.1394 247.177 49.3183 247.243 49.5152C247.309 49.7121 247.328 49.9216 247.299 50.1271V57.1412C247.328 57.3464 247.309 57.5557 247.244 57.7523C247.178 57.9489 247.067 58.1274 246.92 58.2735C246.773 58.4196 246.594 58.5293 246.397 58.5938C246.2 58.6583 245.99 58.6758 245.785 58.6449H237.898C237.898 59.2949 238.034 59.7121 238.306 59.877V59.877ZM227.197 47.4495C226.78 47.4495 226.635 47.2458 226.761 46.848L227.042 46.004C227.085 45.8237 227.191 45.6645 227.34 45.5545C227.489 45.4444 227.672 45.3906 227.857 45.4025H232.708C233.125 45.4025 233.27 45.6062 233.144 46.004L232.863 46.848C232.82 47.0283 232.715 47.1875 232.565 47.2976C232.416 47.4076 232.233 47.4615 232.048 47.4495H227.197ZM232.737 42.2884C233.154 42.2884 233.3 42.4921 233.173 42.8899L232.892 43.7048C232.849 43.885 232.744 44.0443 232.595 44.1543C232.445 44.2644 232.262 44.3182 232.077 44.3063H227.799C227.372 44.3063 227.227 44.1025 227.353 43.7048L227.634 42.8899C227.677 42.7078 227.784 42.5473 227.935 42.437C228.086 42.3267 228.272 42.274 228.459 42.2884H232.737ZM234.309 51.1264H229.923C229.812 51.1117 229.699 51.1231 229.593 51.1595C229.487 51.196 229.39 51.2565 229.311 51.3363C229.232 51.4162 229.173 51.5132 229.138 51.6199C229.103 51.7265 229.093 51.8398 229.109 51.951V52.5137H234.328L234.309 51.1264ZM229.089 56.1323H234.309V54.7838H229.089V56.1323ZM243.641 52.5137V51.951C243.656 51.8393 243.644 51.7258 243.608 51.6193C243.571 51.5128 243.511 51.416 243.431 51.3364C243.352 51.2568 243.255 51.1965 243.148 51.1601C243.042 51.1236 242.928 51.1121 242.817 51.1264H237.966V52.5137H243.641ZM237.947 56.1323H242.797C242.908 56.1482 243.022 56.1382 243.128 56.103C243.235 56.0679 243.332 56.0085 243.412 55.9296C243.492 55.8506 243.552 55.7543 243.589 55.6481C243.625 55.5419 243.636 55.4287 243.622 55.3174V54.7838H237.927L237.947 56.1323ZM239.576 43.7048L239.858 42.8899C239.901 42.7078 240.008 42.5473 240.159 42.437C240.31 42.3267 240.496 42.274 240.682 42.2884H244.922C245.329 42.2884 245.465 42.4921 245.339 42.8899L245.048 43.7048C245.005 43.885 244.899 44.0443 244.75 44.1543C244.601 44.2644 244.418 44.3182 244.233 44.3063H240.023C239.547 44.3063 239.402 44.1025 239.528 43.7048H239.576ZM240.023 47.4495C239.596 47.4495 239.45 47.2458 239.576 46.848L239.858 46.004C239.901 45.822 240.008 45.6614 240.159 45.5512C240.31 45.4409 240.496 45.3882 240.682 45.4025H245.62C246.038 45.4025 246.183 45.6062 246.057 46.004L245.776 46.848C245.733 47.0283 245.627 47.1875 245.478 47.2976C245.329 47.4076 245.146 47.4615 244.961 47.4495H240.023Z" fill="#232323"/>
<path d="M285.551 47.7018L285.086 49.8361C285.08 49.9243 285.056 50.0103 285.016 50.0889C284.975 50.1676 284.919 50.2372 284.851 50.2934C284.783 50.3497 284.704 50.3916 284.62 50.4163C284.535 50.4411 284.446 50.4484 284.358 50.4376H278.101C280.434 52.2273 283.108 53.5214 285.959 54.2406C286.424 54.3473 286.521 54.5607 286.24 54.8712L284.416 56.9473C284.296 57.0983 284.128 57.205 283.94 57.2507C283.752 57.2963 283.555 57.2783 283.378 57.1995V61.5457C283.411 61.7511 283.395 61.9614 283.332 62.1594C283.268 62.3574 283.158 62.5376 283.012 62.6851C282.865 62.8327 282.685 62.9435 282.488 63.0085C282.29 63.0735 282.08 63.0909 281.875 63.0592H273.851C273.646 63.09 273.437 63.0725 273.24 63.008C273.043 62.9435 272.864 62.8338 272.717 62.6877C272.57 62.5416 272.459 62.3631 272.393 62.1665C272.327 61.9699 272.308 61.7606 272.338 61.5555V55.1913C272.309 54.9858 272.328 54.7763 272.394 54.5794C272.459 54.3825 272.57 54.2036 272.717 54.0568C272.864 53.91 273.043 53.7993 273.24 53.7336C273.436 53.6678 273.646 53.6488 273.851 53.6779H276.762L273.289 50.4473H267.934L264.286 53.6876H267.934C268.139 53.6585 268.349 53.6775 268.546 53.7433C268.742 53.809 268.921 53.9197 269.068 54.0665C269.215 54.2133 269.326 54.3922 269.391 54.5891C269.457 54.786 269.476 54.9955 269.447 55.201V61.5555C269.477 61.7606 269.458 61.9699 269.392 62.1665C269.326 62.3631 269.215 62.5416 269.068 62.6877C268.921 62.8338 268.742 62.9435 268.545 63.008C268.348 63.0725 268.139 63.09 267.934 63.0592H260.328C260.123 63.09 259.913 63.0725 259.716 63.008C259.519 62.9435 259.34 62.8338 259.193 62.6877C259.046 62.5416 258.935 62.3631 258.869 62.1665C258.804 61.9699 258.785 61.7606 258.814 61.5555V56.8212L258.184 57.1025C258.115 57.151 258.036 57.1816 257.952 57.1917C257.869 57.2017 257.785 57.1908 257.707 57.16C257.629 57.1292 257.56 57.0794 257.506 57.0152C257.452 56.9509 257.415 56.8742 257.398 56.7921L256.428 54.6868C256.389 54.6097 256.368 54.5247 256.366 54.4382C256.365 54.3518 256.383 54.2661 256.419 54.1877C256.456 54.1093 256.51 54.0402 256.577 53.9855C256.643 53.9308 256.722 53.892 256.806 53.8719C258.965 53.0505 260.982 51.8948 262.782 50.4473H257.019C256.602 50.4473 256.418 50.2533 256.486 49.8458L256.961 47.7115C256.967 47.6243 256.991 47.5392 257.031 47.4613C257.07 47.3833 257.125 47.3142 257.192 47.2581C257.259 47.2019 257.337 47.1599 257.421 47.1344C257.504 47.109 257.592 47.1007 257.679 47.11H266.11L267.875 44.3451H260.328C260.122 44.3743 259.913 44.3552 259.716 44.2895C259.519 44.2237 259.34 44.1131 259.193 43.9663C259.046 43.8195 258.936 43.6406 258.87 43.4437C258.804 43.2468 258.785 43.0373 258.814 42.8317V36.5064C258.785 36.3009 258.804 36.0914 258.87 35.8945C258.936 35.6976 259.046 35.5186 259.193 35.3719C259.34 35.2251 259.519 35.1144 259.716 35.0487C259.913 34.9829 260.122 34.9639 260.328 34.993H267.904C268.11 34.9639 268.32 34.9829 268.516 35.0487C268.713 35.1144 268.892 35.2251 269.039 35.3719C269.186 35.5186 269.296 35.6976 269.362 35.8945C269.428 36.0914 269.447 36.3009 269.418 36.5064V44.1511L270.01 44.2772C271.251 44.5004 271.562 45.1601 270.98 46.2175L270.504 47.0615H277.645L276.073 46.2757C274.957 45.713 274.802 45.0533 275.598 44.3354H273.803C273.598 44.3629 273.39 44.3426 273.194 44.2761C272.998 44.2096 272.821 44.0987 272.675 43.9522C272.53 43.8056 272.42 43.6273 272.355 43.4312C272.289 43.2351 272.27 43.0266 272.299 42.822V36.5064C272.27 36.3018 272.289 36.0933 272.355 35.8972C272.42 35.7012 272.53 35.5229 272.675 35.3763C272.821 35.2297 272.998 35.1188 273.194 35.0523C273.39 34.9858 273.598 34.9655 273.803 34.993H281.865C282.07 34.9655 282.278 34.9858 282.474 35.0523C282.669 35.1188 282.847 35.2297 282.993 35.3763C283.138 35.5229 283.248 35.7012 283.313 35.8972C283.378 36.0933 283.397 36.3018 283.369 36.5064V42.822C283.397 43.0266 283.378 43.2351 283.313 43.4312C283.248 43.6273 283.138 43.8056 282.993 43.9522C282.847 44.0987 282.669 44.2096 282.474 44.2761C282.278 44.3426 282.07 44.3629 281.865 44.3354H278.081L279.566 45.1892C280.652 45.7907 280.856 46.431 280.157 47.1295H285.008C285.435 47.1003 285.619 47.3041 285.551 47.7018ZM265.013 41.0952C265.557 41.0952 265.828 40.8332 265.828 40.3094V39.0191C265.845 38.9083 265.835 38.7952 265.8 38.6889C265.765 38.5826 265.705 38.4859 265.626 38.4067C265.547 38.3276 265.45 38.268 265.344 38.2328C265.237 38.1976 265.124 38.1878 265.013 38.2042H263.025C262.481 38.2042 262.21 38.4661 262.21 38.99V40.2803C262.193 40.391 262.203 40.5041 262.238 40.6104C262.274 40.7168 262.333 40.8134 262.412 40.8926C262.492 40.9718 262.588 41.0313 262.694 41.0665C262.801 41.1017 262.914 41.1115 263.025 41.0952H265.013ZM265.013 59.751C265.125 59.7669 265.238 59.7569 265.345 59.7217C265.451 59.6866 265.548 59.6272 265.628 59.5483C265.708 59.4693 265.768 59.373 265.805 59.2668C265.841 59.1606 265.853 59.0474 265.838 58.9361V57.7719C265.854 57.6598 265.844 57.5455 265.809 57.438C265.773 57.3306 265.713 57.2329 265.633 57.1528C265.552 57.0728 265.455 57.0125 265.347 56.9768C265.24 56.9411 265.126 56.931 265.013 56.9473H262.346V58.8876C262.329 58.9984 262.339 59.1114 262.374 59.2178C262.409 59.3241 262.469 59.4207 262.548 59.4999C262.627 59.5791 262.724 59.6386 262.83 59.6738C262.937 59.709 263.05 59.7188 263.161 59.7025L265.013 59.751ZM276.655 38.2042C276.112 38.2042 275.84 38.4661 275.84 38.99V40.2803C275.824 40.391 275.834 40.5041 275.869 40.6104C275.904 40.7168 275.964 40.8134 276.043 40.8926C276.122 40.9718 276.219 41.0313 276.325 41.0665C276.431 41.1017 276.544 41.1115 276.655 41.0952H278.916C279.469 41.0952 279.74 40.8332 279.74 40.3094V39.0191C279.755 38.9077 279.743 38.7945 279.707 38.6883C279.671 38.5821 279.61 38.4858 279.53 38.4069C279.45 38.3279 279.353 38.2686 279.247 38.2334C279.14 38.1982 279.027 38.1882 278.916 38.2042H276.655ZM275.869 58.9361C275.853 59.0469 275.863 59.1599 275.898 59.2663C275.933 59.3726 275.993 59.4692 276.072 59.5484C276.151 59.6276 276.248 59.6871 276.354 59.7223C276.46 59.7575 276.573 59.7673 276.684 59.751H278.916C279.027 59.7669 279.14 59.7569 279.247 59.7217C279.353 59.6866 279.45 59.6272 279.53 59.5483C279.61 59.4693 279.671 59.373 279.707 59.2668C279.743 59.1606 279.755 59.0474 279.74 58.9361V56.9958H276.684C276.573 56.9812 276.46 56.9925 276.354 57.029C276.247 57.0654 276.151 57.1259 276.072 57.2058C275.993 57.2856 275.934 57.3827 275.899 57.4893C275.863 57.5959 275.853 57.7093 275.869 57.8204V58.9361Z" fill="#232323"/>
</svg>
