<svg width="230" height="24" viewBox="0 0 230 24" fill="none" xmlns="http://www.w3.org/2000/svg">
<g clip-path="url(#clip0_1_218)">
<path d="M15.2047 6.10245L23.8887 3.82001V20.2039L15.2047 17.8975V6.10245Z" fill="#C40D23"/>
<path d="M0.727264 0L15.2047 6.10245V17.8975L0.727264 24V0Z" fill="#F80B28"/>
<path d="M38.3208 16.9194H40.3123C41.2881 16.9466 42.2637 16.8572 43.218 16.6531V18.3881C42.2635 18.1855 41.2881 18.0962 40.3123 18.1219H38.3208V21.8821C38.3148 22.153 38.3725 22.4217 38.4893 22.6667C38.606 22.9118 38.7787 23.1266 38.9937 23.294H35.5237C35.7392 23.127 35.9123 22.9124 36.0291 22.6672C36.1459 22.422 36.2033 22.1532 36.1966 21.8821V18.1219H33.8551C32.8793 18.0965 31.9039 18.1858 30.9493 18.3881V16.6531C31.9037 16.8569 32.8792 16.9463 33.8551 16.9194H36.1966V14.2809H34.3137C33.3379 14.2552 32.3625 14.3446 31.408 14.5472V12.9737C32.3625 13.1763 33.3379 13.2656 34.3137 13.2399H39.6122C40.588 13.2656 41.5635 13.1763 42.518 12.9737V14.5472C41.5635 14.3446 40.588 14.2552 39.6122 14.2809H38.3208V16.9194ZM34.2202 8.94727C33.2444 8.92035 32.2688 9.00973 31.3145 9.2135V7.58618C32.269 7.78849 33.2444 7.87785 34.2202 7.85242H36.2117V5.34562H34.5823C33.6065 5.3199 32.6311 5.40928 31.6765 5.61186V3.88881C32.6307 4.09393 33.6063 4.18433 34.5823 4.15804H36.1966V2.66234C36.2028 2.39134 36.1453 2.12262 36.0284 1.87753C35.9116 1.63244 35.7388 1.41771 35.5237 1.2504H38.9937C38.7791 1.41818 38.6066 1.633 38.4899 1.87798C38.3731 2.12297 38.3153 2.39144 38.3208 2.66234V4.15804H39.5881C40.5631 4.1842 41.5377 4.09381 42.4908 3.88881V5.62382C41.5373 5.42139 40.5629 5.33202 39.5881 5.35759H38.3208V7.86438H40.0437C41.0209 7.87987 41.9964 7.77945 42.9495 7.56524V9.19256C41.994 8.99814 41.0185 8.9178 40.0437 8.95325L34.2202 8.94727ZM34.0874 9.29128C35.0623 10.0219 35.9465 10.8643 36.7216 11.8011L35.1616 12.8929C34.6127 11.8185 33.9491 10.8056 33.1822 9.87161L34.0874 9.29128ZM37.841 12.2258C38.4548 11.2801 39.0023 10.2936 39.4795 9.27333L41.2265 10.2066C40.473 11.1586 39.6159 12.0254 38.6708 12.7912L37.841 12.2258ZM51.7783 18.5736C53.0155 19.6684 54.7354 20.5479 55.9483 21.0804L54.0112 23.0547C52.8042 22.4564 51.6154 21.2958 50.5382 20.0154C49.2696 21.1976 47.8048 22.1539 46.2082 22.8423V23.294H43.4111C43.6257 23.1264 43.7979 22.9115 43.9142 22.6665C44.0305 22.4214 44.0876 22.1528 44.081 21.8821V5.42938C44.081 4.4153 44.081 3.05421 43.7792 1.96235C45.4759 2.3293 47.2085 2.50789 48.945 2.49482C50.6897 2.50824 52.4304 2.32864 54.1349 1.95936C53.8963 3.00803 53.7949 4.08281 53.8332 5.15717V7.55029C53.8332 8.10968 53.4831 8.37591 52.7288 8.37591C51.9745 8.37591 49.6088 7.89729 48.1032 7.55029L47.8014 6.67081C48.8756 6.74859 49.9136 6.80243 51.0029 6.80243C51.5128 6.80243 51.7029 6.64389 51.7029 6.24304V3.63753H46.2052V10.5716H52.0227C52.2098 10.3323 52.3999 10.093 52.6262 9.85366C53.2991 10.1528 54.0263 10.5207 54.6961 10.8917C54.2405 14.1822 53.1362 16.9194 51.8176 18.5467L51.7783 18.5736ZM46.2052 22.0406C47.539 21.1494 48.6932 20.0192 49.6088 18.7082C48.4924 16.8954 47.9282 14.3587 47.6294 11.6665H46.2052V22.0406ZM48.4381 11.6665C48.8153 13.6408 49.4881 15.7198 50.5503 17.1617C51.3046 15.6929 51.8417 13.572 52.0318 11.6665H48.4381Z" fill="black"/>
<path d="M77.9451 17.1078H80.1779C81.1537 17.1335 82.1291 17.0442 83.0837 16.8416V18.5736C82.1287 18.3736 81.1536 18.2843 80.1779 18.3074H77.9451V22.2291C77.9451 22.9231 77.4894 23.321 76.5208 23.321C75.4436 23.321 72.6465 22.9231 70.8693 22.5492L70.5223 21.5381C71.9465 21.6458 73.4793 21.7235 74.7466 21.7235C75.3501 21.7235 75.5824 21.4842 75.5824 21.0325V18.3074H66.4036C67.8937 18.908 69.3413 19.6076 70.7365 20.4013L68.9865 22.0825C67.6396 20.6784 66.1525 19.4135 64.5479 18.3074H62.134C61.1583 18.2843 60.1832 18.3736 59.2282 18.5736V16.8416C60.1828 17.0442 61.1582 17.1335 62.134 17.1078H75.5855V15.3728C70.7577 15.3459 67.2183 15.1604 63.3711 13.1053C62.4383 14.3623 61.19 15.3554 59.7503 15.986L58.3773 14.1733C59.9403 13.8532 61.3947 13.3476 62.3331 12.6536V8.86651C61.1804 8.83662 60.0275 8.91676 58.8903 9.10582V7.55927C59.8635 7.76269 60.8558 7.86297 61.8503 7.85841C62.8078 7.87257 63.7639 7.78329 64.7018 7.59218C64.4982 8.62894 64.3972 9.68291 64.4 10.7391V12.8181C67.1157 13.9668 70.5072 14.0715 74.3001 14.0715C77.9209 14.0715 81.5629 13.913 83.5272 13.5929L82.3957 15.1933C80.9715 15.2741 79.4115 15.3249 77.93 15.3519L77.9451 17.1078ZM62.7465 5.8781C61.6772 4.52302 60.4887 3.26469 59.1951 2.11791L60.1365 1.23844C61.7429 2.08196 63.2593 3.08418 64.6625 4.22984L62.7465 5.8781ZM68.045 4.3824C67.0693 4.35942 66.0942 4.44876 65.1393 4.64864V2.9914C66.0936 3.19517 67.0692 3.28456 68.045 3.25764H70.305C69.4722 2.59055 68.5308 1.95339 67.8308 1.4628L68.4765 0.664093C69.8465 1.11836 71.1708 1.6982 72.4323 2.39611L71.3551 3.24866H75.1751C75.6066 2.44996 75.9807 1.62134 76.3579 0.768792L79.8551 1.72903C78.7671 2.30355 77.6446 2.81106 76.4937 3.24866H79.9637C80.9395 3.27587 81.9151 3.18649 82.8694 2.98243V4.63667C81.9145 4.43666 80.9394 4.34732 79.9637 4.37044H75.498C74.7175 4.82314 73.937 5.24991 73.1565 5.65076H80.9051V12.7075H67.4114V5.66571H72.2392C72.375 5.23794 72.5077 4.81316 72.6164 4.38539L68.045 4.3824ZM78.7266 7.74174V6.54519H69.5779V7.74174H78.7266ZM69.5779 8.46566V9.74598H78.7266V8.46566H69.5779ZM69.5779 11.825H78.7266V10.4699H69.5779V11.825Z" fill="black"/>
<path d="M107.923 8.75881C108.898 8.78438 109.872 8.69501 110.825 8.49258V10.2276C109.872 10.0252 108.898 9.93484 107.923 9.95836H101.466C99.8574 10.9956 98.1541 11.88 96.3782 12.5998H107.193V21.8552C107.183 22.1305 107.239 22.4043 107.355 22.6543C107.472 22.9043 107.647 23.1235 107.865 23.294H104.29C104.505 23.1393 104.679 22.9346 104.797 22.6979C104.914 22.4612 104.971 22.1996 104.963 21.9359H94.0126C94.0039 22.1996 94.0607 22.4614 94.178 22.6983C94.2954 22.9351 94.4696 23.1397 94.6855 23.294H91.1069C91.3247 23.123 91.499 22.9038 91.6158 22.6539C91.7327 22.404 91.7888 22.1304 91.7797 21.8552V14.2809C89.8864 14.9167 87.9544 15.4332 85.9954 15.8275L85.3919 14.9749C90.0719 13.8801 94.2691 12.3066 98.1977 9.95836H89.0339C88.059 9.93484 87.0848 10.0252 86.1312 10.2276V8.49258C87.0847 8.69501 88.0591 8.78438 89.0339 8.75881H96.1097V5.61186H92.0754C91.0997 5.58874 90.1246 5.67808 89.1697 5.87809V4.14607C90.1242 4.34866 91.0996 4.43803 92.0754 4.41231H96.1097V2.65037C96.116 2.37966 96.0588 2.11118 95.9426 1.86614C95.8263 1.6211 95.6542 1.40621 95.4398 1.23843H99.0607C98.8461 1.40622 98.6736 1.62104 98.5569 1.86602C98.4401 2.111 98.3823 2.37948 98.3878 2.65037V4.41231H104.827C105.645 3.45632 106.4 2.44913 107.087 1.39698L109.265 2.51875C107.469 4.86839 105.361 6.96729 102.998 8.75881H107.923ZM104.963 16.5993V13.7993H93.9855V16.5993H104.963ZM94.0126 20.7334H104.963V17.6941H94.0126V20.7334ZM98.3969 5.61186V8.75881H100.065C101.4 7.83725 102.635 6.78278 103.753 5.61186H98.3969Z" fill="black"/>
<path d="M123.809 8.53745C123.648 8.36827 123.458 8.22853 123.248 8.12464C122.716 7.87419 122.131 7.75513 121.543 7.77764H120.557V12.0733C120.557 16.36 120.62 16.4198 120.949 17.0091L121.088 17.2574C121.088 17.2574 120.665 17.2305 119.681 17.2305C118.698 17.2305 118.242 17.2574 118.242 17.2574L118.381 17.0091C118.683 16.4497 118.773 16.345 118.773 11.9237V7.77764H117.802C117.213 7.757 116.628 7.87812 116.097 8.13062C115.887 8.23419 115.697 8.37397 115.536 8.54343C115.569 8.22043 115.584 7.89587 115.581 7.57123C115.581 7.01184 115.581 6.76056 115.581 6.76056H123.809C123.809 6.76056 123.794 7.01184 123.794 7.57123C123.781 7.89334 123.787 8.21589 123.809 8.53745Z" fill="black"/>
<path d="M133.601 17.2305C132.599 17.2305 132.161 17.2574 132.161 17.2574L132.303 17.0091C132.605 16.4647 132.692 16.3301 132.692 12.4412H127.783C127.783 16.3301 127.843 16.4348 128.172 17.0091L128.314 17.2574C128.314 17.2574 127.892 17.2305 126.905 17.2305C125.918 17.2305 125.466 17.2574 125.466 17.2574L125.608 17.0091C125.909 16.4497 126 16.345 126 11.9237C126 7.63704 125.936 7.57722 125.608 6.98791L125.466 6.73663C125.466 6.73663 125.873 6.76655 126.89 6.76655C127.907 6.76655 128.314 6.73663 128.314 6.73663L128.172 6.98791C127.871 7.51739 127.783 7.652 127.783 11.2297H132.692C132.692 7.68192 132.614 7.5473 132.303 6.98791L132.161 6.73663C132.161 6.73663 132.569 6.76655 133.586 6.76655C134.602 6.76655 135.01 6.73663 135.01 6.73663L134.868 6.98791C134.566 7.5473 134.476 7.652 134.476 12.0733C134.476 16.36 134.539 16.4198 134.868 17.0091L135.01 17.2574C135.01 17.2574 134.602 17.2305 133.601 17.2305Z" fill="black"/>
<path d="M144.379 16.7877L144.355 17.2454H138.833C137.988 17.2454 137.626 17.2454 137.626 17.2454L137.768 16.9971C138.069 16.4377 138.157 16.333 138.157 11.9118C138.157 7.62508 138.097 7.56525 137.768 6.97595L137.626 6.72467C137.626 6.72467 137.97 6.72467 138.815 6.72467H144.195C144.195 6.72467 144.18 6.97595 144.18 7.53534C144.176 7.8551 144.192 8.17477 144.228 8.49259C144.06 8.33378 143.87 8.19978 143.664 8.09473C143.124 7.85395 142.535 7.74324 141.944 7.77166H139.94V11.469H141.567C142.155 11.5087 142.744 11.4135 143.289 11.1908C143.494 11.0901 143.683 10.9612 143.851 10.8079C143.851 10.8079 143.805 11.2327 143.805 12.0045C143.805 12.7763 143.851 13.1562 143.851 13.1831C143.685 13.0225 143.496 12.8883 143.289 12.7852C142.744 12.5625 142.155 12.4674 141.567 12.507H139.94V16.1984H141.787C143.727 16.1984 143.977 15.7707 144.557 14.975C144.551 14.975 144.472 15.5194 144.379 16.7877Z" fill="black"/>
<path d="M158.627 17.2873C157.516 17.2873 157.094 16.8476 156.343 15.7258L155.278 14.1344C154.354 12.7643 154.182 12.4712 153.401 12.4712C153.312 12.4707 153.223 12.4757 153.135 12.4861C153.135 16.1984 153.199 16.4048 153.527 16.9732L153.666 17.2245C153.666 17.2245 153.262 17.1946 152.275 17.1946C151.289 17.1946 150.866 17.2245 150.866 17.2245L151.008 16.9732C151.31 16.4288 151.4 16.3091 151.4 11.8878C151.4 7.60116 151.337 7.54133 151.008 6.95202L150.866 6.70374C150.866 6.70374 151.352 6.73066 152.04 6.73066C152.511 6.73066 153.371 6.70374 153.917 6.70374C155.857 6.70374 158.235 6.83536 158.235 9.36907C158.235 10.7391 157.359 12.181 154.84 12.169C156.137 12.3306 156.623 12.9617 157.423 14.2151L158.189 15.4685C158.705 16.3061 159.094 16.8655 159.722 17.1318C159.722 17.1407 159.487 17.2873 158.627 17.2873ZM153.871 7.68491C153.464 7.68491 153.135 7.71184 153.135 7.71184V11.5139C153.135 11.5139 153.416 11.5139 153.995 11.5139C154.2 11.5139 154.653 11.484 154.918 11.4541C155.7 11.3225 156.343 10.7182 156.343 9.55454C156.343 7.88833 155.278 7.68491 153.871 7.68491Z" fill="black"/>
<path d="M167.932 16.7518L167.902 17.2095H162.38C161.536 17.2095 161.173 17.2245 161.173 17.2245L161.312 16.9732C161.614 16.4138 161.705 16.3091 161.705 11.8878C161.705 7.60116 161.641 7.54133 161.312 6.95202L161.173 6.70374C161.173 6.70374 161.517 6.70374 162.359 6.70374H167.742C167.742 6.70374 167.742 6.95501 167.742 7.51441C167.739 7.83408 167.754 8.15369 167.788 8.47165C167.622 8.31072 167.431 8.17648 167.223 8.0738C166.684 7.83268 166.094 7.72196 165.503 7.75073H163.503V11.4391H165.129C165.716 11.4789 166.305 11.3837 166.849 11.1609C167.051 11.0571 167.237 10.9251 167.401 10.769C167.401 10.769 167.353 11.1938 167.353 11.9656C167.353 12.7374 167.401 13.1143 167.401 13.1442C167.235 12.9831 167.045 12.8488 166.837 12.7464C166.293 12.5224 165.705 12.4261 165.117 12.4652H163.491V16.1685H165.334C167.275 16.1685 167.525 15.7408 168.104 14.945C168.104 14.957 168.026 15.4925 167.932 16.7518Z" fill="black"/>
<path d="M173.813 13.0904C173.452 13.0901 173.091 13.0652 172.733 13.0156C172.733 16.1237 172.796 16.3899 173.14 16.9792L173.282 17.2305C173.282 17.2305 172.875 17.2006 171.858 17.2006C170.841 17.2006 170.434 17.2305 170.434 17.2305L170.576 16.9792C170.877 16.4348 170.965 16.3151 170.965 11.8938C170.965 7.60714 170.905 7.54731 170.576 6.958L170.434 6.70972C170.434 6.70972 170.871 6.73664 171.592 6.73664C172.247 6.73664 173.101 6.70972 173.563 6.70972C175.096 6.70972 177.911 6.81142 177.911 9.80282C177.911 12.6327 175.548 13.0904 173.813 13.0904ZM173.548 7.68491C173.077 7.68491 172.733 7.71184 172.733 7.71184V12.0733C173.033 12.113 173.336 12.128 173.638 12.1182C175.904 12.1182 176.001 10.6225 176.001 9.79086C176.004 7.91824 174.595 7.68491 173.548 7.68491Z" fill="black"/>
<path d="M184.73 17.392C181.492 17.392 179.724 15.3578 179.724 12.2049C179.724 10.6284 180.192 6.608 184.745 6.608C187.998 6.608 189.766 8.64215 189.766 11.7921C189.766 13.3686 189.295 17.392 184.73 17.392ZM184.73 7.68491C183.071 7.68491 181.68 8.80369 181.68 12.0434C181.68 15.2831 183.04 16.3151 184.745 16.3151C186.402 16.3151 187.805 15.1963 187.805 11.9656C187.805 8.73489 186.435 7.68491 184.73 7.68491Z" fill="black"/>
<path d="M199.621 17.2873C198.508 17.2873 198.085 16.8476 197.337 15.7258L196.272 14.1344C195.348 12.7643 195.176 12.4712 194.395 12.4712C194.306 12.4707 194.217 12.4757 194.129 12.4861C194.129 16.1984 194.193 16.4048 194.522 16.9732L194.66 17.2245C194.66 17.2245 194.253 17.1946 193.269 17.1946C192.286 17.1946 191.86 17.2245 191.86 17.2245L192.002 16.9732C192.304 16.4288 192.394 16.3091 192.394 11.8878C192.394 7.60116 192.331 7.54133 192.002 6.95202L191.86 6.70374C191.86 6.70374 192.346 6.73066 193.034 6.73066C193.505 6.73066 194.365 6.70374 194.911 6.70374C196.851 6.70374 199.229 6.83536 199.229 9.36907C199.229 10.7391 198.354 12.181 195.834 12.169C197.132 12.3306 197.617 12.9617 198.414 14.2151L199.18 15.4685C199.696 16.3061 200.086 16.8655 200.713 17.1318C200.713 17.1407 200.478 17.2873 199.621 17.2873ZM194.866 7.68491C194.458 7.68491 194.129 7.71184 194.129 7.71184V11.5139C194.129 11.5139 194.41 11.5139 194.989 11.5139C195.191 11.5139 195.647 11.484 195.913 11.4541C196.694 11.3225 197.337 10.7182 197.337 9.55454C197.337 7.88833 196.272 7.68491 194.866 7.68491Z" fill="black"/>
<path d="M209.506 8.50754C209.342 8.33998 209.151 8.20049 208.942 8.09473C208.411 7.84189 207.826 7.72075 207.237 7.74175H206.25V12.0434C206.25 16.3301 206.313 16.3899 206.642 16.9792L206.784 17.2305C206.784 17.2305 206.362 17.2006 205.375 17.2006C204.388 17.2006 203.936 17.2305 203.936 17.2305L204.078 16.9792C204.379 16.4198 204.467 16.3151 204.467 11.8938V7.74175H203.495C202.906 7.72015 202.321 7.84131 201.79 8.09473C201.579 8.19784 201.388 8.33765 201.226 8.50754C201.261 8.18468 201.277 7.86006 201.274 7.53534C201.274 6.97595 201.256 6.72467 201.256 6.72467H209.485C209.485 6.72467 209.485 6.97595 209.485 7.53534C209.473 7.85954 209.48 8.18416 209.506 8.50754Z" fill="black"/>
<path d="M218.127 16.7518L218.096 17.2095H212.575C211.73 17.2095 211.368 17.2245 211.368 17.2245L211.509 16.9732C211.811 16.4138 211.899 16.3091 211.899 11.8878C211.899 7.60116 211.835 7.54133 211.509 6.95202L211.368 6.70374C211.368 6.70374 211.712 6.70374 212.556 6.70374H217.936C217.936 6.70374 217.936 6.95501 217.936 7.51441C217.933 7.83408 217.948 8.15369 217.982 8.47165C217.816 8.31108 217.627 8.17687 217.42 8.0738C216.881 7.83334 216.292 7.72264 215.701 7.75073H213.697V11.4391H215.323C215.911 11.4792 216.499 11.384 217.043 11.1609C217.246 11.0581 217.432 10.926 217.595 10.769C217.595 10.769 217.547 11.1938 217.547 11.9656C217.547 12.7374 217.595 13.1143 217.595 13.1442C217.43 12.9821 217.24 12.8477 217.031 12.7464C216.488 12.5221 215.899 12.4258 215.311 12.4652H213.685V16.1685H215.532C217.472 16.1685 217.722 15.7408 218.299 14.945C218.299 14.957 218.22 15.4925 218.127 16.7518Z" fill="black"/>
<path d="M228.18 17.2873C227.067 17.2873 226.648 16.8476 225.896 15.7258L224.831 14.1344C223.908 12.7643 223.736 12.4712 222.954 12.4712C222.866 12.4707 222.777 12.4757 222.689 12.4861C222.689 16.1984 222.752 16.4048 223.081 16.9732L223.22 17.2245C223.22 17.2245 222.813 17.1946 221.829 17.1946C220.845 17.1946 220.42 17.2245 220.42 17.2245L220.562 16.9732C220.863 16.4288 220.954 16.3091 220.954 11.8878C220.954 7.60116 220.89 7.54133 220.562 6.95202L220.42 6.70374C220.42 6.70374 220.906 6.73066 221.593 6.73066C222.064 6.73066 222.924 6.70374 223.47 6.70374C225.41 6.70374 227.788 6.83536 227.788 9.36907C227.788 10.7391 226.913 12.181 224.394 12.169C225.691 12.3306 226.177 12.9617 226.973 14.2151L227.74 15.4685C228.259 16.3061 228.645 16.8655 229.273 17.1318C229.273 17.1407 229.04 17.2873 228.18 17.2873ZM223.425 7.68491C223.018 7.68491 222.689 7.71184 222.689 7.71184V11.5139C222.689 11.5139 222.969 11.5139 223.549 11.5139C223.754 11.5139 224.207 11.484 224.472 11.4541C225.254 11.3225 225.896 10.7182 225.896 9.55454C225.896 7.88833 224.831 7.68491 223.425 7.68491Z" fill="black"/>
</g>
<defs>
<clipPath id="clip0_1_218">
<rect width="228.545" height="24" fill="white" transform="translate(0.727264)"/>
</clipPath>
</defs>
</svg>
