<svg width="100" height="93" viewBox="0 0 100 93" fill="none" xmlns="http://www.w3.org/2000/svg">
<path d="M64.5769 74.6158C64.5791 75.1833 64.3559 75.7285 63.9564 76.1317C63.5569 76.5348 63.0138 76.7629 62.4462 76.7658C61.7719 76.7679 61.1209 77.0127 60.6122 77.4553C60.1034 77.898 59.771 78.5089 59.6757 79.1765C59.6387 79.5518 59.6809 79.9307 59.7996 80.2887C59.9183 80.6466 60.1109 80.9757 60.3647 81.2546C60.6186 81.5335 60.9282 81.7559 61.2735 81.9076C61.6188 82.0593 61.9921 82.1368 62.3692 82.1351L66.4494 82.1247C67.4026 82.1179 68.3142 81.7331 68.9841 81.0549C69.654 80.3767 70.0275 79.4604 70.0225 78.5072L69.9308 63.6302L64.5374 63.6585L64.5769 74.6158Z" fill="#F56977"/>
<path d="M47.8558 70.624C47.6708 71.1612 47.2812 71.6035 46.7717 71.8547C46.2622 72.1059 45.674 72.1457 45.1353 71.9654C44.4899 71.7296 43.7802 71.7398 43.1419 71.9941C42.5035 72.2484 41.9812 72.7289 41.6746 73.3439C41.5175 73.6868 41.434 74.0588 41.4297 74.4359C41.4254 74.813 41.5003 75.1869 41.6495 75.5332C41.7988 75.8796 42.0191 76.1907 42.2962 76.4466C42.5733 76.7024 42.9011 76.8972 43.2582 77.0184L47.136 78.3316C47.5825 78.4839 48.0546 78.5467 48.5254 78.5163C48.9961 78.4859 49.4563 78.363 49.8794 78.1545C50.3026 77.946 50.6805 77.656 50.9914 77.3012C51.3024 76.9465 51.5402 76.5339 51.6915 76.087L56.4886 61.978L51.3865 60.2439L47.8558 70.624Z" fill="#F56977"/>
<path d="M66.713 36.5196L63.348 34.1207L60.1713 31.5206L56.7514 29.2672L53.3658 26.9654L50.1664 24.4089L46.8343 22.0235L43.427 19.7512L40.2035 17.2183L36.8509 15.0934L35.8975 19.2292L35.0196 23.4969L33.917 27.7156L32.9749 31.9761L32.1299 36.2572L31.238 40.524L30.1156 44.7441L29.1266 48.9902L28.3729 53.2944L27.4365 57.5525L26.3059 61.7692L25.3415 66.0254L24.4994 70.2646L28.4904 69.6174L32.5161 68.8741L36.553 68.1738L40.5583 67.3166L44.5831 66.5873L48.6253 65.9324L52.6462 65.1775L56.6704 64.4144L60.6653 63.7112L64.4296 65.5347L68.2152 67.3765L71.8186 69.5805L75.5749 71.4822L79.3465 73.3231L80.3941 69.1683L81.143 64.9341L82.1891 60.7595L82.9718 56.5247L84.0368 52.3627L85.022 48.1727L85.7908 43.937L86.7784 39.7528L87.8134 35.5352L83.571 35.6951L79.3714 36.0549L75.1623 36.0988L70.9503 36.1848L66.713 36.5196Z" fill="#F56977"/>
<path d="M58.1619 45.2949C57.5913 47.8548 56.3101 50.4734 53.5395 49.8548C50.7689 49.2361 50.6942 46.4354 51.2922 43.7619C51.8902 41.0884 53.6953 40.2114 55.5771 40.6093C57.4589 41.0073 58.7407 42.7384 58.1619 45.2949Z" fill="white"/>
<path d="M56.9776 44.8223C56.5195 46.8699 55.5006 48.9713 53.2792 48.4707C51.0578 47.9702 51.0022 45.7349 51.4801 43.5969C51.958 41.4589 53.408 40.7624 54.9274 41.0964C56.4468 41.4305 57.4504 42.8096 56.9776 44.8223Z" fill="black"/>
<path d="M75.808 49.22C75.2374 51.7799 73.9586 54.4043 71.1856 53.7799C68.4126 53.1554 68.3403 50.3605 68.9383 47.687C69.5364 45.0136 71.3438 44.1423 73.2411 44.561C75.1384 44.9797 76.3811 46.6659 75.808 49.22Z" fill="white"/>
<path d="M74.2229 48.8265C73.7982 50.7514 72.8298 52.7257 70.7413 52.2611C68.6529 51.7965 68.6044 49.6829 69.0477 47.6729C69.491 45.663 70.8599 44.998 72.2929 45.3191C73.726 45.6401 74.6515 46.8923 74.2229 48.8265Z" fill="black"/>
<path d="M16.2485 52.9529C16.1434 53.0971 16.0102 53.2186 15.8571 53.3096C15.704 53.4007 15.5343 53.4595 15.3584 53.4824L8.59875 54.3245L1.99612 55.6014C1.82881 55.6302 1.65786 55.6256 1.4931 55.5878C1.32834 55.55 1.17304 55.4797 1.03614 55.3811C0.899239 55.2824 0.783454 55.1573 0.695447 55.013C0.607439 54.8687 0.548953 54.708 0.523359 54.5401C0.474803 54.2023 0.559952 53.8574 0.760634 53.5789C0.961316 53.3003 1.26162 53.1104 1.59743 53.0495L8.2808 51.7665L15.1273 50.9098C15.4655 50.8689 15.8044 50.9642 16.0698 51.1747C16.3352 51.3852 16.5053 51.6938 16.5429 52.0327C16.5687 52.365 16.4629 52.6956 16.2485 52.9529Z" fill="black"/>
<path d="M18.6042 41.7461C18.4163 41.9273 18.1783 42.0481 17.9205 42.093C17.6627 42.1378 17.3968 42.1047 17.1569 41.9978L9.8814 38.7525L3.0444 34.8935C2.73823 34.7208 2.51233 34.4341 2.41636 34.0963C2.3204 33.7585 2.36225 33.3973 2.53271 33.0923C2.70316 32.7873 2.98826 32.5633 3.32528 32.4697C3.66231 32.3761 4.02365 32.4205 4.32982 32.5932L11.1222 36.421L18.2186 39.587C18.541 39.7304 18.7942 39.9955 18.9227 40.3241C19.0512 40.6526 19.0445 41.0179 18.904 41.3396C18.8307 41.493 18.729 41.6309 18.6042 41.7461Z" fill="black"/>
<path d="M23.3802 29.3765C23.0626 29.5179 22.7031 29.5323 22.3764 29.4166C22.0496 29.3009 21.7806 29.0641 21.6254 28.7553L18.5448 22.5382L14.8092 16.7472C14.6201 16.4593 14.5514 16.1089 14.6178 15.7703C14.6842 15.4317 14.8804 15.1317 15.1647 14.934C15.4553 14.747 15.8066 14.6787 16.1454 14.7432C16.4842 14.8077 16.7843 15.0001 16.9833 15.2803L20.8657 21.2389L23.9737 27.4905C24.0507 27.6463 24.096 27.8159 24.1071 27.9895C24.1183 28.1631 24.0949 28.3373 24.0384 28.5022C23.9819 28.6672 23.8934 28.8195 23.7779 28.9506C23.6625 29.0816 23.5223 29.1888 23.3654 29.2661L23.3802 29.3765Z" fill="black"/>
</svg>
