<svg width="36" height="36" viewBox="0 0 36 36" fill="none" xmlns="http://www.w3.org/2000/svg">
<g clip-path="url(#clip0_1_1172)">
<path d="M36 18C36 8.05887 27.9411 0 18 0C8.05887 0 0 8.05887 0 18C0 27.9411 8.05887 36 18 36C27.9411 36 36 27.9411 36 18Z" fill="white"/>
<path d="M18 0C14.4399 0 10.9598 1.05568 7.99973 3.03355C5.03964 5.01141 2.73254 7.82263 1.37016 11.1117C0.00778383 14.4008 -0.348676 18.02 0.345858 21.5116C1.04039 25.0033 2.75473 28.2106 5.27207 30.7279C7.78942 33.2453 10.9967 34.9596 14.4884 35.6541C17.98 36.3487 21.5992 35.9922 24.8883 34.6298C28.1774 33.2675 30.9886 30.9603 32.9664 28.0003C34.9443 25.0402 36 21.5601 36 18C36 13.2261 34.1036 8.64773 30.7279 5.27208C27.3523 1.89642 22.7739 0 18 0V0Z" fill="#8E8E8E"/>
<path d="M13.3802 29.16C13.1017 29.0653 12.9984 28.8557 13.0041 28.5743C13.0099 28.3877 13.0041 28.1982 13.0041 28.0116C13.0127 27.6269 13.1793 27.4604 13.564 27.4604C14.609 27.4575 15.654 27.4604 16.6991 27.4604C16.7823 27.4604 16.8685 27.4604 16.9661 27.4604V26.3177C15.7918 26.1512 14.7267 25.7148 13.7965 25.0086C14.1927 24.6124 14.586 24.2162 14.9937 23.8056C15.4617 24.11 15.9928 24.3511 16.5699 24.5062C19.0188 25.1607 21.7147 23.7712 22.5961 21.3998C22.8286 20.7768 22.9463 20.1394 22.9435 19.4762C22.9435 18.9996 22.9435 18.5259 22.9435 18.0493C22.9435 17.6618 23.1243 17.4866 23.5148 17.4838C23.7244 17.4838 23.9339 17.478 24.1406 17.4838C24.445 17.4952 24.6345 17.6503 24.6373 17.9402C24.6459 19.0341 24.7177 20.1308 24.4277 21.2074C24.0717 22.5367 23.3827 23.665 22.3664 24.5894C21.3759 25.488 20.2246 26.0622 18.9011 26.2718C18.838 26.2833 18.7748 26.3005 18.7001 26.3177V27.4575C18.7891 27.4575 18.8667 27.4575 18.9442 27.4575C19.9749 27.4575 21.0055 27.4575 22.0362 27.4575C22.5071 27.4575 22.6592 27.6097 22.6621 28.0748C22.6621 28.2413 22.6592 28.4078 22.6621 28.5715C22.6707 28.8528 22.5674 29.0595 22.286 29.1571H13.3802V29.16Z" fill="white"/>
<path d="M21.8848 11.6614C21.9221 11.5925 21.9479 11.5092 22.0025 11.4547C22.8724 10.579 23.7423 9.70626 24.6151 8.83923C25.1577 8.30236 25.8611 8.25929 26.4008 8.72152C26.8946 9.14642 26.9721 9.90436 26.5702 10.4183C26.4984 10.5101 26.4209 10.5934 26.3405 10.6767C21.2646 15.7525 16.1888 20.8313 11.11 25.9072C10.5961 26.4211 10.019 26.5302 9.46781 26.2144C8.81322 25.8383 8.62661 24.9397 9.11755 24.3655C9.46206 23.9607 9.85826 23.5989 10.2315 23.2199C10.6076 22.841 10.9866 22.4678 11.3598 22.0859C11.4086 22.0342 11.4631 21.928 11.443 21.8763C11.0038 20.748 10.998 19.5652 11.0153 18.3824C11.0153 18.2532 11.0095 18.1211 11.0153 17.9919C11.0354 17.6617 11.2076 17.4952 11.5378 17.4837C11.7531 17.478 11.9713 17.478 12.1866 17.4837C12.5369 17.4924 12.7178 17.6704 12.7235 18.0206C12.7292 18.4972 12.7149 18.9709 12.7292 19.4475C12.7378 19.8178 12.778 20.1882 12.8039 20.5614C12.824 20.57 12.8441 20.5758 12.867 20.5844C13.0766 20.3748 13.2718 20.1423 13.5044 19.9585C13.8145 19.7116 13.8949 19.4159 13.892 19.0226C13.8748 16.3842 13.8862 13.7457 13.8805 11.1073C13.8805 9.99623 14.2107 9.01436 14.9973 8.22771C16.1313 7.09368 17.5037 6.72332 19.0282 7.20851C20.5383 7.69084 21.4484 8.76745 21.7297 10.3379C21.79 10.6738 21.7728 11.0269 21.79 11.3714C21.7929 11.4461 21.79 11.5236 21.79 11.5982C21.8216 11.6183 21.8503 11.6413 21.8819 11.6614H21.8848Z" fill="white"/>
<path d="M15.6572 23.1338C17.6956 21.0954 19.7311 19.0599 21.7723 17.0186C21.7781 17.0445 21.7896 17.0846 21.7896 17.122C21.7867 18.1153 21.8011 19.1116 21.7723 20.1049C21.7207 21.8763 20.2306 23.5042 18.4736 23.7511C17.4487 23.8946 16.5012 23.708 15.6543 23.1338H15.6572Z" fill="white"/>
</g>
<defs>
<clipPath id="clip0_1_1172">
<rect width="36" height="36" fill="white"/>
</clipPath>
</defs>
</svg>
