<svg width="36" height="36" viewBox="0 0 36 36" fill="none" xmlns="http://www.w3.org/2000/svg">
<g clip-path="url(#clip0_92_1842)">
<path d="M36 18C36 8.05887 27.9411 0 18 0C8.05887 0 0 8.05887 0 18C0 27.9411 8.05887 36 18 36C27.9411 36 36 27.9411 36 18Z" fill="white"/>
<path d="M18 0C14.4399 0 10.9598 1.05568 7.99974 3.03355C5.03966 5.01141 2.73255 7.82263 1.37018 11.1117C0.00779909 14.4008 -0.348661 18.02 0.345873 21.5116C1.04041 25.0033 2.75474 28.2106 5.27209 30.7279C7.78943 33.2453 10.9967 34.9596 14.4884 35.6541C17.98 36.3487 21.5992 35.9922 24.8883 34.6298C28.1774 33.2675 30.9886 30.9603 32.9665 28.0003C34.9443 25.0402 36 21.5601 36 18C36 13.2261 34.1036 8.64773 30.7279 5.27208C27.3523 1.89642 22.7739 0 18 0V0Z" fill="#8E8E8E"/>
<path d="M18 15.4837V11.0019C18 10.1467 16.9961 9.6861 16.3478 10.2439L11.4164 14.4871H9C8.44772 14.4871 8 14.9348 8 15.4871V20.6098C8 21.1621 8.44772 21.6098 9 21.6098H11.5888L16.3478 25.7046C16.9961 26.2625 18 25.8019 18 24.9466V20.6133L18 20.6098V15.4871L18 15.4837Z" fill="white"/>
<path fill-rule="evenodd" clip-rule="evenodd" d="M26.9385 16.0037C27.2314 15.7108 27.2314 15.236 26.9385 14.9431C26.6456 14.6502 26.1708 14.6502 25.8779 14.9431L23.51 17.3109L21.1421 14.9431C20.8493 14.6502 20.3744 14.6502 20.0815 14.9431C19.7886 15.236 19.7886 15.7108 20.0815 16.0037L22.4494 18.3716L20.0815 20.7394C19.7886 21.0323 19.7886 21.5072 20.0815 21.8001C20.3744 22.093 20.8493 22.093 21.1422 21.8001L23.51 19.4322L25.8779 21.8001C26.1707 22.093 26.6456 22.093 26.9385 21.8001C27.2314 21.5072 27.2314 21.0323 26.9385 20.7394L24.5707 18.3716L26.9385 16.0037Z" fill="white"/>
</g>
<defs>
<clipPath id="clip0_92_1842">
<rect width="36" height="36" fill="white"/>
</clipPath>
</defs>
</svg>
