<svg width="36" height="36" viewBox="0 0 36 36" fill="none" xmlns="http://www.w3.org/2000/svg">
<g clip-path="url(#clip0_92_1484)">
<path d="M36 18C36 8.05887 27.9411 0 18 0C8.05887 0 0 8.05887 0 18C0 27.9411 8.05887 36 18 36C27.9411 36 36 27.9411 36 18Z" fill="white"/>
<path d="M18 0C14.4399 0 10.9598 1.05568 7.99974 3.03355C5.03966 5.01141 2.73255 7.82263 1.37018 11.1117C0.00779909 14.4008 -0.348661 18.02 0.345873 21.5116C1.04041 25.0033 2.75474 28.2106 5.27209 30.7279C7.78943 33.2453 10.9967 34.9596 14.4884 35.6541C17.98 36.3487 21.5992 35.9922 24.8883 34.6298C28.1774 33.2675 30.9886 30.9603 32.9665 28.0003C34.9443 25.0402 36 21.5601 36 18C36 13.2261 34.1036 8.64773 30.7279 5.27208C27.3523 1.89642 22.7739 0 18 0V0Z" fill="#8E8E8E"/>
<path d="M18 15.4837V11.0019C18 10.1467 16.9961 9.6861 16.3478 10.2439L11.4164 14.4871H9C8.44772 14.4871 8 14.9348 8 15.4871V20.6098C8 21.1621 8.44772 21.6098 9 21.6098H11.5888L16.3478 25.7046C16.9961 26.2625 18 25.8019 18 24.9466V20.6133L18 20.6098V15.4871L18 15.4837Z" fill="white"/>
<path fill-rule="evenodd" clip-rule="evenodd" d="M22.2975 10.2819C21.901 10.1623 21.4825 10.3868 21.3629 10.7834C21.2433 11.18 21.4678 11.5984 21.8644 11.718C22.5292 11.9185 23.1497 12.225 23.7069 12.6189C25.3812 13.8024 26.478 15.7696 26.478 18C26.478 20.9738 24.5275 23.4787 21.8644 24.2819C21.4678 24.4015 21.2433 24.82 21.3629 25.2165C21.4825 25.6131 21.901 25.8376 22.2975 25.718C25.5875 24.7258 27.978 21.6422 27.978 18C27.978 15.2673 26.632 12.8497 24.5727 11.394C23.8864 10.9089 23.1202 10.53 22.2975 10.2819ZM20.2528 14.2863C19.8586 14.1589 19.4359 14.3752 19.3085 14.7693C19.1811 15.1635 19.3974 15.5863 19.7916 15.7136C20.0059 15.7829 20.2086 15.8896 20.3929 16.0292C20.9484 16.4499 21.331 17.1661 21.331 18C21.331 19.1176 20.6491 20.0092 19.7916 20.2863C19.3974 20.4137 19.1811 20.8364 19.3085 21.2306C19.4359 21.6247 19.8586 21.841 20.2528 21.7136C21.7764 21.2213 22.831 19.7177 22.831 18C22.831 16.7068 22.2365 15.5438 21.2985 14.8334C20.9854 14.5963 20.6334 14.4093 20.2528 14.2863Z" fill="white"/>
</g>
<defs>
<clipPath id="clip0_92_1484">
<rect width="36" height="36" fill="white"/>
</clipPath>
</defs>
</svg>
