<svg width="36" height="36" viewBox="0 0 36 36" fill="none" xmlns="http://www.w3.org/2000/svg">
<g clip-path="url(#clip0_1_728)">
<path d="M36 18C36 8.05887 27.9411 0 18 0C8.05887 0 0 8.05887 0 18C0 27.9411 8.05887 36 18 36C27.9411 36 36 27.9411 36 18Z" fill="white"/>
<path d="M18 0C14.4399 0 10.9598 1.05568 7.99974 3.03355C5.03966 5.01141 2.73255 7.82263 1.37018 11.1117C0.00779909 14.4008 -0.348661 18.02 0.345873 21.5116C1.04041 25.0033 2.75474 28.2106 5.27209 30.7279C7.78943 33.2453 10.9967 34.9596 14.4884 35.6541C17.98 36.3487 21.5992 35.9922 24.8883 34.6298C28.1774 33.2675 30.9886 30.9603 32.9665 28.0003C34.9443 25.0402 36 21.5601 36 18C36 13.2261 34.1036 8.64773 30.7279 5.27208C27.3523 1.89642 22.7739 0 18 0V0Z" fill="#8E8E8E"/>
<path d="M24.6375 17.9402C24.6375 17.6501 24.4451 17.495 24.1407 17.4836C23.931 17.4749 23.7214 17.4807 23.5146 17.4836C23.1241 17.4864 22.946 17.6616 22.9432 18.0493C22.9403 18.526 22.9432 18.9998 22.9432 19.4765C22.9432 20.1399 22.8283 20.7774 22.5957 21.4006C22.1563 22.5837 21.2661 23.5199 20.1777 24.0828C20.1691 24.0885 20.1576 24.0914 20.149 24.0971C20.0312 24.1574 19.9106 24.212 19.79 24.2637C19.7613 24.2752 19.7297 24.2867 19.6981 24.301C19.5833 24.347 19.4684 24.3872 19.3507 24.4245C19.3277 24.4331 19.3047 24.4389 19.2846 24.4446C19.1554 24.4848 19.0261 24.5193 18.894 24.548C18.8797 24.5509 18.8653 24.5537 18.851 24.5566C18.716 24.5853 18.5839 24.6083 18.4461 24.6255C18.4231 24.6284 18.3972 24.6313 18.3743 24.6341C18.2594 24.6485 18.1445 24.6542 18.0297 24.66C17.9607 24.66 17.8947 24.6629 17.8258 24.6629C17.7568 24.6629 17.6908 24.6629 17.6219 24.66C17.507 24.6542 17.3921 24.6456 17.2773 24.6341C17.2543 24.6341 17.2285 24.6284 17.2055 24.6255C17.0705 24.6083 16.9355 24.5853 16.8006 24.5566C16.7862 24.5537 16.7718 24.5509 16.7575 24.548C16.6254 24.5193 16.4962 24.4848 16.3669 24.4446C16.344 24.4389 16.321 24.4302 16.3009 24.4245C16.1831 24.3872 16.0683 24.3441 15.9534 24.301C15.9218 24.2895 15.8931 24.278 15.8615 24.2637C15.7409 24.212 15.6203 24.1574 15.5025 24.0971C15.4939 24.0914 15.4824 24.0885 15.4738 24.0828C14.3883 23.5199 13.4952 22.5809 13.0558 21.4006C12.8232 20.7774 12.7055 20.1399 12.7084 19.4765C12.7084 18.9998 12.7084 18.526 12.7084 18.0493C12.7084 17.6616 12.5274 17.4864 12.1369 17.4836C11.9273 17.4836 11.7176 17.4778 11.5109 17.4836C11.2065 17.495 11.0169 17.6501 11.014 17.9402C11.0054 19.0343 10.9336 20.1313 11.2237 21.2082C11.5798 22.5378 12.269 23.6664 13.2856 24.5911C13.4493 24.7404 13.6187 24.8754 13.791 25.0046C13.814 25.0247 13.8369 25.0391 13.8628 25.0563C13.9547 25.1223 14.0437 25.1884 14.1385 25.2516C14.1557 25.263 14.1729 25.2745 14.1902 25.286C14.6181 25.5646 15.0718 25.7914 15.5542 25.9637C15.6145 25.9867 15.6748 26.0097 15.738 26.0298C15.7897 26.047 15.8414 26.0614 15.8931 26.0757C16.2147 26.1734 16.5479 26.2509 16.8896 26.3026C16.9126 26.3084 16.9327 26.3141 16.9585 26.3198V27.4599C16.8695 27.4599 13.5756 27.4599 13.5613 27.4599C13.4234 27.4599 13.3172 27.4829 13.2339 27.526C13.0645 27.6092 12.9984 27.7787 12.9955 28.0773C12.9955 28.2439 12.9984 28.4105 12.9955 28.5741C12.9869 28.8556 13.0903 29.0623 13.3717 29.16H22.2913C22.5699 29.0652 22.6732 28.8556 22.6675 28.5741C22.6617 28.4076 22.6675 28.2439 22.6675 28.0773C22.6675 27.7787 22.6014 27.6092 22.4291 27.526C22.3459 27.4829 22.2367 27.4599 22.1018 27.4599C22.0874 27.4599 22.073 27.4599 22.0587 27.4599C22.0529 27.4599 22.0472 27.4599 22.0415 27.4599C21.0162 27.4599 18.7935 27.4599 18.7045 27.4599V26.3198C18.7304 26.3141 18.7505 26.3084 18.7734 26.3026C19.1152 26.2509 19.4454 26.1734 19.7699 26.0757C19.8216 26.0614 19.8733 26.0442 19.925 26.0298C19.9882 26.0097 20.0485 25.9867 20.1088 25.9637C20.5884 25.7914 21.045 25.5646 21.4729 25.286C21.4901 25.2745 21.5073 25.263 21.5245 25.2516C21.6164 25.1884 21.7083 25.1223 21.8002 25.0563C21.8232 25.0391 21.8462 25.0247 21.872 25.0075C22.0443 24.8754 22.2138 24.7404 22.3774 24.5911C23.394 23.6664 24.0832 22.5378 24.4393 21.2082C24.7294 20.1313 24.6576 19.0343 24.649 17.9402H24.6375Z" fill="white"/>
<path d="M16.6376 23.5917C18.1625 24.0771 19.5352 23.7066 20.6666 22.5723C21.4535 21.7826 21.7866 20.8004 21.7837 19.6919C21.778 17.0528 21.7407 12.975 21.7234 10.3387C21.442 8.76791 20.5317 7.68815 19.0211 7.20857C17.4963 6.72325 16.1236 7.0937 14.9921 8.22803C14.2053 9.01775 13.8721 9.99988 13.875 11.1084C13.8808 13.7475 13.9181 17.8253 13.9353 20.4616C14.2168 22.0324 15.1271 23.1122 16.6376 23.5917Z" fill="white"/>
</g>
<defs>
<clipPath id="clip0_1_728">
<rect width="36" height="36" fill="white"/>
</clipPath>
</defs>
</svg>
