<svg width="50" height="50" viewBox="0 0 50 50" fill="none" xmlns="http://www.w3.org/2000/svg">
<rect x="1" y="1" width="48" height="48" rx="5" stroke="#2C2C2C" stroke-width="2"/>
<path d="M36.6715 23.1715H26.8285V13.3285C26.8285 12.5952 26.2333 12 25.5 12C24.7667 12 24.1715 12.5952 24.1715 13.3285V23.1715H14.3285C13.5952 23.1715 13 23.7667 13 24.5C13 25.2333 13.5952 25.8285 14.3285 25.8285H24.1715V35.6715C24.1715 36.4048 24.7667 37 25.5 37C26.2333 37 26.8285 36.4048 26.8285 35.6715V25.8285H36.6715C37.4048 25.8285 38 25.2333 38 24.5C38 23.7667 37.4048 23.1715 36.6715 23.1715Z" fill="#2C2C2C"/>
</svg>
