<svg width="25" height="25" viewBox="0 0 25 25" fill="none" xmlns="http://www.w3.org/2000/svg">
<circle cx="12.5" cy="12.495" r="12.5" fill="#C7000A"/>
<path fill-rule="evenodd" clip-rule="evenodd" d="M17.8905 5.96419C18.1563 5.96434 18.4222 5.96448 18.688 5.96448C19.1299 5.96448 19.3121 6.14708 19.3121 6.5894C19.3121 6.67613 19.3122 6.76281 19.3123 6.84948C19.3125 7.02277 19.3127 7.196 19.3121 7.36941C19.3109 7.74795 19.1124 7.94806 18.7355 7.94806H12.4634H6.23835C5.81562 7.94806 5.62635 7.76087 5.62593 7.34315C5.62583 7.27827 5.62567 7.21342 5.62551 7.14859C5.62497 6.93259 5.62442 6.71672 5.62635 6.5006C5.62927 6.17584 5.83938 5.96573 6.16664 5.96531C6.22087 5.96523 6.27509 5.96515 6.32932 5.96507C7.41405 5.96347 8.49877 5.96186 9.5835 5.96782C9.72941 5.96865 9.8132 5.92613 9.86907 5.79105C9.92827 5.64722 10.0029 5.50882 10.0788 5.37291C10.2168 5.12486 10.4323 4.99645 10.7162 4.99604C11.5898 4.99479 12.4637 4.99494 13.3374 4.9951C13.6286 4.99515 13.9198 4.9952 14.211 4.9952C14.5112 4.9952 14.7255 5.13945 14.8701 5.39334C14.9443 5.52466 15.0152 5.65848 15.0731 5.79731C15.1307 5.93405 15.2228 5.96823 15.365 5.9674C16.2068 5.96328 17.0486 5.96374 17.8905 5.96419ZM12.4709 8.89608H18.1173L18.1169 8.89524C18.2292 8.89524 18.2842 8.89524 18.3092 8.92261C18.3346 8.95048 18.3289 9.00676 18.3212 9.12037C18.2984 9.45284 18.2788 9.78546 18.2592 10.1181C18.2461 10.3401 18.233 10.5622 18.219 10.7842C18.1966 11.138 18.1738 11.4917 18.151 11.8455C18.1237 12.269 18.0964 12.6926 18.0698 13.1163C18.0534 13.379 18.0378 13.6418 18.0223 13.9046C18.005 14.1965 17.9877 14.4883 17.9693 14.7801C17.9449 15.1689 17.9198 15.5575 17.8947 15.9462C17.8696 16.3348 17.8444 16.7235 17.8201 17.1122C17.7985 17.4528 17.7783 17.7936 17.758 18.1343C17.7453 18.3483 17.7326 18.5622 17.7196 18.776C17.7163 18.8299 17.7138 18.8838 17.7113 18.9378C17.7048 19.0761 17.6983 19.2145 17.6791 19.3509C17.5774 20.0797 16.9608 20.6179 16.2254 20.6183C13.7191 20.6204 11.2131 20.6208 8.70719 20.6183C7.91634 20.6174 7.28725 19.995 7.24473 19.2071C7.21424 18.64 7.1756 18.0733 7.13697 17.5065C7.1138 17.1667 7.09063 16.8268 7.06922 16.4869C7.04998 16.184 7.03293 15.8809 7.01589 15.5777C6.99969 15.2897 6.98349 15.0017 6.96541 14.7138C6.9345 14.2222 6.9021 13.7307 6.86971 13.2392C6.84268 12.8292 6.81565 12.4191 6.78948 12.009C6.76526 11.6283 6.74289 11.2475 6.72052 10.8666C6.7094 10.6772 6.69828 10.4879 6.68693 10.2985C6.68074 10.1947 6.67475 10.0908 6.66877 9.9869C6.65175 9.69166 6.63472 9.39631 6.61314 9.10119L6.61269 9.09513C6.59852 8.9022 6.59807 8.89608 6.79323 8.89608H10.5057H12.4709ZM15.5926 18.0577L15.7681 17.8822L15.7685 17.8826C15.8657 17.6508 15.8152 17.4632 15.6335 17.2835C15.0282 16.6857 14.427 16.0834 13.8258 15.4813C13.6147 15.2697 13.4035 15.0582 13.1921 14.8468C13.1338 14.7882 13.1345 14.729 13.1942 14.6692C13.6082 14.255 14.0223 13.841 14.4363 13.4269C14.8504 13.0128 15.2645 12.5987 15.6785 12.1845C15.8194 12.0436 15.8548 11.8435 15.7714 11.6718C15.6335 11.3866 15.2674 11.3241 15.0427 11.5488C14.5455 12.0452 14.0487 12.5422 13.5519 13.0391C13.2207 13.3705 12.8894 13.7018 12.558 14.033C12.498 14.0928 12.4388 14.0935 12.3804 14.0351C12.1812 13.836 11.9819 13.6371 11.7826 13.4381C11.1679 12.8248 10.5533 12.2114 9.94328 11.5938C9.7636 11.412 9.576 11.3612 9.3442 11.4587L9.16869 11.6342C9.07155 11.8656 9.122 12.0536 9.30376 12.2329C9.92538 12.8466 10.5424 13.4649 11.1595 14.0831C11.3543 14.2784 11.5492 14.4737 11.7443 14.6688C11.8035 14.728 11.8035 14.7872 11.7443 14.8464C10.9205 15.6702 10.0967 16.494 9.27291 17.3173C9.22455 17.3653 9.18036 17.4153 9.15493 17.4803C9.10199 17.6154 9.12075 17.7463 9.17494 17.876L9.35046 18.0515C9.58225 18.1494 9.76985 18.0994 9.94911 17.9181C10.5415 17.3186 11.1379 16.7233 11.7344 16.1278C11.9498 15.9128 12.1652 15.6978 12.3804 15.4826C12.4396 15.4234 12.4988 15.4234 12.558 15.4826C13.3831 16.3076 14.2085 17.1331 15.0335 17.9585C15.0819 18.0069 15.1319 18.0515 15.197 18.0769C15.332 18.1303 15.4629 18.1119 15.5926 18.0577Z" fill="white"/>
</svg>
