<svg width="50" height="50" viewBox="0 0 50 50" fill="none" xmlns="http://www.w3.org/2000/svg">
<rect x="1" y="1" width="48" height="48" rx="5" fill="#2C2C2C" stroke="#2C2C2C" stroke-width="2"/>
<path d="M13.4824 36.5146H19.8052C20.1569 36.5146 20.4516 36.6339 20.6895 36.8724C20.9274 37.1109 21.0464 37.4065 21.0464 37.759C21.0464 38.1116 20.9274 38.4066 20.6895 38.6439C20.4516 38.8813 20.1569 39 19.8052 39H13.0049C12.4369 39 11.9607 38.8076 11.5764 38.4229C11.1921 38.0381 11 37.5614 11 36.9926V30.1831C11 29.831 11.1191 29.5359 11.3573 29.2977C11.5955 29.0595 11.8907 28.9404 12.2429 28.9404C12.595 28.9404 12.8896 29.0595 13.1267 29.2977C13.3638 29.5359 13.4824 29.831 13.4824 30.1831V36.5146ZM36.5176 36.5146V30.1831C36.5176 29.831 36.6367 29.5359 36.875 29.2977C37.1132 29.0595 37.4084 28.9404 37.7605 28.9404C38.1127 28.9404 38.4073 29.0595 38.6444 29.2977C38.8815 29.5359 39 29.831 39 30.1831V36.9926C39 37.5614 38.8079 38.0381 38.4236 38.4229C38.0393 38.8076 37.5631 39 36.9951 39H30.1948C29.8431 39 29.5484 38.8807 29.3105 38.6422C29.0726 38.4038 28.9536 38.1082 28.9536 37.7556C28.9536 37.4031 29.0726 37.1081 29.3105 36.8707C29.5484 36.6333 29.8431 36.5146 30.1948 36.5146H36.5176ZM13.4824 13.4854V19.8169C13.4824 20.169 13.3633 20.4641 13.125 20.7023C12.8868 20.9405 12.5916 21.0596 12.2395 21.0596C11.8873 21.0596 11.5927 20.9405 11.3557 20.7023C11.1186 20.4641 11 20.169 11 19.8169V13.0074C11 12.4386 11.1921 11.9619 11.5764 11.5771C11.9607 11.1924 12.4369 11 13.0049 11H19.8052C20.1569 11 20.4516 11.1193 20.6895 11.3578C20.9274 11.5962 21.0464 11.8918 21.0464 12.2444C21.0464 12.5969 20.9274 12.8919 20.6895 13.1293C20.4516 13.3667 20.1569 13.4854 19.8052 13.4854H13.4824ZM36.5176 13.4854H30.1948C29.8431 13.4854 29.5484 13.3661 29.3105 13.1276C29.0726 12.8891 28.9536 12.5935 28.9536 12.241C28.9536 11.8884 29.0726 11.5934 29.3105 11.3561C29.5484 11.1187 29.8431 11 30.1948 11H36.9951C37.5631 11 38.0393 11.1924 38.4236 11.5771C38.8079 11.9619 39 12.4386 39 13.0074V19.8169C39 20.169 38.8809 20.4641 38.6427 20.7023C38.4045 20.9405 38.1093 21.0596 37.7571 21.0596C37.405 21.0596 37.1104 20.9405 36.8733 20.7023C36.6362 20.4641 36.5176 20.169 36.5176 19.8169V13.4854Z" fill="white"/>
</svg>
