<svg width="50" height="50" viewBox="0 0 50 50" fill="none" xmlns="http://www.w3.org/2000/svg">
<rect x="1" y="1" width="48" height="48" rx="5" fill="#C7000A" stroke="#C7000A" stroke-width="2"/>
<path fill-rule="evenodd" clip-rule="evenodd" d="M33.6248 13.5507C34.0501 13.5509 34.4755 13.5512 34.9008 13.5512C35.6079 13.5512 35.8994 13.8433 35.8994 14.5511C35.8994 14.6898 35.8995 14.8285 35.8997 14.9672C35.9 15.2444 35.9003 15.5216 35.8994 15.7991C35.8974 16.4047 35.5799 16.7249 34.9769 16.7249H24.9414H14.9814C14.305 16.7249 14.0022 16.4254 14.0015 15.757C14.0013 15.6532 14.0011 15.5495 14.0008 15.4457C13.9999 15.1001 13.9991 14.7548 14.0022 14.409C14.0068 13.8894 14.343 13.5532 14.8666 13.5525C14.9534 13.5524 15.0402 13.5523 15.127 13.5521C16.8625 13.5496 18.5981 13.547 20.3336 13.5565C20.5671 13.5578 20.7011 13.4898 20.7905 13.2737C20.8852 13.0436 21.0046 12.8221 21.126 12.6047C21.3468 12.2078 21.6917 12.0023 22.1459 12.0017C23.5437 11.9997 24.9418 11.9999 26.3398 12.0002C26.8058 12.0003 27.2717 12.0003 27.7376 12.0003C28.2179 12.0003 28.5607 12.2311 28.7922 12.6373C28.9109 12.8475 29.0243 13.0616 29.117 13.2837C29.2091 13.5025 29.3565 13.5572 29.584 13.5558C30.9309 13.5493 32.2778 13.55 33.6248 13.5507ZM24.9527 18.2417H33.9869L33.9863 18.2404C34.166 18.2404 34.2539 18.2404 34.2939 18.2841C34.3346 18.3287 34.3256 18.4188 34.3131 18.6006C34.2767 19.1326 34.2453 19.6648 34.214 20.197C34.1931 20.5523 34.1721 20.9075 34.1497 21.2627C34.1139 21.8288 34.0774 22.3947 34.0409 22.9607C33.9971 23.6384 33.9534 24.3161 33.9109 24.994C33.8847 25.4145 33.8598 25.835 33.8349 26.2556C33.8073 26.7225 33.7796 27.1894 33.7501 27.6561C33.7111 28.2782 33.6709 28.9 33.6307 29.5218C33.5906 30.1437 33.5504 30.7655 33.5113 31.3875C33.4769 31.9325 33.4445 32.4777 33.4121 33.0229C33.3918 33.3652 33.3714 33.7074 33.3506 34.0496C33.3453 34.1357 33.3413 34.2221 33.3373 34.3084C33.3269 34.5297 33.3166 34.7511 33.2859 34.9694C33.1231 36.1354 32.1366 36.9966 30.96 36.9972C26.9498 37.0006 22.9403 37.0012 18.9308 36.9972C17.6654 36.9959 16.6589 36 16.5908 34.7393C16.542 33.832 16.4802 32.9252 16.4184 32.0184C16.3813 31.4746 16.3443 30.9308 16.31 30.387C16.2792 29.9023 16.2519 29.4173 16.2247 28.9324C16.1988 28.4715 16.1728 28.0106 16.1439 27.5501C16.0945 26.7635 16.0426 25.9771 15.9908 25.1907C15.9475 24.5347 15.9043 23.8786 15.8624 23.2224C15.8237 22.6133 15.7879 22.0039 15.7521 21.3945C15.7343 21.0915 15.7165 20.7886 15.6983 20.4856C15.6884 20.3194 15.6789 20.1532 15.6693 19.987C15.6421 19.5146 15.6148 19.0421 15.5803 18.5699L15.5796 18.5602C15.5569 18.2515 15.5562 18.2417 15.8684 18.2417H21.8083H24.9527ZM29.9474 32.9003L30.2282 32.6195L30.2289 32.6202C30.3843 32.2493 30.3036 31.9491 30.0128 31.6617C29.0443 30.705 28.0824 29.7414 27.1205 28.7779C26.7827 28.4395 26.4448 28.101 26.1067 27.7629C26.0133 27.669 26.0144 27.5743 26.11 27.4787C26.7724 26.816 27.4349 26.1535 28.0974 25.491C28.7599 24.8284 29.4225 24.1659 30.0848 23.5032C30.3103 23.2778 30.367 22.9576 30.2336 22.6828C30.0128 22.2265 29.4271 22.1265 29.0676 22.486C28.2719 23.2805 27.477 24.0757 26.682 24.8709C26.1521 25.4009 25.6222 25.931 25.0921 26.4608C24.9961 26.5564 24.9013 26.5575 24.808 26.4642C24.4892 26.1456 24.1702 25.8272 23.8512 25.5088C22.8678 24.5275 21.8846 23.5462 20.9085 22.558C20.621 22.2672 20.3208 22.1858 19.95 22.3419L19.6692 22.6227C19.5137 22.9929 19.5945 23.2938 19.8853 23.5806C20.8799 24.5626 21.8672 25.5519 22.8546 26.5412C23.1663 26.8535 23.4781 27.1659 23.7901 27.478C23.8848 27.5728 23.8848 27.6675 23.7901 27.7622C22.472 29.0803 21.154 30.3983 19.8359 31.7157C19.7585 31.7924 19.6878 31.8724 19.6471 31.9765C19.5624 32.1926 19.5925 32.4021 19.6792 32.6095L19.96 32.8903C20.3309 33.0471 20.631 32.967 20.9178 32.6769C21.8656 31.7179 22.8198 30.7653 23.7742 29.8126C24.1188 29.4686 24.4635 29.1245 24.808 28.7801C24.9027 28.6854 24.9974 28.6854 25.0921 28.7801C26.4122 30.1001 27.7329 31.4209 29.0529 32.7416C29.1303 32.8189 29.2103 32.8903 29.3144 32.931C29.5305 33.0164 29.74 32.987 29.9474 32.9003Z" fill="white"/>
</svg>
