<svg width="50" height="50" viewBox="0 0 50 50" fill="none" xmlns="http://www.w3.org/2000/svg">
<rect x="1" y="1" width="48" height="48" rx="5" fill="#2C2C2C" stroke="#2C2C2C" stroke-width="2"/>
<path d="M37.1361 25.5646C37.1512 25.5327 37.1636 25.4999 37.1761 25.4672C37.2071 25.3857 37.2293 25.3024 37.2426 25.2192C37.2444 25.2112 37.2461 25.2032 37.247 25.1944C37.2506 25.1678 37.2532 25.1404 37.255 25.1138C37.2568 25.0979 37.2586 25.081 37.2594 25.0651C37.2603 25.0465 37.2594 25.027 37.2594 25.0084C37.2594 24.9836 37.2603 24.9588 37.2594 24.934C37.2594 24.9243 37.2577 24.9137 37.2568 24.9039C37.247 24.7649 37.2142 24.6276 37.1592 24.4939C37.1512 24.4753 37.1441 24.4558 37.1361 24.4372C37.1317 24.4283 37.1264 24.4195 37.1228 24.4115C37.1069 24.3805 37.0909 24.3486 37.0732 24.3185C37.0732 24.3185 37.0723 24.3167 37.0714 24.315C37.0669 24.307 37.0607 24.2999 37.0563 24.2928C37.0386 24.2645 37.0199 24.2353 36.9995 24.2078C36.9898 24.1945 36.9791 24.183 36.9694 24.1706C36.9525 24.1494 36.9357 24.1281 36.917 24.1077C36.9019 24.0909 36.8851 24.0759 36.8691 24.0599C36.8549 24.0458 36.8407 24.0307 36.8257 24.0165C36.8035 23.9962 36.7804 23.9784 36.7573 23.9598C36.7467 23.951 36.7361 23.9421 36.7254 23.9342C36.6952 23.912 36.6651 23.8917 36.6332 23.8722C36.6278 23.8686 36.6225 23.8651 36.6172 23.8615L36.6119 23.8589C36.6119 23.8589 36.6056 23.8553 36.603 23.8536L18.0155 12.6913C18.0084 12.6869 18.0013 12.6842 17.9933 12.6798C17.9703 12.6665 17.9463 12.6541 17.9224 12.6417C17.9064 12.6337 17.8904 12.6258 17.8745 12.6187C17.8514 12.608 17.8283 12.5992 17.8044 12.5903C17.7857 12.5832 17.768 12.5762 17.7494 12.57C17.7281 12.5629 17.7059 12.5567 17.6846 12.5505C17.6633 12.5443 17.642 12.539 17.6199 12.5337C17.6003 12.5292 17.5808 12.5257 17.5613 12.5221C17.5365 12.5177 17.5125 12.5142 17.4877 12.5106C17.4699 12.5089 17.4513 12.5071 17.4336 12.5053C17.4069 12.5035 17.3803 12.5018 17.3546 12.5009C17.3466 12.5009 17.3378 12.5 17.3298 12.5C17.32 12.5 17.3103 12.5009 17.2996 12.5018C17.2748 12.5018 17.2499 12.5035 17.2251 12.5053C17.2038 12.5071 17.1834 12.5089 17.163 12.5115C17.1426 12.5142 17.1213 12.5177 17.1009 12.5213C17.0769 12.5257 17.0539 12.5301 17.0308 12.5354C17.0131 12.5399 16.9962 12.5443 16.9785 12.5487C16.9536 12.5558 16.9297 12.5629 16.9048 12.5708C16.888 12.5762 16.872 12.5824 16.8561 12.5886C16.833 12.5974 16.809 12.6063 16.7869 12.6169C16.7691 12.6249 16.7523 12.6337 16.7345 12.6417C16.7141 12.6514 16.6946 12.6621 16.6751 12.6727C16.6556 12.6833 16.6369 12.6957 16.6183 12.7072C16.6015 12.7179 16.5855 12.7285 16.5695 12.7391C16.5491 12.7533 16.5296 12.7683 16.5101 12.7834C16.4959 12.794 16.4826 12.8055 16.4693 12.8162C16.4498 12.8321 16.4311 12.8498 16.4134 12.8675C16.4001 12.8799 16.3868 12.8923 16.3744 12.9056C16.3584 12.9224 16.3424 12.9402 16.3265 12.9579C16.3123 12.9738 16.299 12.9897 16.2856 13.0066C16.2732 13.0225 16.2608 13.0393 16.2484 13.0562C16.2333 13.0765 16.22 13.0978 16.2067 13.119C16.2014 13.127 16.1952 13.135 16.1907 13.1438C16.1863 13.1509 16.1836 13.158 16.1792 13.166C16.1659 13.189 16.1535 13.2129 16.141 13.2368C16.1331 13.2528 16.1251 13.2687 16.118 13.2855C16.1073 13.3086 16.0985 13.3316 16.0896 13.3546C16.0825 13.3732 16.0754 13.3918 16.0692 13.4104C16.0621 13.4317 16.0559 13.4529 16.0497 13.4742C16.0435 13.4963 16.0381 13.5176 16.0328 13.5397C16.0284 13.5583 16.0248 13.5778 16.0222 13.5973C16.0177 13.6221 16.0133 13.6469 16.0106 13.6726C16.0089 13.6903 16.0071 13.7071 16.0053 13.7248C16.0035 13.7514 16.0018 13.7788 16.0009 13.8054C16.0009 13.8134 16 13.8213 16 13.8293V36.1716C16 36.1796 16.0009 36.1875 16.0009 36.1955C16.0009 36.2221 16.0027 36.2495 16.0053 36.2761C16.0071 36.2938 16.008 36.3106 16.0098 36.3283C16.0124 36.3531 16.0169 36.3788 16.0213 36.4036C16.0248 36.4222 16.0284 36.4417 16.0319 36.4603C16.0373 36.4824 16.0426 36.5046 16.0488 36.5267C16.055 36.548 16.0603 36.5692 16.0674 36.5896C16.0736 36.6091 16.0807 36.6277 16.0878 36.6463C16.0967 36.6693 16.1056 36.6923 16.1162 36.7145C16.1233 36.7313 16.1322 36.7472 16.1402 36.7641C16.1517 36.7871 16.1641 36.8101 16.1774 36.8331C16.1819 36.8402 16.1854 36.8482 16.1898 36.8553C16.1978 36.8694 16.2076 36.8818 16.2165 36.896C16.2218 36.904 16.2271 36.9128 16.2324 36.9208C16.2546 36.9527 16.2777 36.9837 16.3016 37.0129C16.3043 37.0165 16.3069 37.0191 16.3105 37.0227C16.3344 37.051 16.3593 37.0784 16.385 37.105C16.3877 37.1077 16.3903 37.1103 16.393 37.1139C16.4506 37.1714 16.5127 37.2219 16.5784 37.2671C16.5828 37.2706 16.5873 37.2733 16.5926 37.2768C16.6254 37.2981 16.6582 37.3185 16.6928 37.337C16.6982 37.3397 16.7035 37.3424 16.7079 37.345C16.7363 37.3601 16.7656 37.3742 16.7948 37.3866C16.8046 37.3911 16.8152 37.3955 16.825 37.3999C16.8578 37.4132 16.8907 37.4256 16.9244 37.4362C16.935 37.4398 16.9457 37.4424 16.9563 37.446C16.9847 37.454 17.0131 37.4619 17.0415 37.4681C17.0512 37.4699 17.061 37.4725 17.0707 37.4743C17.108 37.4814 17.1453 37.4876 17.1834 37.4911C17.1914 37.4911 17.1994 37.4929 17.2065 37.4938C17.2473 37.4973 17.289 37.5 17.3307 37.5C17.3723 37.5 17.414 37.4973 17.4566 37.4929C17.4628 37.4929 17.4682 37.492 17.4744 37.4911C17.5542 37.4823 17.6332 37.4663 17.7112 37.4433C17.7201 37.4407 17.7299 37.438 17.7387 37.4345C17.7715 37.4238 17.8044 37.4123 17.8372 37.3982C17.8416 37.3964 17.8452 37.3955 17.8496 37.3937C17.8833 37.3796 17.917 37.3627 17.9499 37.345C17.9614 37.3388 17.972 37.3326 17.9827 37.3264C17.9933 37.3202 18.004 37.3149 18.0146 37.3087L36.6163 26.1376C36.6163 26.1376 36.6207 26.134 36.6234 26.1331C36.6589 26.1119 36.6935 26.088 36.7272 26.0632C36.7298 26.0614 36.7316 26.0596 36.7343 26.0579C36.7644 26.0357 36.7928 26.0109 36.8212 25.9861C36.8274 25.9808 36.8328 25.9755 36.839 25.9702C36.8665 25.9445 36.8931 25.9179 36.9179 25.8896C36.925 25.8816 36.9321 25.8728 36.9392 25.8648C36.9569 25.8444 36.9738 25.8232 36.9898 25.8019C36.9978 25.7913 37.0066 25.7798 37.0146 25.7692C37.0341 25.7417 37.0528 25.7134 37.0705 25.685L37.0714 25.6833C37.0927 25.6487 37.1113 25.6124 37.129 25.5761C37.1308 25.5725 37.1335 25.5681 37.1353 25.5646H37.1361ZM18.6604 16.1788L33.35 25.0004L18.6604 33.8229V16.1788Z" fill="white"/>
</svg>
